GeoramaSemiCondensed-ExtraLightItalic.ufo
<glyph name="exclam" format="2">
  <advance width="162.114"/>
  <unicode hex="0021"/>
  <outline>
    <contour>
      <point x="63.65199999999999" y="263.55" type="line"/>
      <point x="94.396" y="263.55" type="line"/>
      <point x="171.214" y="740.0" type="line"/>
      <point x="137.85999999999999" y="740.0" type="line"/>
    </contour>
    <contour>
      <point x="18.234" y="15.345999999999998" type="curve" smooth="yes"/>
      <point x="17.324" y="3.1499999999999995"/>
      <point x="21.120000000000005" y="-0.8999999999999999"/>
      <point x="36.275999999999996" y="-0.8999999999999999" type="curve" smooth="yes"/>
      <point x="59.138" y="-0.8999999999999999"/>
      <point x="62.362" y="7.497999999999999"/>
      <point x="65.092" y="34.836" type="curve" smooth="yes"/>
      <point x="66.002" y="47.76"/>
      <point x="60.75" y="51.082"/>
      <point x="46.34" y="51.082" type="curve" smooth="yes"/>
      <point x="24.988000000000003" y="51.082"/>
      <point x="20.964000000000002" y="42.738"/>
    </contour>
  </outline>
</glyph>
<glyph name="numbersign" format="2">
  <advance width="419.32800000000003"/>
  <unicode hex="0023"/>
  <outline>
    <contour>
      <point x="101.28399999999999" y="475.244" type="line"/>
      <point x="175.916" y="475.244" type="line"/>
      <point x="102.17600000000002" y="222.59799999999998" type="line"/>
      <point x="33.498000000000005" y="222.59799999999998" type="line"/>
      <point x="27.936" y="192.036" type="line"/>
      <point x="93.914" y="192.036" type="line"/>
      <point x="37.726" y="0.0" type="line"/>
      <point x="69.848" y="0.0" type="line"/>
      <point x="125.126" y="192.036" type="line"/>
      <point x="229.194" y="192.036" type="line"/>
      <point x="173.916" y="0.0" type="line"/>
      <point x="205.238" y="0.0" type="line"/>
      <point x="260.516" y="192.036" type="line"/>
      <point x="337.356" y="192.036" type="line"/>
      <point x="342.172" y="222.59799999999998" type="line"/>
      <point x="268.996" y="222.59799999999998" type="line"/>
      <point x="342.518" y="475.244" type="line"/>
      <point x="409.958" y="475.244" type="line"/>
      <point x="415.046" y="505.91400000000004" type="line"/>
      <point x="350.962" y="505.91400000000004" type="line"/>
      <point x="407.876" y="700.0" type="line"/>
      <point x="376.48199999999997" y="700.0" type="line"/>
      <point x="319.568" y="505.91400000000004" type="line"/>
      <point x="215.49999999999997" y="505.91400000000004" type="line"/>
      <point x="272.414" y="700.0" type="line"/>
      <point x="241.092" y="700.0" type="line"/>
      <point x="184.178" y="505.91400000000004" type="line"/>
      <point x="106.35399999999998" y="505.91400000000004" type="line"/>
    </contour>
    <contour>
      <point x="207.23800000000003" y="475.244" type="line"/>
      <point x="311.30600000000004" y="475.244" type="line"/>
      <point x="237.638" y="222.59799999999998" type="line"/>
      <point x="133.57" y="222.59799999999998" type="line"/>
    </contour>
  </outline>
</glyph>
<glyph name="dollar" format="2">
  <advance width="419.32800000000003"/>
  <unicode hex="0024"/>
  <outline>
    <contour>
      <point x="401.30400000000003" y="687.524" type="line"/>
      <point x="382.75" y="696.228"/>
      <point x="347.484" y="707.972"/>
      <point x="300.76" y="709.694" type="curve"/>
      <point x="315.96" y="804.856" type="line"/>
      <point x="285.72" y="804.856" type="line"/>
      <point x="269.758" y="707.994" type="line"/>
      <point x="166.418" y="700.178"/>
      <point x="99.27600000000001" y="611.528"/>
      <point x="99.27600000000001" y="520.528" type="curve" smooth="yes"/>
      <point x="99.27600000000001" y="361.424"/>
      <point x="309.9" y="314.336"/>
      <point x="309.9" y="175.534" type="curve" smooth="yes"/>
      <point x="309.9" y="89.352"/>
      <point x="234.428" y="23.426000000000002"/>
      <point x="151.098" y="23.426000000000002" type="curve" smooth="yes"/>
      <point x="100.102" y="23.426000000000002"/>
      <point x="46.142" y="36.554"/>
      <point x="19.392" y="49.559999999999995" type="curve"/>
      <point x="4.5280000000000005" y="18.110000000000003" type="line"/>
      <point x="30.002" y="6.827999999999999"/>
      <point x="80.164" y="-8.026"/>
      <point x="135.098" y="-9.55" type="curve"/>
      <point x="120.098" y="-105.0" type="line"/>
      <point x="150.32" y="-105.0" type="line"/>
      <point x="165.32" y="-8.515999999999998" type="line"/>
      <point x="273.82000000000005" y="-0.7540000000000004"/>
      <point x="345.344" y="84.304"/>
      <point x="345.344" y="180.76399999999998" type="curve" smooth="yes"/>
      <point x="345.344" y="338.39400000000006"/>
      <point x="135.024" y="383.598"/>
      <point x="135.024" y="523.3240000000001" type="curve" smooth="yes"/>
      <point x="135.024" y="603.7760000000001"/>
      <point x="204.28799999999998" y="677.382"/>
      <point x="283.45" y="677.382" type="curve" smooth="yes"/>
      <point x="331.7" y="677.382"/>
      <point x="361.154" y="668.724"/>
      <point x="387.348" y="657.296" type="curve"/>
    </contour>
  </outline>
</glyph>
<glyph name="ampersand" format="2">
  <advance width="479.38400000000007"/>
  <unicode hex="0026"/>
  <outline>
    <contour>
      <point x="173.616" y="-10.0" type="curve" smooth="yes"/>
      <point x="293.232" y="-10.0"/>
      <point x="397.48799999999994" y="136.576"/>
      <point x="392.12" y="291.8999999999999" type="curve"/>
      <point x="362.384" y="294.88" type="line"/>
      <point x="370.36" y="160.23600000000002"/>
      <point x="275.32800000000003" y="21.231999999999996"/>
      <point x="177.51999999999998" y="21.231999999999996" type="curve" smooth="yes"/>
      <point x="99.07600000000001" y="21.231999999999996"/>
      <point x="58.416" y="67.024"/>
      <point x="58.416" y="142.556" type="curve" smooth="yes"/>
      <point x="58.416" y="288.356"/>
      <point x="165.872" y="386.184"/>
      <point x="289.72" y="386.184" type="curve" smooth="yes"/>
      <point x="300.82800000000003" y="386.184" type="line"/>
      <point x="305.676" y="413.764" type="line"/>
      <point x="297.016" y="414.1239999999999" type="line" smooth="yes"/>
      <point x="223.90800000000002" y="414.98799999999994"/>
      <point x="179.476" y="459.49199999999996"/>
      <point x="179.476" y="540.808" type="curve" smooth="yes"/>
      <point x="179.476" y="616.4760000000001"/>
      <point x="227.53599999999997" y="680.1440000000001"/>
      <point x="301.02" y="680.1440000000001" type="curve" smooth="yes"/>
      <point x="339.38" y="680.1440000000001"/>
      <point x="373.24800000000005" y="667.336"/>
      <point x="402.396" y="641.236" type="curve"/>
      <point x="419.216" y="667.4920000000001" type="line"/>
      <point x="389.424" y="694.18"/>
      <point x="346.35999999999996" y="710.0"/>
      <point x="301.20400000000006" y="710.0" type="curve" smooth="yes"/>
      <point x="205.728" y="710.0"/>
      <point x="145.91199999999998" y="633.932"/>
      <point x="145.91199999999998" y="541.7639999999999" type="curve" smooth="yes"/>
      <point x="145.91199999999998" y="470.66799999999995"/>
      <point x="181.036" y="421.076"/>
      <point x="234.34800000000004" y="403.62" type="curve"/>
      <point x="113.628" y="381.65999999999997"/>
      <point x="24.456" y="279.31600000000003"/>
      <point x="24.456" y="138.696" type="curve" smooth="yes"/>
      <point x="24.456" y="47.764"/>
      <point x="74.292" y="-10.0"/>
    </contour>
    <contour>
      <point x="265.42" y="256.35999999999996" type="line"/>
      <point x="269.84000000000003" y="284.192"/>
      <point x="288.284" y="297.844"/>
      <point x="313.09999999999997" y="297.844" type="curve" smooth="yes"/>
      <point x="355.452" y="297.844"/>
      <point x="376.576" y="278.60400000000004"/>
      <point x="424.92400000000004" y="278.60400000000004" type="curve" smooth="yes"/>
      <point x="464.32" y="278.60400000000004"/>
      <point x="490.148" y="304.544"/>
      <point x="495.0440000000001" y="340.672" type="curve"/>
      <point x="469.98400000000004" y="347.22400000000005" type="line"/>
      <point x="464.744" y="319.544"/>
      <point x="445.94800000000004" y="304.788"/>
      <point x="416.7480000000001" y="304.788" type="curve" smooth="yes"/>
      <point x="379.64000000000004" y="304.788"/>
      <point x="349.484" y="324.24399999999997"/>
      <point x="309.79200000000003" y="324.24399999999997" type="curve" smooth="yes"/>
      <point x="272.392" y="324.24399999999997"/>
      <point x="247.56400000000002" y="301.804"/>
      <point x="240.232" y="265.476" type="curve"/>
    </contour>
  </outline>
</glyph>
<glyph name="quotesingle" format="2">
  <advance width="132.434"/>
  <unicode hex="0027"/>
  <outline>
    <contour>
      <point x="77.156" y="427.0" type="line"/>
      <point x="102.88199999999999" y="427.0" type="line"/>
      <point x="150.422" y="700.0" type="line"/>
      <point x="116.012" y="700.0" type="line"/>
    </contour>
  </outline>
</glyph>
<glyph name="parenleft" format="2">
  <advance width="227.864"/>
  <unicode hex="0028"/>
  <outline>
    <contour>
      <point x="43.884" y="13.64" type="curve" smooth="yes"/>
      <point x="43.884" y="-106.228"/>
      <point x="71.20400000000001" y="-195.138"/>
      <point x="129.062" y="-220.0" type="curve"/>
      <point x="141.484" y="-190.82" type="line"/>
      <point x="100.938" y="-173.24200000000002"/>
      <point x="73.78399999999999" y="-95.03399999999999"/>
      <point x="73.78399999999999" y="18.986" type="curve" smooth="yes"/>
      <point x="73.78399999999999" y="217.872"/>
      <point x="162.60000000000002" y="660.4780000000001"/>
      <point x="283.212" y="717.764" type="curve"/>
      <point x="280.93" y="749.272" type="line"/>
      <point x="124.282" y="680.5120000000001"/>
      <point x="43.884" y="238.342"/>
    </contour>
  </outline>
</glyph>
<glyph name="parenright" format="2">
  <advance width="227.864"/>
  <unicode hex="0029"/>
  <outline>
    <contour>
      <point x="181.69" y="515.996" type="curve" smooth="yes"/>
      <point x="181.69" y="637.046"/>
      <point x="154.734" y="725.138"/>
      <point x="96.694" y="750.0" type="curve"/>
      <point x="85.728" y="718.182" type="line"/>
      <point x="129.55" y="695.872"/>
      <point x="151.79000000000002" y="621.486"/>
      <point x="151.79000000000002" y="520.024" type="curve" smooth="yes"/>
      <point x="151.79000000000002" y="316.952"/>
      <point x="63.519999999999996" y="-131.20600000000002"/>
      <point x="-58.730000000000004" y="-188.856" type="curve"/>
      <point x="-55.72" y="-220.0" type="line"/>
      <point x="92.738" y="-148.002"/>
      <point x="181.69" y="284.01200000000006"/>
    </contour>
  </outline>
</glyph>
<glyph name="asterisk" format="2">
  <advance width="243.70800000000003"/>
  <unicode hex="002A"/>
  <outline>
    <contour>
      <point x="81.31200000000001" y="381.51000000000005" type="line"/>
      <point x="154.766" y="481.758" type="line"/>
      <point x="195.156" y="382.238" type="line"/>
      <point x="215.156" y="395.474" type="line"/>
      <point x="176.05599999999998" y="502.132" type="line"/>
      <point x="274.684" y="548.172" type="line"/>
      <point x="270.164" y="570.038" type="line"/>
      <point x="174.05" y="529.578" type="line"/>
      <point x="193.00999999999996" y="657.192" type="line"/>
      <point x="170.616" y="657.192" type="line"/>
      <point x="149.568" y="530.306" type="line"/>
      <point x="65.968" y="570.766" type="line"/>
      <point x="55.50600000000001" y="549.628" type="line"/>
      <point x="138.57199999999997" y="503.588" type="line"/>
      <point x="64.408" y="395.838" type="line"/>
    </contour>
  </outline>
</glyph>
<glyph name="plus" format="2">
  <advance width="381.924"/>
  <unicode hex="002B"/>
  <outline>
    <contour>
      <point x="144.744" y="78.822" type="line"/>
      <point x="176.378" y="78.822" type="line"/>
      <point x="207.594" y="276.032" type="line"/>
      <point x="338.386" y="276.032" type="line"/>
      <point x="343.528" y="308.35" type="line"/>
      <point x="212.73600000000002" y="308.35" type="line"/>
      <point x="244.15200000000002" y="506.27" type="line"/>
      <point x="212.554" y="506.27" type="line"/>
      <point x="181.102" y="308.35" type="line"/>
      <point x="49.635999999999996" y="308.35" type="line"/>
      <point x="44.49399999999999" y="276.032" type="line"/>
      <point x="175.99599999999998" y="276.032" type="line"/>
    </contour>
  </outline>
</glyph>
<glyph name="comma" format="2">
  <advance width="125.008"/>
  <unicode hex="002C"/>
  <outline>
    <contour>
      <point x="9.482" y="39.837999999999994" type="line"/>
      <point x="10.847999999999999" y="26.95"/>
      <point x="10.852" y="13.493999999999998"/>
      <point x="10.564000000000002" y="2.008" type="curve" smooth="yes"/>
      <point x="9.664" y="-62.274"/>
      <point x="-26.648" y="-148.44799999999998"/>
      <point x="-75.812" y="-183.508" type="curve"/>
      <point x="-58.22000000000001" y="-200.528" type="line"/>
      <point x="15.46" y="-149.084"/>
      <point x="44.31" y="-42.968"/>
      <point x="44.31" y="9.858" type="curve" smooth="yes"/>
      <point x="44.31" y="22.022"/>
      <point x="43.67400000000001" y="33.204"/>
      <point x="41.254000000000005" y="46.662000000000006" type="curve"/>
    </contour>
  </outline>
</glyph>
<glyph name="hyphen" format="2">
  <advance width="237.03199999999998"/>
  <unicode hex="002D"/>
  <outline>
    <contour>
      <point x="25.05" y="251.294" type="line"/>
      <point x="204.40800000000002" y="251.294" type="line"/>
      <point x="210.566" y="284.856" type="line"/>
      <point x="31.208000000000002" y="284.856" type="line"/>
    </contour>
  </outline>
</glyph>
<glyph name="period" format="2">
  <advance width="125.242"/>
  <unicode hex="002E"/>
  <outline>
    <contour>
      <point x="-0.4580000000000002" y="15.562" type="curve" smooth="yes"/>
      <point x="-1.3680000000000003" y="3.2939999999999996"/>
      <point x="2.3560000000000016" y="-0.6839999999999999"/>
      <point x="17.584000000000003" y="-0.6839999999999999" type="curve" smooth="yes"/>
      <point x="40.44599999999999" y="-0.6839999999999999"/>
      <point x="43.598" y="7.714"/>
      <point x="46.327999999999996" y="35.196" type="curve" smooth="yes"/>
      <point x="47.238" y="48.047999999999995"/>
      <point x="42.058" y="51.298"/>
      <point x="27.648" y="51.298" type="curve" smooth="yes"/>
      <point x="6.224" y="51.298"/>
      <point x="2.2720000000000002" y="42.954"/>
    </contour>
  </outline>
</glyph>
<glyph name="slash" format="2">
  <advance width="254.73000000000002"/>
  <unicode hex="002F"/>
  <outline>
    <contour>
      <point x="-67.712" y="-210.0" type="line"/>
      <point x="-36.762" y="-210.0" type="line"/>
      <point x="319.442" y="740.0" type="line"/>
      <point x="288.33" y="740.0" type="line"/>
    </contour>
  </outline>
</glyph>
<glyph name="zero" format="2">
  <advance width="419.43600000000004"/>
  <unicode hex="0030"/>
  <outline>
    <contour>
      <point x="172.15200000000002" y="-10.18" type="curve" smooth="yes"/>
      <point x="337.012" y="-10.18"/>
      <point x="417.79" y="326.326"/>
      <point x="417.79" y="522.97" type="curve" smooth="yes"/>
      <point x="417.79" y="655.9079999999999"/>
      <point x="370.308" y="710.09"/>
      <point x="269.808" y="710.09" type="curve" smooth="yes"/>
      <point x="103.97399999999999" y="710.09"/>
      <point x="24.244" y="373.642"/>
      <point x="24.244" y="177.538" type="curve" smooth="yes"/>
      <point x="24.244" y="44.690000000000005"/>
      <point x="71.97999999999999" y="-10.18"/>
    </contour>
    <contour>
      <point x="173.95200000000003" y="22.95" type="curve" smooth="yes"/>
      <point x="95.108" y="22.95"/>
      <point x="57.978" y="68.5"/>
      <point x="58.724" y="177.062" type="curve" smooth="yes"/>
      <point x="60.126" y="365.612"/>
      <point x="133.922" y="677.0500000000001"/>
      <point x="268.00800000000004" y="677.0500000000001" type="curve" smooth="yes"/>
      <point x="347.18" y="677.0500000000001"/>
      <point x="384.0559999999999" y="632.0079999999999"/>
      <point x="383.31" y="523.4459999999999" type="curve" smooth="yes"/>
      <point x="381.90799999999996" y="335.24"/>
      <point x="307.694" y="22.95"/>
    </contour>
  </outline>
</glyph>
<glyph name="one" format="2">
  <advance width="419.32800000000003"/>
  <unicode hex="0031"/>
  <outline>
    <contour>
      <point x="11.376000000000003" y="0.0" type="line"/>
      <point x="352.662" y="0.0" type="line"/>
      <point x="357.85800000000006" y="33.138" type="line"/>
      <point x="212.31400000000002" y="33.138" type="line"/>
      <point x="318.698" y="701.82" type="line"/>
      <point x="300.35400000000004" y="701.82" type="line"/>
      <point x="86.42800000000001" y="569.5959999999999" type="line"/>
      <point x="95.15599999999999" y="539.154" type="line"/>
      <point x="276.19" y="650.802" type="line"/>
      <point x="178.268" y="33.138" type="line"/>
      <point x="16.500000000000004" y="33.138" type="line"/>
    </contour>
  </outline>
</glyph>
<glyph name="two" format="2">
  <advance width="419.43600000000004"/>
  <unicode hex="0032"/>
  <outline>
    <contour>
      <point x="19.668" y="27.62" type="curve"/>
      <point x="19.180000000000003" y="0.0" type="line"/>
      <point x="336.24399999999997" y="0.0" type="line"/>
      <point x="340.822" y="31.51" type="line"/>
      <point x="66.452" y="31.51" type="line"/>
      <point x="245.32799999999997" y="219.43800000000002"/>
      <point x="370.944" y="413.128"/>
      <point x="370.944" y="582.246" type="curve" smooth="yes"/>
      <point x="370.944" y="663.9140000000001"/>
      <point x="323.382" y="710.0"/>
      <point x="249.44400000000002" y="710.0" type="curve" smooth="yes"/>
      <point x="198.14600000000002" y="710.0"/>
      <point x="148.144" y="691.116"/>
      <point x="107.074" y="653.772" type="curve"/>
      <point x="118.954" y="626.812" type="line"/>
      <point x="161.012" y="661.282"/>
      <point x="198.134" y="676.3879999999999"/>
      <point x="240.578" y="676.3879999999999" type="curve" smooth="yes"/>
      <point x="298.116" y="676.3879999999999"/>
      <point x="336.104" y="639.41"/>
      <point x="336.104" y="571.8679999999999" type="curve" smooth="yes"/>
      <point x="335.448" y="423.942"/>
      <point x="215.07399999999998" y="232.86999999999998"/>
    </contour>
  </outline>
</glyph>
<glyph name="three" format="2">
  <advance width="419.59999999999997"/>
  <unicode hex="0033"/>
  <outline>
    <contour>
      <point x="-11.2" y="43.505" type="line"/>
      <point x="26.470000000000002" y="8.41"/>
      <point x="79.92000000000002" y="-10.0"/>
      <point x="147.86499999999998" y="-10.0" type="curve" smooth="yes"/>
      <point x="270.77" y="-10.0"/>
      <point x="356.245" y="89.03"/>
      <point x="356.245" y="238.37500000000003" type="curve" smooth="yes"/>
      <point x="356.245" y="317.005"/>
      <point x="322.885" y="359.465"/>
      <point x="275.46999999999997" y="371.0" type="curve"/>
      <point x="330.22499999999997" y="391.295"/>
      <point x="382.41499999999996" y="462.63"/>
      <point x="382.41499999999996" y="565.055" type="curve" smooth="yes"/>
      <point x="382.41499999999996" y="651.54"/>
      <point x="331.475" y="710.0"/>
      <point x="240.285" y="710.0" type="curve" smooth="yes"/>
      <point x="198.87" y="710.0"/>
      <point x="145.44" y="697.825"/>
      <point x="107.41000000000001" y="673.615" type="curve"/>
      <point x="119.525" y="645.965" type="line"/>
      <point x="156.945" y="668.335"/>
      <point x="197.22" y="676.465"/>
      <point x="234.115" y="676.465" type="curve" smooth="yes"/>
      <point x="303.50500000000005" y="676.465"/>
      <point x="347.8" y="628.98"/>
      <point x="347.8" y="557.805" type="curve" smooth="yes"/>
      <point x="347.8" y="458.32"/>
      <point x="288.17" y="382.14"/>
      <point x="219.445" y="382.14" type="curve" smooth="yes"/>
      <point x="144.11" y="382.14" type="line"/>
      <point x="139.17499999999998" y="352.79999999999995" type="line"/>
      <point x="221.73" y="352.79999999999995" type="line" smooth="yes"/>
      <point x="286.105" y="352.79999999999995"/>
      <point x="321.07500000000005" y="315.15000000000003"/>
      <point x="321.07500000000005" y="234.685" type="curve" smooth="yes"/>
      <point x="321.07500000000005" y="109.92000000000002"/>
      <point x="251.31" y="23.265"/>
      <point x="150.08999999999997" y="23.265" type="curve" smooth="yes"/>
      <point x="89.16000000000001" y="23.265"/>
      <point x="45.974999999999994" y="38.545"/>
      <point x="9.014999999999999" y="69.105" type="curve"/>
    </contour>
  </outline>
</glyph>
<glyph name="four" format="2">
  <advance width="419.59999999999997"/>
  <unicode hex="0034"/>
  <outline>
    <contour>
      <point x="23.03" y="184.375" type="line"/>
      <point x="259.90500000000003" y="184.375" type="line"/>
      <point x="230.57" y="-1.32" type="line"/>
      <point x="265.455" y="-1.32" type="line"/>
      <point x="294.38" y="184.375" type="line"/>
      <point x="379.21" y="184.375" type="line"/>
      <point x="384.1" y="216.48" type="line"/>
      <point x="299.40500000000003" y="216.48" type="line"/>
      <point x="375.77000000000004" y="698.225" type="line"/>
      <point x="347.11499999999995" y="703.64" type="line"/>
      <point x="22.869999999999997" y="212.985" type="line"/>
    </contour>
    <contour>
      <point x="57.345" y="216.48" type="line"/>
      <point x="331.36499999999995" y="626.46" type="line"/>
      <point x="265.46999999999997" y="216.48" type="line"/>
    </contour>
  </outline>
</glyph>
<glyph name="five" format="2">
  <advance width="419.43600000000004"/>
  <unicode hex="0035"/>
  <outline>
    <contour>
      <point x="3.2120000000000006" y="46.35099999999999" type="line"/>
      <point x="36.50400000000001" y="10.19"/>
      <point x="80.973" y="-10.0"/>
      <point x="145.249" y="-10.0" type="curve" smooth="yes"/>
      <point x="308.38899999999995" y="-10.0"/>
      <point x="362.211" y="147.34500000000003"/>
      <point x="362.211" y="254.24699999999996" type="curve" smooth="yes"/>
      <point x="362.211" y="340.64799999999997"/>
      <point x="321.369" y="390.066"/>
      <point x="235.257" y="390.336" type="curve" smooth="yes"/>
      <point x="118.695" y="390.426" type="line"/>
      <point x="180.69000000000003" y="665.8990000000001" type="line"/>
      <point x="398.71" y="665.8990000000001" type="line"/>
      <point x="404.0790000000001" y="700.0" type="line"/>
      <point x="157.288" y="700.0" type="line"/>
      <point x="81.302" y="368.87100000000004" type="line"/>
      <point x="89.61400000000002" y="357.94500000000005" type="line"/>
      <point x="221.466" y="357.94500000000005" type="line" smooth="yes"/>
      <point x="297.422" y="357.94500000000005"/>
      <point x="327.08799999999997" y="318.13700000000006"/>
      <point x="327.08799999999997" y="246.97499999999997" type="curve" smooth="yes"/>
      <point x="327.08799999999997" y="162.09200000000004"/>
      <point x="276.09000000000003" y="23.22"/>
      <point x="148.70900000000003" y="23.22" type="curve" smooth="yes"/>
      <point x="88.535" y="23.22"/>
      <point x="50.78600000000001" y="45.992"/>
      <point x="23.098000000000003" y="72.97000000000001" type="curve"/>
    </contour>
  </outline>
</glyph>
<glyph name="six" format="2">
  <advance width="419.6"/>
  <unicode hex="0036"/>
  <note>
14
</note>
  <outline>
    <contour>
      <point x="192.71" y="-10.0" type="curve" smooth="yes"/>
      <point x="305.40999999999997" y="-10.0"/>
      <point x="382.1" y="98.32000000000001"/>
      <point x="382.1" y="254.73000000000002" type="curve" smooth="yes"/>
      <point x="382.1" y="360.59"/>
      <point x="331.03" y="410.58"/>
      <point x="242.11999999999998" y="410.58" type="curve" smooth="yes"/>
      <point x="180.29" y="410.58"/>
      <point x="109.98" y="376.23"/>
      <point x="66.66" y="302.86" type="curve"/>
      <point x="61.71" y="247.69" type="line"/>
      <point x="99.91" y="327.07"/>
      <point x="166.59" y="379.15999999999997"/>
      <point x="236.32" y="379.15999999999997" type="curve" smooth="yes"/>
      <point x="311.95" y="379.15999999999997"/>
      <point x="347.84" y="334.27000000000004"/>
      <point x="347.84" y="248.90000000000003" type="curve" smooth="yes"/>
      <point x="347.84" y="120.73"/>
      <point x="283.21000000000004" y="21.73"/>
      <point x="194.29" y="21.73" type="curve" smooth="yes"/>
      <point x="111.00999999999999" y="21.73"/>
      <point x="66.52999999999999" y="77.86"/>
      <point x="66.52999999999999" y="187.20000000000002" type="curve" smooth="yes"/>
      <point x="66.52999999999999" y="333.38"/>
      <point x="98.82000000000001" y="467.17"/>
      <point x="152.25" y="559.54" type="curve" smooth="yes"/>
      <point x="194.22000000000003" y="632.59"/>
      <point x="250.1" y="677.0500000000001"/>
      <point x="317.55" y="677.0500000000001" type="curve" smooth="yes"/>
      <point x="354.56" y="677.0500000000001"/>
      <point x="386.42" y="667.87"/>
      <point x="418.28999999999996" y="649.0899999999999" type="curve"/>
      <point x="434.6" y="677.6899999999999" type="line"/>
      <point x="400.5" y="699.2399999999999"/>
      <point x="362.8" y="710.0"/>
      <point x="316.33" y="710.0" type="curve" smooth="yes"/>
      <point x="144.76000000000002" y="710.0"/>
      <point x="33.04" y="477.58"/>
      <point x="33.04" y="184.5" type="curve" smooth="yes"/>
      <point x="33.04" y="55.089999999999996"/>
      <point x="88.14999999999999" y="-10.0"/>
    </contour>
  </outline>
</glyph>
<glyph name="seven" format="2">
  <advance width="419.32800000000003"/>
  <unicode hex="0037"/>
  <note>
9
</note>
  <outline>
    <contour>
      <point x="97.524" y="0.0" type="curve"/>
      <point x="133.416" y="0.0" type="line"/>
      <point x="153.268" y="119.94399999999999"/>
      <point x="189.41600000000003" y="225.696"/>
      <point x="290.848" y="419.788" type="curve" smooth="yes"/>
      <point x="422.392" y="672.0" type="line"/>
      <point x="427.084" y="700.0" type="line"/>
      <point x="95.932" y="700.0" type="line"/>
      <point x="90.664" y="665.744" type="line"/>
      <point x="382.876" y="665.744" type="line"/>
      <point x="262.656" y="439.43999999999994" type="line" smooth="yes"/>
      <point x="166.53199999999998" y="258.696"/>
      <point x="120.58000000000001" y="145.96"/>
    </contour>
  </outline>
</glyph>
<glyph name="eight" format="2">
  <advance width="419.6"/>
  <unicode hex="0038"/>
  <outline>
    <contour>
      <point x="179.11" y="-10.0" type="curve" smooth="yes"/>
      <point x="301.63" y="-10.0"/>
      <point x="377.28999999999996" y="72.88000000000001"/>
      <point x="377.28999999999996" y="193.89000000000001" type="curve" smooth="yes"/>
      <point x="377.28999999999996" y="392.03"/>
      <point x="119.12" y="359.3"/>
      <point x="119.12" y="532.1800000000001" type="curve" smooth="yes"/>
      <point x="119.12" y="619.76"/>
      <point x="178.22" y="678.0400000000001"/>
      <point x="265.41" y="678.0400000000001" type="curve" smooth="yes"/>
      <point x="346.46" y="678.0400000000001"/>
      <point x="382.54" y="634.56"/>
      <point x="382.54" y="570.02" type="curve" smooth="yes"/>
      <point x="382.54" y="477.59999999999997"/>
      <point x="338.07" y="412.22999999999996"/>
      <point x="254.36999999999998" y="364.38" type="curve"/>
      <point x="277.56" y="348.17" type="line"/>
      <point x="363.4" y="397.18"/>
      <point x="415.76" y="470.38"/>
      <point x="415.76" y="573.71" type="curve" smooth="yes"/>
      <point x="415.76" y="653.66"/>
      <point x="370.22" y="710.0"/>
      <point x="266.63" y="710.0" type="curve" smooth="yes"/>
      <point x="156.76" y="710.0"/>
      <point x="85.17999999999999" y="637.73"/>
      <point x="85.17999999999999" y="525.33" type="curve" smooth="yes"/>
      <point x="85.17999999999999" y="337.88"/>
      <point x="342.81" y="373.39"/>
      <point x="342.81" y="189.6" type="curve" smooth="yes"/>
      <point x="342.81" y="89.75999999999999"/>
      <point x="280.4" y="21.24"/>
      <point x="181.37" y="21.24" type="curve" smooth="yes"/>
      <point x="90.23" y="21.24"/>
      <point x="41.6" y="68.86"/>
      <point x="41.6" y="147.09" type="curve" smooth="yes"/>
      <point x="41.6" y="246.18"/>
      <point x="97.22" y="330.97999999999996"/>
      <point x="192.01" y="374.05999999999995" type="curve"/>
      <point x="167.46" y="392.49" type="line"/>
      <point x="67.25999999999999" y="343.55"/>
      <point x="6.71" y="253.0"/>
      <point x="6.71" y="140.38" type="curve" smooth="yes"/>
      <point x="6.71" y="47.57"/>
      <point x="64.03" y="-10.0"/>
    </contour>
  </outline>
</glyph>
<glyph name="nine" format="2">
  <advance width="419.6"/>
  <unicode hex="0039"/>
  <outline>
    <contour>
      <point x="250.25" y="710.0" type="curve" smooth="yes"/>
      <point x="137.55" y="710.0"/>
      <point x="60.77" y="601.68"/>
      <point x="60.77" y="445.27" type="curve" smooth="yes"/>
      <point x="60.77" y="339.41"/>
      <point x="111.57" y="289.51"/>
      <point x="200.39" y="289.51" type="curve" smooth="yes"/>
      <point x="262.31" y="289.51"/>
      <point x="332.98" y="323.5"/>
      <point x="376.21" y="398.04" type="curve"/>
      <point x="381.16" y="452.4" type="line"/>
      <point x="343.05" y="373.02000000000004"/>
      <point x="276.28" y="320.93"/>
      <point x="206.55" y="320.93" type="curve" smooth="yes"/>
      <point x="131.01" y="320.93"/>
      <point x="95.11999999999999" y="365.72999999999996"/>
      <point x="95.11999999999999" y="451.09999999999997" type="curve" smooth="yes"/>
      <point x="95.11999999999999" y="579.3599999999999"/>
      <point x="159.75" y="678.2700000000001"/>
      <point x="248.58" y="678.2700000000001" type="curve" smooth="yes"/>
      <point x="331.77" y="678.2700000000001"/>
      <point x="376.34000000000003" y="622.14"/>
      <point x="376.34000000000003" y="512.8900000000001" type="curve" smooth="yes"/>
      <point x="376.34000000000003" y="367.52000000000004"/>
      <point x="344.41" y="232.65"/>
      <point x="290.89" y="140.19" type="curve" smooth="yes"/>
      <point x="249.01" y="67.14"/>
      <point x="193.22000000000003" y="22.68"/>
      <point x="128.0" y="22.68" type="curve" smooth="yes"/>
      <point x="91.08" y="22.68"/>
      <point x="56.949999999999996" y="31.72"/>
      <point x="24.58" y="55.550000000000004" type="curve"/>
      <point x="8.27" y="26.86" type="line"/>
      <point x="42.96" y="0.34999999999999987"/>
      <point x="82.66" y="-10.0"/>
      <point x="129.30999999999997" y="-10.0" type="curve" smooth="yes"/>
      <point x="296.47" y="-10.0"/>
      <point x="409.83000000000004" y="222.42000000000002"/>
      <point x="409.83000000000004" y="515.5899999999999" type="curve" smooth="yes"/>
      <point x="409.83000000000004" y="645.0"/>
      <point x="354.71999999999997" y="710.0"/>
    </contour>
  </outline>
</glyph>
<glyph name="less" format="2">
  <advance width="382.474"/>
  <unicode hex="003C"/>
  <outline>
    <contour>
      <point x="309.53200000000004" y="85.50399999999999" type="line"/>
      <point x="314.45799999999997" y="119.4" type="line"/>
      <point x="74.92999999999999" y="291.178" type="line"/>
      <point x="369.382" y="463.738" type="line"/>
      <point x="374.308" y="499.23600000000005" type="line"/>
      <point x="49.292" y="310.966" type="line"/>
      <point x="43.404" y="274.51800000000003" type="line"/>
    </contour>
  </outline>
</glyph>
<glyph name="equal" format="2">
  <advance width="379.646"/>
  <unicode hex="003D"/>
  <outline>
    <contour>
      <point x="324.00000000000006" y="204.812" type="line"/>
      <point x="33.42" y="204.812" type="line"/>
      <point x="28.422" y="171.76600000000002" type="line"/>
      <point x="319.002" y="171.76600000000002" type="line"/>
    </contour>
    <contour>
      <point x="356.09000000000003" y="413.41" type="line"/>
      <point x="65.56400000000001" y="413.41" type="line"/>
      <point x="60.51200000000001" y="380.364" type="line"/>
      <point x="351.092" y="380.364" type="line"/>
    </contour>
  </outline>
</glyph>
<glyph name="greater" format="2">
  <advance width="382.474"/>
  <unicode hex="003E"/>
  <outline>
    <contour>
      <point x="339.34000000000003" y="272.334" type="line"/>
      <point x="345.19199999999995" y="308.512" type="line"/>
      <point x="78.444" y="497.59999999999997" type="line"/>
      <point x="73.482" y="463.91999999999996" type="line"/>
      <point x="313.828" y="291.906" type="line"/>
      <point x="19.322" y="120.31" type="line"/>
      <point x="13.65" y="84.048" type="line"/>
    </contour>
  </outline>
</glyph>
<glyph name="question" format="2">
  <advance width="315.73"/>
  <unicode hex="003F"/>
  <outline>
    <contour>
      <point x="124.09" y="263.09399999999994" type="line"/>
      <point x="154.816" y="263.09399999999994" type="line"/>
      <point x="166.598" y="337.848" type="line"/>
      <point x="273.884" y="412.75600000000003"/>
      <point x="342.814" y="475.30600000000004"/>
      <point x="342.814" y="617.444" type="curve" smooth="yes"/>
      <point x="342.814" y="709.85"/>
      <point x="287.648" y="750.0"/>
      <point x="223.85" y="750.0" type="curve" smooth="yes"/>
      <point x="174.262" y="750.0"/>
      <point x="120.34" y="727.526"/>
      <point x="75.49199999999999" y="690.9100000000001" type="curve"/>
      <point x="86.36" y="663.5240000000001" type="line"/>
      <point x="130.842" y="698.356"/>
      <point x="175.93200000000002" y="715.614"/>
      <point x="216.20600000000002" y="715.614" type="curve" smooth="yes"/>
      <point x="267.178" y="715.614"/>
      <point x="307.25" y="681.6279999999999"/>
      <point x="307.25" y="609.868" type="curve" smooth="yes"/>
      <point x="307.25" y="502.592"/>
      <point x="261.062" y="431.964"/>
      <point x="138.448" y="355.39399999999995" type="curve"/>
    </contour>
    <contour>
      <point x="80.658" y="14.745999999999999" type="curve" smooth="yes"/>
      <point x="80.02" y="2.988"/>
      <point x="83.65400000000001" y="-0.8999999999999999"/>
      <point x="98.556" y="-0.8999999999999999" type="curve" smooth="yes"/>
      <point x="121.144" y="-0.8999999999999999"/>
      <point x="125.548" y="7.209999999999999"/>
      <point x="127.46200000000002" y="35.038000000000004" type="curve" smooth="yes"/>
      <point x="128.1" y="47.76"/>
      <point x="122.992" y="50.992"/>
      <point x="108.926" y="50.992" type="curve" smooth="yes"/>
      <point x="87.722" y="50.992"/>
      <point x="82.572" y="42.828"/>
    </contour>
  </outline>
</glyph>
<glyph name="at" format="2">
  <advance width="547.55"/>
  <unicode hex="0040"/>
  <outline>
    <contour>
      <point x="207.9" y="-122.59" type="curve" smooth="yes"/>
      <point x="269.05" y="-122.59"/>
      <point x="325.11999999999995" y="-98.17"/>
      <point x="367.25" y="-50.370000000000005" type="curve"/>
      <point x="353.98" y="-36.43" type="line"/>
      <point x="315.95" y="-78.32"/>
      <point x="266.5" y="-100.06"/>
      <point x="210.4" y="-100.06" type="curve" smooth="yes"/>
      <point x="103.98" y="-100.06"/>
      <point x="42.16" y="-25.42"/>
      <point x="42.16" y="116.31" type="curve" smooth="yes"/>
      <point x="42.16" y="422.66"/>
      <point x="180.17000000000002" y="693.52"/>
      <point x="361.58000000000004" y="693.52" type="curve" smooth="yes"/>
      <point x="461.83000000000004" y="693.52"/>
      <point x="523.0799999999999" y="642.28"/>
      <point x="523.0799999999999" y="508.35999999999996" type="curve" smooth="yes"/>
      <point x="523.0799999999999" y="320.2"/>
      <point x="449.75" y="90.29"/>
      <point x="383.81" y="90.29" type="curve" smooth="yes"/>
      <point x="344.36" y="90.29"/>
      <point x="352.33" y="159.42"/>
      <point x="362.19" y="205.78" type="curve" smooth="yes"/>
      <point x="431.78000000000003" y="520.5" type="line"/>
      <point x="396.07" y="534.35"/>
      <point x="368.38" y="540.02"/>
      <point x="338.41999999999996" y="540.02" type="curve" smooth="yes"/>
      <point x="230.46" y="540.02"/>
      <point x="136.09" y="327.67"/>
      <point x="136.09" y="156.33" type="curve" smooth="yes"/>
      <point x="136.09" y="96.09"/>
      <point x="163.3" y="66.47"/>
      <point x="209.41" y="66.47" type="curve" smooth="yes"/>
      <point x="253.44" y="66.47"/>
      <point x="299.53000000000003" y="99.2"/>
      <point x="329.34000000000003" y="163.09" type="curve"/>
      <point x="327.68" y="124.74"/>
      <point x="327.27000000000004" y="65.52000000000001"/>
      <point x="381.62" y="65.52000000000001" type="curve" smooth="yes"/>
      <point x="470.64" y="65.52000000000001"/>
      <point x="547.0600000000001" y="317.82"/>
      <point x="547.0600000000001" y="513.67" type="curve" smooth="yes"/>
      <point x="547.0600000000001" y="650.92"/>
      <point x="477.58" y="717.28"/>
      <point x="363.79" y="717.28" type="curve" smooth="yes"/>
      <point x="166.94" y="717.28"/>
      <point x="18.409999999999997" y="441.67"/>
      <point x="18.409999999999997" y="108.82000000000001" type="curve" smooth="yes"/>
      <point x="18.409999999999997" y="-40.4"/>
      <point x="86.99000000000001" y="-122.59"/>
    </contour>
    <contour>
      <point x="220.47" y="97.33999999999999" type="curve" smooth="yes"/>
      <point x="186.68" y="97.33999999999999"/>
      <point x="168.98999999999998" y="120.58"/>
      <point x="168.98999999999998" y="165.88" type="curve" smooth="yes"/>
      <point x="168.98999999999998" y="319.95"/>
      <point x="258.58" y="513.0799999999999"/>
      <point x="334.65999999999997" y="513.0799999999999" type="curve" smooth="yes"/>
      <point x="355.35" y="513.0799999999999"/>
      <point x="375.90999999999997" y="509.66999999999996"/>
      <point x="397.56" y="501.53" type="curve"/>
      <point x="337.96000000000004" y="236.45999999999998" type="line" smooth="yes"/>
      <point x="312.66999999999996" y="149.93"/>
      <point x="262.68" y="97.33999999999999"/>
    </contour>
  </outline>
</glyph>
<glyph name="A" format="2">
  <advance width="410.095"/>
  <unicode hex="0041"/>
  <anchor x="159.295" y="0.0" name="bottom"/>
  <anchor x="348.625" y="0.0" name="ogonek"/>
  <anchor x="268.89" y="700.0" name="top"/>
  <outline>
    <contour>
      <point x="-26.53" y="0.0" type="line"/>
      <point x="9.894999999999998" y="0.0" type="line"/>
      <point x="92.95" y="209.79500000000002" type="line"/>
      <point x="295.455" y="209.79500000000002" type="line"/>
      <point x="312.52" y="0.0" type="line"/>
      <point x="348.625" y="0.0" type="line"/>
      <point x="290.23" y="709.28" type="line"/>
      <point x="251.28" y="709.28" type="line"/>
    </contour>
    <contour>
      <point x="104.32000000000001" y="242.07" type="line"/>
      <point x="261.5400000000001" y="648.3199999999999" type="line"/>
      <point x="294.405" y="242.07" type="line"/>
    </contour>
  </outline>
</glyph>
<glyph name="B" format="2">
  <advance width="415.66"/>
  <unicode hex="0042"/>
  <outline>
    <contour>
      <point x="14.988000000000001" y="-3.0079999999999996" type="line"/>
      <point x="73.852" y="-8.02"/>
      <point x="108.41600000000001" y="-10.0"/>
      <point x="153.064" y="-10.0" type="curve" smooth="yes"/>
      <point x="291.912" y="-10.0"/>
      <point x="375.05199999999996" y="106.5"/>
      <point x="375.05199999999996" y="234.124" type="curve" smooth="yes"/>
      <point x="375.05199999999996" y="306.88"/>
      <point x="337.89200000000005" y="349.692"/>
      <point x="284.456" y="361.956" type="curve"/>
      <point x="364.032" y="390.67199999999997"/>
      <point x="406.912" y="501.11199999999997"/>
      <point x="406.912" y="587.3600000000001" type="curve" smooth="yes"/>
      <point x="406.912" y="672.0080000000002"/>
      <point x="360.308" y="710.0"/>
      <point x="258.136" y="710.0" type="curve" smooth="yes"/>
      <point x="226.02" y="710.0"/>
      <point x="187.912" y="707.528"/>
      <point x="126.208" y="701.5520000000001" type="curve"/>
    </contour>
    <contour>
      <point x="109.008" y="372.29200000000003" type="line"/>
      <point x="156.292" y="672.876" type="line"/>
      <point x="191.2" y="676.532"/>
      <point x="223.37199999999999" y="678.8960000000001"/>
      <point x="255.58800000000002" y="678.8960000000001" type="curve" smooth="yes"/>
      <point x="334.05199999999996" y="678.8960000000001"/>
      <point x="372.84399999999994" y="651.936"/>
      <point x="372.84399999999994" y="576.8" type="curve" smooth="yes"/>
      <point x="372.84399999999994" y="485.44"/>
      <point x="310.72" y="372.29200000000003"/>
      <point x="229.22400000000005" y="372.29200000000003" type="curve" smooth="yes"/>
    </contour>
    <contour>
      <point x="104.06400000000001" y="341.53999999999996" type="line"/>
      <point x="236.328" y="341.53999999999996" type="line" smooth="yes"/>
      <point x="287.948" y="341.53999999999996"/>
      <point x="340.536" y="306.736"/>
      <point x="340.536" y="229.64800000000002" type="curve" smooth="yes"/>
      <point x="340.536" y="116.50399999999999"/>
      <point x="270.92799999999994" y="21.887999999999998"/>
      <point x="156.936" y="21.887999999999998" type="curve" smooth="yes"/>
      <point x="119.56" y="21.887999999999998"/>
      <point x="93.86" y="24.107999999999997"/>
      <point x="54.124" y="27.072" type="curve"/>
    </contour>
  </outline>
</glyph>
<glyph name="C" format="2">
  <advance width="398.422"/>
  <unicode hex="0043"/>
  <anchor x="221.067" y="0.0" name="bottom"/>
  <anchor x="316.53900000000004" y="700.0" name="top"/>
  <outline>
    <contour>
      <point x="227.78599999999997" y="-10.0" type="curve" smooth="yes"/>
      <point x="274.191" y="-10.0"/>
      <point x="312.31299999999993" y="-4.254"/>
      <point x="342.187" y="6.762" type="curve"/>
      <point x="336.798" y="36.992000000000004" type="line"/>
      <point x="308.48299999999995" y="27.770000000000003"/>
      <point x="273.0969999999999" y="22.725"/>
      <point x="232.849" y="22.725" type="curve" smooth="yes"/>
      <point x="128.42000000000002" y="22.725"/>
      <point x="73.31" y="78.24400000000001"/>
      <point x="73.31" y="201.792" type="curve" smooth="yes"/>
      <point x="73.31" y="470.195"/>
      <point x="171.45" y="677.275"/>
      <point x="315.75399999999996" y="677.275" type="curve" smooth="yes"/>
      <point x="352.947" y="677.275"/>
      <point x="384.72499999999997" y="672.095"/>
      <point x="422.91499999999996" y="660.9309999999999" type="curve"/>
      <point x="433.84599999999995" y="691.351" type="line"/>
      <point x="397.885" y="704.5500000000001"/>
      <point x="361.00800000000004" y="710.0"/>
      <point x="317.478" y="710.0" type="curve" smooth="yes"/>
      <point x="148.73000000000002" y="710.0"/>
      <point x="38.379999999999995" y="499.34"/>
      <point x="38.379999999999995" y="198.301" type="curve" smooth="yes"/>
      <point x="38.379999999999995" y="55.453"/>
      <point x="101.662" y="-10.0"/>
    </contour>
  </outline>
</glyph>
<glyph name="D" format="2">
  <advance width="451.42099999999994"/>
  <unicode hex="0044"/>
  <anchor x="165.64100000000002" y="0.0" name="bottom"/>
  <anchor x="230.812555" y="350.0" name="center"/>
  <anchor x="263.3809999999999" y="700.0" name="top"/>
  <outline>
    <contour>
      <point x="138.75300000000001" y="-10.0" type="curve" smooth="yes"/>
      <point x="312.674" y="-10.0"/>
      <point x="432.549" y="181.15800000000002"/>
      <point x="432.549" y="455.93899999999996" type="curve" smooth="yes"/>
      <point x="432.549" y="642.377"/>
      <point x="355.144" y="710.0"/>
      <point x="235.25200000000004" y="710.0" type="curve" smooth="yes"/>
      <point x="197.51" y="710.0"/>
      <point x="165.601" y="708.402"/>
      <point x="126.181" y="704.9070000000002" type="curve"/>
      <point x="14.435" y="-3.981" type="line"/>
      <point x="57.148" y="-8.55"/>
      <point x="88.391" y="-10.0"/>
    </contour>
    <contour>
      <point x="141.077" y="20.198" type="curve" smooth="yes"/>
      <point x="107.78699999999999" y="20.198"/>
      <point x="83.587" y="21.452"/>
      <point x="52.969" y="24.227" type="curve"/>
      <point x="156.292" y="674.725" type="line"/>
      <point x="177.58499999999998" y="676.6349999999999"/>
      <point x="208.18699999999998" y="677.68"/>
      <point x="235.92700000000005" y="677.68" type="curve" smooth="yes"/>
      <point x="329.199" y="677.68"/>
      <point x="397.85999999999996" y="623.5379999999999"/>
      <point x="397.85999999999996" y="454.02899999999994" type="curve" smooth="yes"/>
      <point x="397.85999999999996" y="203.447"/>
      <point x="287.6809999999999" y="20.198"/>
    </contour>
  </outline>
</glyph>
<glyph name="E" format="2">
  <advance width="371.209"/>
  <unicode hex="0045"/>
  <anchor x="163.732" y="0.0" name="bottom"/>
  <anchor x="306.94199999999995" y="0.0" name="ogonek"/>
  <anchor x="267.33000000000004" y="700.0" name="top"/>
  <anchor x="90.98208500000001" y="700.0" name="topleft"/>
  <outline>
    <contour>
      <point x="15.136" y="0.0" type="line"/>
      <point x="306.94199999999995" y="0.0" type="line"/>
      <point x="312.192" y="32.815" type="line"/>
      <point x="54.59600000000001" y="32.815" type="line"/>
      <point x="104.69699999999999" y="349.36" type="line"/>
      <point x="331.91700000000003" y="349.36" type="line"/>
      <point x="337.25700000000006" y="381.7250000000001" type="line"/>
      <point x="109.73800000000001" y="381.7250000000001" type="line"/>
      <point x="154.53" y="666.96" type="line"/>
      <point x="399.454" y="666.96" type="line"/>
      <point x="405.495" y="700.0" type="line"/>
      <point x="125.39" y="700.0" type="line"/>
    </contour>
  </outline>
</glyph>
<glyph name="F" format="2">
  <advance width="350.35999999999996"/>
  <unicode hex="0046"/>
  <outline>
    <contour>
      <point x="15.136000000000001" y="0.0" type="line"/>
      <point x="48.744" y="0.0" type="line"/>
      <point x="101.47200000000001" y="328.812" type="line"/>
      <point x="307.71999999999997" y="328.812" type="line"/>
      <point x="312.788" y="361.996" type="line"/>
      <point x="106.504" y="361.996" type="line"/>
      <point x="154.512" y="666.816" type="line"/>
      <point x="399.80400000000003" y="666.816" type="line"/>
      <point x="405.17999999999995" y="700.0" type="line"/>
      <point x="125.48" y="700.0" type="line"/>
    </contour>
  </outline>
</glyph>
<glyph name="G" format="2">
  <advance width="419.25"/>
  <unicode hex="0047"/>
  <anchor x="207.20000000000002" y="0.0" name="bottom"/>
  <anchor x="314.122" y="700.0" name="top"/>
  <outline>
    <contour>
      <point x="219.812" y="-10.0" type="curve" smooth="yes"/>
      <point x="264.764" y="-10.0"/>
      <point x="306.808" y="-1.188"/>
      <point x="334.15200000000004" y="10.483999999999998" type="curve"/>
      <point x="386.434" y="340.614" type="line"/>
      <point x="229.82800000000003" y="340.614" type="line"/>
      <point x="224.974" y="309.86" type="line"/>
      <point x="349.278" y="309.86" type="line"/>
      <point x="305.434" y="34.57" type="line"/>
      <point x="285.33" y="26.601999999999997"/>
      <point x="255.734" y="21.636"/>
      <point x="223.372" y="21.636" type="curve" smooth="yes"/>
      <point x="130.54000000000002" y="21.636"/>
      <point x="72.066" y="75.106"/>
      <point x="72.066" y="200.028" type="curve" smooth="yes"/>
      <point x="72.066" y="469.388"/>
      <point x="171.824" y="677.41"/>
      <point x="314.954" y="677.41" type="curve" smooth="yes"/>
      <point x="352.47" y="677.41"/>
      <point x="382.698" y="671.7620000000001"/>
      <point x="420.668" y="660.5600000000001" type="curve"/>
      <point x="432.022" y="691.1579999999999" type="line"/>
      <point x="400.70200000000006" y="702.51"/>
      <point x="359.722" y="710.0"/>
      <point x="317.236" y="710.0" type="curve" smooth="yes"/>
      <point x="145.928" y="710.0"/>
      <point x="37.964000000000006" y="493.486"/>
      <point x="37.964000000000006" y="197.31" type="curve" smooth="yes"/>
      <point x="37.964000000000006" y="54.29"/>
      <point x="106.014" y="-10.0"/>
    </contour>
  </outline>
</glyph>
<glyph name="H" format="2">
  <advance width="464.906"/>
  <unicode hex="0048"/>
  <anchor x="189.028768" y="0.0" name="bottom"/>
  <anchor x="244.875088" y="350.0" name="center"/>
  <anchor x="299.993136" y="700.0" name="top"/>
  <anchor x="85.62913599999999" y="700.0" name="topleft"/>
  <outline>
    <contour>
      <point x="15.118" y="0.0" type="line"/>
      <point x="50.2" y="0.0" type="line"/>
      <point x="95.40800000000002" y="286.176" type="line"/>
      <point x="373.49600000000004" y="286.176" type="line"/>
      <point x="328.32399999999996" y="0.0" type="line"/>
      <point x="362.444" y="0.0" type="line"/>
      <point x="473.5160000000001" y="700.0" type="line"/>
      <point x="439.34200000000004" y="700.0" type="line"/>
      <point x="378.69200000000006" y="318.784" type="line"/>
      <point x="99.87599999999999" y="318.784" type="line"/>
      <point x="160.544" y="700.0" type="line"/>
      <point x="125.462" y="700.0" type="line"/>
    </contour>
  </outline>
</glyph>
<glyph name="I" format="2">
  <advance width="151.93400000000003"/>
  <unicode hex="0049"/>
  <anchor x="32.170776000000004" y="0.0" name="bottom"/>
  <anchor x="49.690016" y="0.72" name="ogonek"/>
  <anchor x="143.13750199999998" y="700.0" name="top"/>
  <anchor x="91.02653600000001" y="700.0" name="topleft"/>
  <outline>
    <contour>
      <point x="15.118" y="0.0" type="line"/>
      <point x="49.472" y="0.0" type="line"/>
      <point x="160.544" y="700.0" type="line"/>
      <point x="125.462" y="700.0" type="line"/>
    </contour>
  </outline>
</glyph>
<glyph name="J" format="2">
  <advance width="311.564"/>
  <unicode hex="004A"/>
  <anchor x="76.02396800000001" y="0.0" name="bottom"/>
  <anchor x="217.59600000000003" y="700.0" name="top"/>
  <outline>
    <contour>
      <point x="-32.434000000000005" y="7.69" type="line"/>
      <point x="-4.800000000000001" y="-1.88"/>
      <point x="24.754" y="-10.0"/>
      <point x="67.89200000000001" y="-10.0" type="curve" smooth="yes"/>
      <point x="172.54600000000002" y="-10.0"/>
      <point x="222.97599999999997" y="49.966"/>
      <point x="238.69400000000002" y="148.22199999999998" type="curve" smooth="yes"/>
      <point x="326.286" y="700.0" type="line"/>
      <point x="100.386" y="700.0" type="line"/>
      <point x="95.22600000000001" y="667.716" type="line"/>
      <point x="286.772" y="667.716" type="line"/>
      <point x="204.366" y="151.888" type="line" smooth="yes"/>
      <point x="189.63800000000003" y="59.738"/>
      <point x="138.99" y="23.994"/>
      <point x="66.798" y="23.994" type="curve" smooth="yes"/>
      <point x="28.690000000000005" y="23.994"/>
      <point x="1.3860000000000003" y="32.286"/>
      <point x="-23.168" y="40.812" type="curve"/>
    </contour>
  </outline>
</glyph>
<glyph name="K" format="2">
  <advance width="403.576"/>
  <unicode hex="004B"/>
  <anchor x="173.05999999999997" y="0.0" name="bottom"/>
  <anchor x="263.42" y="700.0" name="top"/>
  <outline>
    <contour>
      <point x="14.764" y="0.0" type="line"/>
      <point x="49.672000000000004" y="0.0" type="line"/>
      <point x="160.244" y="700.0" type="line"/>
      <point x="125.516" y="700.0" type="line"/>
    </contour>
    <contour>
      <point x="344.496" y="-9.144" type="curve" smooth="yes"/>
      <point x="350.29200000000003" y="-9.144"/>
      <point x="358.24" y="-8.032"/>
      <point x="363.992" y="-5.352" type="curve"/>
      <point x="363.51200000000006" y="29.784000000000002" type="line"/>
      <point x="360.724" y="29.428"/>
      <point x="357.47200000000004" y="28.428"/>
      <point x="353.36400000000003" y="28.428" type="curve" smooth="yes"/>
      <point x="329.896" y="28.428"/>
      <point x="314.2" y="40.964"/>
      <point x="278.024" y="108.87599999999999" type="curve" smooth="yes"/>
      <point x="106.604" y="431.412" type="line"/>
      <point x="98.392" y="374.324" type="line"/>
      <point x="253.332" y="83.804" type="line" smooth="yes"/>
      <point x="292.896" y="6.08"/>
      <point x="310.768" y="-9.144"/>
    </contour>
    <contour>
      <point x="161.816" y="298.976" type="line"/>
      <point x="237.316" y="367.50399999999996"/>
      <point x="367.93199999999996" y="511.6"/>
      <point x="443.796" y="697.3480000000001" type="curve"/>
      <point x="415.348" y="709.46" type="line"/>
      <point x="336.26400000000007" y="525.548"/>
      <point x="217.268" y="393.312"/>
      <point x="148.332" y="329.704" type="curve"/>
    </contour>
  </outline>
</glyph>
<glyph name="L" format="2">
  <advance width="330.622"/>
  <unicode hex="004C"/>
  <anchor x="147.482" y="0.0" name="bottom"/>
  <anchor x="168.997088" y="350.0" name="center"/>
  <anchor x="142.184" y="700.0" name="top"/>
  <anchor x="289.278" y="700.0" name="topright"/>
  <outline>
    <contour>
      <point x="14.389999999999999" y="0.0" type="line"/>
      <point x="277.792" y="0.0" type="line"/>
      <point x="283.042" y="32.716" type="line"/>
      <point x="53.958" y="32.716" type="line"/>
      <point x="159.816" y="700.0" type="line"/>
      <point x="125.462" y="700.0" type="line"/>
    </contour>
  </outline>
</glyph>
<glyph name="M" format="2">
  <advance width="512.578"/>
  <unicode hex="004D"/>
  <outline>
    <contour>
      <point x="14.818" y="0.0" type="line"/>
      <point x="48.141999999999996" y="0.0" type="line"/>
      <point x="147.11" y="635.192" type="line"/>
      <point x="242.11200000000002" y="265.762" type="line"/>
      <point x="266.47999999999996" y="265.762" type="line"/>
      <point x="479.206" y="635.886" type="line"/>
      <point x="377.256" y="0.0" type="line"/>
      <point x="410.116" y="0.0" type="line"/>
      <point x="521.1880000000001" y="700.0" type="line"/>
      <point x="480.434" y="700.0" type="line"/>
      <point x="261.43" y="313.036" type="line"/>
      <point x="163.992" y="700.0" type="line"/>
      <point x="125.462" y="700.0" type="line"/>
    </contour>
  </outline>
</glyph>
<glyph name="N" format="2">
  <advance width="463.06"/>
  <unicode hex="004E"/>
  <anchor x="192.78000000000003" y="0.0" name="bottom"/>
  <anchor x="299.28" y="700.0" name="top"/>
  <outline>
    <contour>
      <point x="15.299999999999999" y="0.0" type="line"/>
      <point x="48.21" y="0.0" type="line"/>
      <point x="146.985" y="631.2299999999999" type="line"/>
      <point x="326.0" y="-1.82" type="line"/>
      <point x="360.58000000000004" y="-1.82" type="line"/>
      <point x="471.66999999999996" y="700.0" type="line"/>
      <point x="439.17" y="700.0" type="line"/>
      <point x="340.355" y="67.97999999999999" type="line"/>
      <point x="162.335" y="701.82" type="line"/>
      <point x="125.935" y="701.82" type="line"/>
    </contour>
  </outline>
</glyph>
<glyph name="O" format="2">
  <advance width="471.1"/>
  <unicode hex="004F"/>
  <note>
8
</note>
  <anchor x="195.19" y="0.0" name="bottom"/>
  <anchor x="251.1" y="350.0" name="center"/>
  <anchor x="243.47000000000003" y="0.27" name="ogonek"/>
  <anchor x="305.91999999999996" y="700.0" name="top"/>
  <anchor x="91.64" y="700.0" name="topleft"/>
  <anchor x="385.74" y="691.13" name="topright"/>
  <outline>
    <contour>
      <point x="200.18" y="-9.73" type="curve" smooth="yes"/>
      <point x="360.09999999999997" y="-9.73"/>
      <point x="456.13" y="240.07999999999998"/>
      <point x="456.13" y="495.63" type="curve" smooth="yes"/>
      <point x="456.13" y="641.74"/>
      <point x="401.11" y="709.73"/>
      <point x="294.92" y="709.73" type="curve" smooth="yes"/>
      <point x="135.0" y="709.73"/>
      <point x="38.97" y="459.92"/>
      <point x="38.97" y="204.37" type="curve" smooth="yes"/>
      <point x="38.97" y="58.260000000000005"/>
      <point x="93.99000000000001" y="-9.73"/>
    </contour>
    <contour>
      <point x="201.89000000000001" y="22.49" type="curve" smooth="yes"/>
      <point x="118.24" y="22.49"/>
      <point x="73.72" y="79.5"/>
      <point x="73.72" y="204.79" type="curve" smooth="yes"/>
      <point x="73.72" y="438.36"/>
      <point x="162.71" y="677.5100000000001"/>
      <point x="293.29999999999995" y="677.5100000000001" type="curve" smooth="yes"/>
      <point x="376.86" y="677.5100000000001"/>
      <point x="421.38" y="620.5"/>
      <point x="421.38" y="495.21000000000004" type="curve" smooth="yes"/>
      <point x="421.38" y="261.64"/>
      <point x="332.39" y="22.49"/>
    </contour>
  </outline>
</glyph>
<glyph name="P" format="2">
  <advance width="403.775"/>
  <unicode hex="0050"/>
  <outline>
    <contour>
      <point x="15.344999999999999" y="0.0" type="line"/>
      <point x="49.645" y="0.0" type="line"/>
      <point x="93.39" y="274.57" type="line"/>
      <point x="125.02" y="272.845"/>
      <point x="146.305" y="272.39"/>
      <point x="196.28499999999997" y="272.39" type="curve" smooth="yes"/>
      <point x="336.29" y="272.39"/>
      <point x="415.495" y="380.225"/>
      <point x="415.95" y="554.05" type="curve" smooth="yes"/>
      <point x="415.95" y="661.745"/>
      <point x="364.91999999999996" y="710.0"/>
      <point x="245.78" y="710.0" type="curve" smooth="yes"/>
      <point x="219.66500000000002" y="710.0"/>
      <point x="187.265" y="707.91"/>
      <point x="126.435" y="702.865" type="curve"/>
    </contour>
    <contour>
      <point x="156.255" y="673.0400000000001" type="line"/>
      <point x="194.04000000000002" y="676.405"/>
      <point x="217.42" y="677.86"/>
      <point x="241.88" y="677.86" type="curve" smooth="yes"/>
      <point x="341.84999999999997" y="677.86"/>
      <point x="381.65000000000003" y="641.345"/>
      <point x="381.65000000000003" y="547.345" type="curve" smooth="yes"/>
      <point x="381.65000000000003" y="403.91"/>
      <point x="317.53" y="304.575"/>
      <point x="196.705" y="304.575" type="curve" smooth="yes"/>
      <point x="164.41" y="304.575"/>
      <point x="136.48000000000002" y="305.98499999999996"/>
      <point x="98.46000000000001" y="307.53000000000003" type="curve"/>
    </contour>
  </outline>
</glyph>
<glyph name="Q" format="2">
  <advance width="472.79600000000005"/>
  <unicode hex="0051"/>
  <note>
14
</note>
  <outline>
    <contour>
      <point x="324.026" y="-186.488" type="curve" smooth="yes"/>
      <point x="347.172" y="-186.488"/>
      <point x="370.19" y="-182.57799999999997"/>
      <point x="391.462" y="-172.92" type="curve"/>
      <point x="388.534" y="-143.068" type="line"/>
      <point x="369.98" y="-151.382"/>
      <point x="349.7" y="-155.202"/>
      <point x="329.476" y="-155.202" type="curve" smooth="yes"/>
      <point x="273.514" y="-155.202"/>
      <point x="224.712" y="-120.456"/>
      <point x="218.384" y="1.3579999999999999" type="curve"/>
      <point x="187.45600000000002" y="-0.6720000000000002" type="line"/>
      <point x="195.67600000000002" y="-139.50400000000002"/>
      <point x="254.60599999999997" y="-186.488"/>
    </contour>
    <component base="O"/>
  </outline>
</glyph>
<glyph name="R" format="2">
  <advance width="418.14"/>
  <unicode hex="0052"/>
  <anchor x="183.57" y="0.0" name="bottom"/>
  <anchor x="254.08" y="700.0" name="top"/>
  <outline>
    <contour>
      <point x="15.209999999999999" y="0.0" type="line"/>
      <point x="49.690000000000005" y="0.0" type="line"/>
      <point x="96.74999999999999" y="297.23" type="line"/>
      <point x="129.08" y="296.32"/>
      <point x="162.14" y="295.41"/>
      <point x="207.51000000000002" y="295.32" type="curve"/>
      <point x="210.63000000000002" y="296.13" type="line"/>
      <point x="333.75" y="296.63"/>
      <point x="413.81" y="395.07"/>
      <point x="413.81" y="553.9200000000001" type="curve" smooth="yes"/>
      <point x="413.81" y="662.4"/>
      <point x="369.89000000000004" y="710.0"/>
      <point x="248.70000000000002" y="710.0" type="curve" smooth="yes"/>
      <point x="206.95" y="710.0"/>
      <point x="172.44" y="707.82"/>
      <point x="126.39" y="703.14" type="curve"/>
    </contour>
    <contour>
      <point x="359.79" y="-10.0" type="curve" smooth="yes"/>
      <point x="366.83000000000004" y="-10.0"/>
      <point x="375.34999999999997" y="-7.32"/>
      <point x="379.47999999999996" y="-5.46" type="curve"/>
      <point x="378.40999999999997" y="27.289999999999996" type="line"/>
      <point x="373.5" y="25.47"/>
      <point x="369.82" y="25.47"/>
      <point x="367.64" y="25.47" type="curve" smooth="yes"/>
      <point x="335.65000000000003" y="26.289999999999996"/>
      <point x="304.15999999999997" y="67.39"/>
      <point x="246.99" y="317.49" type="curve"/>
      <point x="214.13" y="309.8" type="line"/>
      <point x="279.4" y="34.01"/>
      <point x="308.54999999999995" y="-10.0"/>
    </contour>
    <contour>
      <point x="212.76" y="327.51" type="curve" smooth="yes"/>
      <point x="163.95000000000002" y="327.51"/>
      <point x="133.16" y="327.69"/>
      <point x="102.55" y="329.69" type="curve"/>
      <point x="156.71" y="674.22" type="line"/>
      <point x="192.72" y="677.6300000000001"/>
      <point x="212.46" y="679.0400000000001"/>
      <point x="246.43" y="679.0400000000001" type="curve" smooth="yes"/>
      <point x="348.68" y="679.0400000000001"/>
      <point x="378.97" y="640.9399999999999"/>
      <point x="378.97" y="555.34" type="curve" smooth="yes"/>
      <point x="378.97" y="417.38"/>
      <point x="313.99" y="327.51"/>
    </contour>
  </outline>
</glyph>
<glyph name="S" format="2">
  <advance width="374.785"/>
  <unicode hex="0053"/>
  <anchor x="133.955" y="0.0" name="bottom"/>
  <anchor x="262.575" y="700.0" name="top"/>
  <outline>
    <contour>
      <point x="382.27" y="687.5600000000001" type="line"/>
      <point x="345.375" y="702.28"/>
      <point x="310.135" y="710.0"/>
      <point x="267.21" y="710.0" type="curve" smooth="yes"/>
      <point x="148.49500000000003" y="710.0"/>
      <point x="78.715" y="639.6099999999999"/>
      <point x="78.715" y="526.4100000000001" type="curve" smooth="yes"/>
      <point x="78.715" y="356.075"/>
      <point x="291.005" y="325.40999999999997"/>
      <point x="290.595" y="170.695" type="curve" smooth="yes"/>
      <point x="290.595" y="84.18"/>
      <point x="234.84000000000003" y="23.32"/>
      <point x="135.425" y="23.32" type="curve" smooth="yes"/>
      <point x="85.93499999999999" y="23.32"/>
      <point x="37.03" y="32.635"/>
      <point x="-1.3949999999999996" y="49.44499999999999" type="curve"/>
      <point x="-16.215" y="18.209999999999997" type="line"/>
      <point x="24.995" y="0.03999999999999976"/>
      <point x="78.97" y="-10.0"/>
      <point x="130.885" y="-10.0" type="curve" smooth="yes"/>
      <point x="257.155" y="-10.0"/>
      <point x="326.165" y="64.755"/>
      <point x="326.165" y="175.23000000000002" type="curve" smooth="yes"/>
      <point x="326.66499999999996" y="343.07"/>
      <point x="114.145" y="374.86"/>
      <point x="114.145" y="529.63" type="curve" smooth="yes"/>
      <point x="114.145" y="619.9150000000001"/>
      <point x="173.81" y="678.14"/>
      <point x="263.805" y="678.14" type="curve" smooth="yes"/>
      <point x="303.795" y="678.14"/>
      <point x="334.685" y="671.96"/>
      <point x="368.45" y="657.69" type="curve"/>
    </contour>
  </outline>
</glyph>
<glyph name="T" format="2">
  <advance width="346.476"/>
  <unicode hex="0054"/>
  <anchor x="129.269968" y="0.0" name="bottom"/>
  <anchor x="185.207266" y="350.0" name="center"/>
  <anchor x="240.317502" y="700.0" name="top"/>
  <outline>
    <contour>
      <point x="402.212" y="667.986" type="line"/>
      <point x="407.444" y="700.0" type="line"/>
      <point x="73.22999999999999" y="700.0" type="line"/>
      <point x="67.98" y="667.986" type="line"/>
      <point x="217.70000000000002" y="667.986" type="line"/>
      <point x="111.77" y="0.0" type="line"/>
      <point x="146.124" y="0.0" type="line"/>
      <point x="252.03600000000003" y="667.986" type="line"/>
    </contour>
  </outline>
</glyph>
<glyph name="U" format="2">
  <advance width="452.012"/>
  <unicode hex="0055"/>
  <anchor x="182.14595999999997" y="0.0" name="bottom"/>
  <anchor x="222.736" y="0.0" name="ogonek"/>
  <anchor x="290.95017" y="700.0" name="top"/>
  <anchor x="464.538" y="700.0" name="topright"/>
  <outline>
    <contour>
      <point x="179.908" y="-10.0" type="curve" smooth="yes"/>
      <point x="297.13399999999996" y="-10.0"/>
      <point x="362.678" y="47.75"/>
      <point x="382.308" y="170.27599999999998" type="curve" smooth="yes"/>
      <point x="466.73400000000004" y="700.0" type="line"/>
      <point x="431.778" y="700.0" type="line"/>
      <point x="346.9" y="168.11599999999999" type="line" smooth="yes"/>
      <point x="331.79800000000006" y="71.23000000000002"/>
      <point x="279.236" y="22.212"/>
      <point x="186.722" y="22.212" type="curve" smooth="yes"/>
      <point x="98.976" y="22.212"/>
      <point x="54.91" y="70.3"/>
      <point x="68.464" y="154.102" type="curve" smooth="yes"/>
      <point x="153.81400000000002" y="700.0" type="line"/>
      <point x="119.586" y="700.0" type="line"/>
      <point x="33.886" y="153.896" type="line" smooth="yes"/>
      <point x="31.27" y="137.856"/>
      <point x="30.926000000000002" y="132.196"/>
      <point x="30.926000000000002" y="117.41600000000001" type="curve" smooth="yes"/>
      <point x="30.926000000000002" y="35.374"/>
      <point x="84.514" y="-10.0"/>
    </contour>
  </outline>
</glyph>
<glyph name="V" format="2">
  <advance width="391.10299999999995"/>
  <unicode hex="0056"/>
  <outline>
    <contour>
      <point x="168.533" y="0.0" type="line"/>
      <point x="384.515" y="478.123"/>
      <point x="428.455" y="584.47"/>
      <point x="430.93" y="665.17" type="curve" smooth="yes"/>
      <point x="431.02" y="677.283"/>
      <point x="430.2" y="687.4680000000001"/>
      <point x="427.53299999999996" y="700.0" type="curve"/>
      <point x="392.613" y="700.0" type="line"/>
      <point x="394.415" y="687.765"/>
      <point x="395.388" y="678.2330000000001"/>
      <point x="395.388" y="668.9849999999999" type="curve" smooth="yes"/>
      <point x="394.803" y="591.39"/>
      <point x="351.90400000000005" y="490.43899999999996"/>
      <point x="156.666" y="50.64" type="curve"/>
      <point x="111.06" y="701.8380000000001" type="line"/>
      <point x="74.1" y="700.455" type="line"/>
      <point x="127.04799999999999" y="0.0" type="line"/>
    </contour>
  </outline>
</glyph>
<glyph name="W" format="2">
  <advance width="622.98"/>
  <unicode hex="0057"/>
  <anchor x="263.9" y="0.0" name="bottom"/>
  <anchor x="382.63" y="700.0" name="top"/>
  <outline>
    <contour>
      <point x="420.47" y="-0.91" type="line"/>
      <point x="623.89" y="488.40000000000003"/>
      <point x="662.88" y="603.72"/>
      <point x="663.42" y="668.3499999999999" type="curve" smooth="yes"/>
      <point x="663.42" y="679.8100000000001"/>
      <point x="662.6" y="688.63"/>
      <point x="660.28" y="700.0" type="curve"/>
      <point x="624.8499999999999" y="700.0" type="line"/>
      <point x="626.67" y="689.45"/>
      <point x="628.4" y="681.13"/>
      <point x="628.4" y="670.17" type="curve" smooth="yes"/>
      <point x="627.59" y="601.4"/>
      <point x="596.77" y="509.97999999999996"/>
      <point x="411.51" y="57.76" type="curve"/>
      <point x="391.95" y="635.89" type="line"/>
      <point x="350.75" y="635.89" type="line"/>
      <point x="281.66" y="446.3"/>
      <point x="210.36" y="250.56"/>
      <point x="140.1" y="63.53" type="curve"/>
      <point x="111.66" y="700.0" type="line"/>
      <point x="75.6" y="700.0" type="line"/>
      <point x="109.50999999999999" y="-0.91" type="line"/>
      <point x="146.14" y="-0.91" type="line"/>
      <point x="219.89000000000001" y="195.6"/>
      <point x="292.38" y="387.66999999999996"/>
      <point x="362.98" y="579.95" type="curve"/>
      <point x="382.3" y="-0.91" type="line"/>
    </contour>
  </outline>
</glyph>
<glyph name="X" format="2">
  <advance width="411.52"/>
  <unicode hex="0058"/>
  <outline>
    <contour>
      <point x="336.15" y="-5.87" type="line"/>
      <point x="371.02" y="0.0" type="line"/>
      <point x="237.94" y="350.44" type="line"/>
      <point x="355.17" y="486.4"/>
      <point x="427.73" y="582.88"/>
      <point x="437.45000000000005" y="700.82" type="curve"/>
      <point x="402.08000000000004" y="702.23" type="line"/>
      <point x="391.43" y="589.49"/>
      <point x="342.85" y="526.01"/>
      <point x="225.32" y="383.9" type="curve"/>
      <point x="106.1" y="706.05" type="line"/>
      <point x="72.59" y="699.36" type="line"/>
      <point x="198.07999999999998" y="360.52" type="line"/>
      <point x="82.58000000000001" y="235.3"/>
      <point x="6.140000000000001" y="128.87"/>
      <point x="-1.2400000000000004" y="0.0" type="curve"/>
      <point x="34.72" y="0.0" type="line"/>
      <point x="42.1" y="115.84"/>
      <point x="103.78999999999999" y="212.39"/>
      <point x="211.52" y="327.06" type="curve"/>
    </contour>
  </outline>
</glyph>
<glyph name="Y" format="2">
  <advance width="371.972"/>
  <unicode hex="0059"/>
  <anchor x="140.06" y="0.0" name="bottom"/>
  <anchor x="253.06" y="700.0" name="top"/>
  <anchor x="89.464" y="700.0" name="topleft"/>
  <outline>
    <contour>
      <point x="125.888" y="0.0" type="line"/>
      <point x="159.936" y="0.0" type="line"/>
      <point x="209.496" y="302.964" type="line"/>
      <point x="316.012" y="421.444"/>
      <point x="382.364" y="530.3119999999999"/>
      <point x="413.98799999999994" y="658.152" type="curve" smooth="yes"/>
      <point x="417.416" y="672.22"/>
      <point x="420.988" y="686.86"/>
      <point x="424.024" y="701.428" type="curve"/>
      <point x="387.776" y="705.496" type="line"/>
      <point x="384.91999999999996" y="691.464"/>
      <point x="382.028" y="677.86"/>
      <point x="378.70799999999997" y="663.828" type="curve" smooth="yes"/>
      <point x="351.13999999999993" y="547.732"/>
      <point x="300.02" y="450.132"/>
      <point x="198.02399999999997" y="339.24399999999997" type="curve"/>
      <point x="108.244" y="704.532" type="line"/>
      <point x="72.636" y="700.0" type="line"/>
      <point x="174.056" y="302.964" type="line"/>
    </contour>
  </outline>
</glyph>
<glyph name="Z" format="2">
  <advance width="369.79"/>
  <unicode hex="005A"/>
  <anchor x="144.99" y="0.0" name="bottom"/>
  <anchor x="193.70999999999998" y="350.0" name="center"/>
  <anchor x="252.57999999999998" y="700.0" name="top"/>
  <outline>
    <contour>
      <point x="-25.77" y="0.0" type="line"/>
      <point x="315.39" y="0.0" type="line"/>
      <point x="320.64" y="32.230000000000004" type="line"/>
      <point x="19.5" y="32.230000000000004" type="line"/>
      <point x="404.17" y="671.14" type="line"/>
      <point x="408.41999999999996" y="700.0" type="line"/>
      <point x="106.33" y="700.0" type="line"/>
      <point x="101.17" y="667.77" type="line"/>
      <point x="363.97" y="667.77" type="line"/>
      <point x="-20.7" y="28.5" type="line"/>
    </contour>
  </outline>
</glyph>
<glyph name="bracketleft" format="2">
  <advance width="227.864"/>
  <unicode hex="005B"/>
  <outline>
    <contour>
      <point x="29.216" y="-180.12" type="line"/>
      <point x="170.68800000000002" y="710.302" type="line"/>
      <point x="286.178" y="710.302" type="line"/>
      <point x="291.158" y="740.0" type="line"/>
      <point x="144.34799999999998" y="740.0" type="line"/>
      <point x="-6.338000000000002" y="-210.0" type="line"/>
      <point x="139.654" y="-210.0" type="line"/>
      <point x="144.70600000000002" y="-180.12" type="line"/>
    </contour>
  </outline>
</glyph>
<glyph name="backslash" format="2">
  <advance width="314.968"/>
  <unicode hex="005C"/>
  <outline>
    <contour>
      <point x="109.218" y="740.0" type="line"/>
      <point x="79.172" y="740.0" type="line"/>
      <point x="240.804" y="-210.0" type="line"/>
      <point x="270.778" y="-210.0" type="line"/>
    </contour>
  </outline>
</glyph>
<glyph name="bracketright" format="2">
  <advance width="227.864"/>
  <unicode hex="005D"/>
  <outline>
    <contour>
      <point x="-60.403999999999996" y="-180.12" type="line"/>
      <point x="-65.366" y="-210.0" type="line"/>
      <point x="79.716" y="-210.0" type="line"/>
      <point x="231.22" y="740.0" type="line"/>
      <point x="85.138" y="740.0" type="line"/>
      <point x="80.08600000000001" y="710.12" type="line"/>
      <point x="195.576" y="710.12" type="line"/>
      <point x="54.032000000000004" y="-180.12" type="line"/>
    </contour>
  </outline>
</glyph>
<glyph name="asciicircum" format="2">
  <advance width="381.014"/>
  <unicode hex="005E"/>
  <outline>
    <contour>
      <point x="39.342" y="274.404" type="line"/>
      <point x="69.00200000000001" y="274.404" type="line"/>
      <point x="252.552" y="670.948" type="line"/>
      <point x="312.752" y="274.404" type="line"/>
      <point x="341.976" y="274.404" type="line"/>
      <point x="274.226" y="709.1" type="line"/>
      <point x="241.48600000000002" y="709.1" type="line"/>
    </contour>
  </outline>
</glyph>
<glyph name="underscore" format="2">
  <advance width="642.664"/>
  <unicode hex="005F"/>
  <outline>
    <contour>
      <point x="-61.534" y="-142.588" type="line"/>
      <point x="571.894" y="-142.588" type="line"/>
      <point x="577.1980000000001" y="-109.632" type="line"/>
      <point x="-56.230000000000004" y="-109.632" type="line"/>
    </contour>
  </outline>
</glyph>
<glyph name="a" format="2">
  <advance width="372.362"/>
  <unicode hex="0061"/>
  <note>
15
</note>
  <anchor x="144.88500000000002" y="0.0" name="bottom"/>
  <anchor x="338.88" y="1.08" name="ogonek"/>
  <anchor x="236.982" y="531.8" name="top"/>
  <outline>
    <contour>
      <point x="294.126" y="-10.0" type="curve" smooth="yes"/>
      <point x="310.09" y="-10.0"/>
      <point x="326.20500000000004" y="-5.878"/>
      <point x="339.04400000000004" y="0.588" type="curve"/>
      <point x="336.651" y="27.680000000000003" type="line"/>
      <point x="325.744" y="23.204"/>
      <point x="316.567" y="20.682999999999996"/>
      <point x="306.45099999999996" y="20.682999999999996" type="curve" smooth="yes"/>
      <point x="287.187" y="20.682999999999996"/>
      <point x="278.98100000000005" y="31.470999999999997"/>
      <point x="278.98100000000005" y="53.465" type="curve" smooth="yes"/>
      <point x="278.98100000000005" y="61.166"/>
      <point x="289.06800000000004" y="126.563"/>
      <point x="351.80800000000005" y="518.778" type="curve"/>
      <point x="325.06299999999993" y="532.9449999999998"/>
      <point x="288.72700000000003" y="541.8"/>
      <point x="253.468" y="541.8" type="curve" smooth="yes"/>
      <point x="113.83900000000001" y="541.8"/>
      <point x="23.157999999999998" y="381.92099999999994"/>
      <point x="23.157999999999998" y="152.427" type="curve" smooth="yes"/>
      <point x="23.157999999999998" y="45.64600000000001"/>
      <point x="64.045" y="-10.0"/>
      <point x="138.79399999999998" y="-10.0" type="curve" smooth="yes"/>
      <point x="179.559" y="-10.0"/>
      <point x="218.00600000000003" y="5.508000000000001"/>
      <point x="246.546" y="27.469000000000005" type="curve"/>
      <point x="251.555" y="4.836"/>
      <point x="269.05600000000004" y="-10.0"/>
    </contour>
    <contour>
      <point x="243.93499999999997" y="54.475" type="line"/>
      <point x="217.39100000000002" y="35.169000000000004"/>
      <point x="180.075" y="22.113999999999997"/>
      <point x="146.788" y="22.113999999999997" type="curve" smooth="yes"/>
      <point x="90.346" y="22.113999999999997"/>
      <point x="58.117" y="69.022"/>
      <point x="58.117" y="157.111" type="curve" smooth="yes"/>
      <point x="58.117" y="371.07000000000005"/>
      <point x="140.868" y="511.676"/>
      <point x="248.89300000000003" y="511.676" type="curve" smooth="yes"/>
      <point x="275.25700000000006" y="511.676"/>
      <point x="296.78799999999995" y="507.08099999999996"/>
      <point x="313.56000000000006" y="497.8300000000001" type="curve"/>
    </contour>
  </outline>
</glyph>
<glyph name="b" format="2">
  <advance width="375.06800000000004"/>
  <unicode hex="0062"/>
  <note>
12
</note>
  <outline>
    <contour>
      <point x="167.289" y="740.0" type="line"/>
      <point x="133.214" y="740.0" type="line"/>
      <point x="17.758000000000003" y="8.534" type="line"/>
      <point x="50.067" y="-2.8729999999999998"/>
      <point x="82.57699999999998" y="-10.0"/>
      <point x="121.527" y="-10.0" type="curve" smooth="yes"/>
      <point x="262.731" y="-10.0"/>
      <point x="351.187" y="187.118"/>
      <point x="351.05199999999996" y="380.552" type="curve" smooth="yes"/>
      <point x="351.007" y="489.354"/>
      <point x="315.015" y="541.8"/>
      <point x="241.297" y="541.8" type="curve" smooth="yes"/>
      <point x="200.426" y="541.8"/>
      <point x="165.87800000000001" y="525.794"/>
      <point x="129.285" y="503.06800000000004" type="curve"/>
    </contour>
    <contour>
      <point x="230.65099999999998" y="509.533" type="curve" smooth="yes"/>
      <point x="293.102" y="509.533"/>
      <point x="316.662" y="453.67300000000006"/>
      <point x="316.662" y="375.032" type="curve" smooth="yes"/>
      <point x="316.662" y="199.318"/>
      <point x="237.65499999999997" y="20.647"/>
      <point x="123.315" y="20.647" type="curve" smooth="yes"/>
      <point x="96.97800000000001" y="20.647"/>
      <point x="72.77999999999999" y="25.833"/>
      <point x="55.725" y="32.428" type="curve"/>
      <point x="124.485" y="470.092" type="line"/>
      <point x="159.648" y="495.386"/>
      <point x="198.53900000000002" y="509.533"/>
    </contour>
  </outline>
</glyph>
<glyph name="c" format="2">
  <advance width="308.97999999999996"/>
  <unicode hex="0063"/>
  <note>
10
</note>
  <anchor x="158.30399999999997" y="0.0" name="bottom"/>
  <anchor x="238.67999999999998" y="531.8" name="top"/>
  <outline>
    <contour>
      <point x="157.17800000000003" y="-10.0" type="curve" smooth="yes"/>
      <point x="197.33200000000002" y="-10.0"/>
      <point x="230.392" y="-3.566"/>
      <point x="257.43" y="5.662000000000001" type="curve"/>
      <point x="252.752" y="34.5" type="line"/>
      <point x="228.68800000000002" y="27.098"/>
      <point x="198.884" y="21.458000000000002"/>
      <point x="165.424" y="21.458000000000002" type="curve" smooth="yes"/>
      <point x="96.05" y="21.458000000000002"/>
      <point x="56.638" y="65.13999999999999"/>
      <point x="56.638" y="148.59799999999998" type="curve" smooth="yes"/>
      <point x="56.638" y="339.06200000000007"/>
      <point x="137.22799999999998" y="508.93999999999994"/>
      <point x="239.99800000000002" y="508.93999999999994" type="curve" smooth="yes"/>
      <point x="268.56399999999996" y="508.93999999999994"/>
      <point x="292.252" y="505.70200000000006"/>
      <point x="320.15200000000004" y="496.612" type="curve"/>
      <point x="331.488" y="528.2599999999999" type="line"/>
      <point x="300.53000000000003" y="537.53"/>
      <point x="273.248" y="541.8"/>
      <point x="242.99800000000002" y="541.8" type="curve" smooth="yes"/>
      <point x="113.97800000000001" y="541.8"/>
      <point x="22.994" y="364.62200000000007"/>
      <point x="22.994" y="142.07200000000003" type="curve" smooth="yes"/>
      <point x="22.994" y="45.16"/>
      <point x="71.556" y="-10.0"/>
    </contour>
  </outline>
</glyph>
<glyph name="d" format="2">
  <advance width="373.51"/>
  <unicode hex="0064"/>
  <note>
17
</note>
  <anchor x="139.569" y="0.0" name="bottom"/>
  <anchor x="191.969" y="344.11499999999995" name="center"/>
  <anchor x="252.4" y="740.0" name="top"/>
  <anchor x="456.215" y="740.0" name="topright"/>
  <outline>
    <contour>
      <point x="293.081" y="-10.0" type="curve" smooth="yes"/>
      <point x="306.4630000000001" y="-10.0"/>
      <point x="322.45899999999995" y="-6.624"/>
      <point x="337.25300000000004" y="0.588" type="curve"/>
      <point x="334.27799999999996" y="27.680000000000003" type="line"/>
      <point x="324.818" y="23.904999999999998"/>
      <point x="314.28400000000005" y="20.683"/>
      <point x="303.467" y="20.683" type="curve" smooth="yes"/>
      <point x="286.0230000000001" y="20.683"/>
      <point x="276.74300000000005" y="30.68"/>
      <point x="276.74300000000005" y="51.449000000000005" type="curve" smooth="yes"/>
      <point x="276.74300000000005" y="60.111"/>
      <point x="310.307" y="266.279"/>
      <point x="385.21" y="740.0" type="curve"/>
      <point x="351.09" y="740.0" type="line"/>
      <point x="317.73299999999995" y="529.8580000000001" type="line"/>
      <point x="294.37600000000003" y="536.636"/>
      <point x="270.9870000000001" y="541.8"/>
      <point x="240.79399999999998" y="541.8" type="curve" smooth="yes"/>
      <point x="109.99" y="541.8"/>
      <point x="21.756" y="365.522"/>
      <point x="21.756" y="139.96299999999997" type="curve" smooth="yes"/>
      <point x="21.756" y="40.006"/>
      <point x="64.254" y="-10.0"/>
      <point x="135.633" y="-10.0" type="curve" smooth="yes"/>
      <point x="174.98" y="-10.0"/>
      <point x="218.366" y="7.495"/>
      <point x="244.09900000000002" y="28.379000000000005" type="curve"/>
      <point x="249.97299999999998" y="3.36"/>
      <point x="266.31000000000006" y="-10.0"/>
    </contour>
    <contour>
      <point x="143.505" y="22.904999999999998" type="curve" smooth="yes"/>
      <point x="89.494" y="22.904999999999998"/>
      <point x="55.789" y="66.05399999999999"/>
      <point x="55.789" y="138.83399999999997" type="curve" smooth="yes"/>
      <point x="55.789" y="336.66400000000004"/>
      <point x="132.10900000000004" y="511.67599999999993"/>
      <point x="243.388" y="511.67599999999993" type="curve" smooth="yes"/>
      <point x="271.617" y="511.67599999999993"/>
      <point x="291.98400000000004" y="506.49899999999997"/>
      <point x="312.88800000000003" y="500.605" type="curve"/>
      <point x="242.68099999999998" y="54.684000000000005" type="line"/>
      <point x="215.80899999999997" y="35.214"/>
      <point x="180.22299999999998" y="22.904999999999998"/>
    </contour>
  </outline>
</glyph>
<glyph name="e" format="2">
  <advance width="346.34"/>
  <unicode hex="0065"/>
  <note>
14 points
</note>
  <anchor x="167.532" y="0.0" name="bottom"/>
  <anchor x="249.524" y="2.672" name="ogonek"/>
  <anchor x="243.25600000000003" y="533.2919999999999" name="top"/>
  <outline>
    <contour>
      <point x="56.646" y="270.77000000000004" type="curve"/>
      <point x="51.952" y="242.314" type="line"/>
      <point x="87.82000000000001" y="243.7"/>
      <point x="130.312" y="249.60999999999999"/>
      <point x="170.17999999999998" y="261.43000000000006" type="curve" smooth="yes"/>
      <point x="281.16999999999996" y="294.562"/>
      <point x="352.7099999999999" y="363.58399999999995"/>
      <point x="352.7099999999999" y="452.63800000000003" type="curve" smooth="yes"/>
      <point x="352.7099999999999" y="506.62399999999997"/>
      <point x="316.36999999999995" y="541.8"/>
      <point x="249.654" y="541.8" type="curve" smooth="yes"/>
      <point x="117.2" y="541.8"/>
      <point x="26.724000000000004" y="393.23799999999994"/>
      <point x="26.724000000000004" y="178.224" type="curve" smooth="yes"/>
      <point x="26.724000000000004" y="58.736000000000004"/>
      <point x="75.768" y="-10.0"/>
      <point x="167.52200000000002" y="-10.0" type="curve" smooth="yes"/>
      <point x="209.486" y="-10.0"/>
      <point x="257.36" y="0.25400000000000006"/>
      <point x="293.34000000000003" y="18.646" type="curve"/>
      <point x="285.36" y="47.547999999999995" type="line"/>
      <point x="245.04200000000003" y="29.622000000000003"/>
      <point x="207.576" y="21.458"/>
      <point x="171.132" y="21.458" type="curve" smooth="yes"/>
      <point x="100.56200000000001" y="21.458"/>
      <point x="59.647999999999996" y="80.91"/>
      <point x="59.647999999999996" y="181.4" type="curve" smooth="yes"/>
      <point x="59.647999999999996" y="373.358"/>
      <point x="141.772" y="511.782"/>
      <point x="244.282" y="511.782" type="curve" smooth="yes"/>
      <point x="291.86199999999997" y="511.782"/>
      <point x="320.14599999999996" y="489.434"/>
      <point x="320.14599999999996" y="446.28200000000004" type="curve" smooth="yes"/>
      <point x="320.14599999999996" y="376.86600000000004"/>
      <point x="259.74600000000004" y="319.128"/>
      <point x="166.93400000000003" y="290.33000000000004" type="curve" smooth="yes"/>
      <point x="129.91400000000002" y="278.96"/>
      <point x="91.878" y="271.992"/>
    </contour>
  </outline>
</glyph>
<glyph name="f" format="2">
  <advance width="230.174"/>
  <unicode hex="0066"/>
  <outline>
    <contour>
      <point x="-61.022000000000006" y="-220.0" type="curve" smooth="yes"/>
      <point x="10.278" y="-220.0"/>
      <point x="45.506" y="-163.452"/>
      <point x="63.828" y="-46.774" type="curve" smooth="yes"/>
      <point x="143.268" y="455.928" type="line"/>
      <point x="263.66200000000003" y="455.928" type="line"/>
      <point x="268.642" y="487.24" type="line"/>
      <point x="148.23000000000002" y="487.24" type="line"/>
      <point x="173.794" y="651.304"/>
      <point x="212.872" y="716.9599999999999"/>
      <point x="285.462" y="716.9599999999999" type="curve" smooth="yes"/>
      <point x="311.69" y="716.9599999999999"/>
      <point x="333.49" y="711.8499999999999"/>
      <point x="356.952" y="705.14" type="curve"/>
      <point x="367.71200000000005" y="735.47" type="line"/>
      <point x="338.90000000000003" y="745.3720000000001"/>
      <point x="313.916" y="750.0"/>
      <point x="287.67199999999997" y="750.0" type="curve" smooth="yes"/>
      <point x="194.39800000000002" y="750.0"/>
      <point x="143.554" y="675.386"/>
      <point x="114.0" y="487.24" type="curve"/>
      <point x="44.089999999999996" y="481.09799999999996" type="line"/>
      <point x="40.074000000000005" y="455.928" type="line"/>
      <point x="109.02" y="455.928" type="line"/>
      <point x="30.124" y="-44.45400000000001" type="line" smooth="yes"/>
      <point x="15.334000000000001" y="-137.452"/>
      <point x="-7.710000000000001" y="-188.744"/>
      <point x="-65.602" y="-188.744" type="curve" smooth="yes"/>
      <point x="-79.244" y="-188.744"/>
      <point x="-90.95400000000001" y="-186.70600000000002"/>
      <point x="-107.24799999999999" y="-181.37800000000001" type="curve"/>
      <point x="-115.42800000000001" y="-211.302" type="line"/>
      <point x="-98.336" y="-217.422"/>
      <point x="-81.18799999999999" y="-220.0"/>
    </contour>
  </outline>
</glyph>
<glyph name="g" format="2">
  <advance width="370.478"/>
  <unicode hex="0067"/>
  <note>
16
</note>
  <anchor x="98.66" y="-212.54" name="bottom"/>
  <anchor x="234.088" y="531.8" name="top"/>
  <outline>
    <contour>
      <point x="-2.8479999999999994" y="-201.898" type="line"/>
      <point x="28.212" y="-213.682"/>
      <point x="65.452" y="-220.0"/>
      <point x="100.66" y="-220.0" type="curve" smooth="yes"/>
      <point x="191.07600000000002" y="-220.0"/>
      <point x="242.06199999999998" y="-162.602"/>
      <point x="261.364" y="-38.117999999999995" type="curve" smooth="yes"/>
      <point x="351.136" y="520.588" type="line"/>
      <point x="323.80199999999996" y="533.26"/>
      <point x="288.862" y="541.8"/>
      <point x="255.20399999999998" y="541.8" type="curve" smooth="yes"/>
      <point x="101.888" y="541.8"/>
      <point x="22.232" y="351.90200000000004"/>
      <point x="22.232" y="150.99" type="curve" smooth="yes"/>
      <point x="22.232" y="51.594"/>
      <point x="62.888" y="-8.110000000000001"/>
      <point x="135.08999999999997" y="-8.110000000000001" type="curve" smooth="yes"/>
      <point x="167.206" y="-8.110000000000001"/>
      <point x="206.418" y="3.7840000000000003"/>
      <point x="237.926" y="24.974" type="curve"/>
      <point x="228.736" y="-35.870000000000005" type="line" smooth="yes"/>
      <point x="211.98000000000002" y="-144.634"/>
      <point x="171.478" y="-189.06600000000003"/>
      <point x="98.316" y="-189.06600000000003" type="curve" smooth="yes"/>
      <point x="68.416" y="-189.06600000000003"/>
      <point x="35.224000000000004" y="-182.76399999999998"/>
      <point x="6.4719999999999995" y="-171.89600000000002" type="curve"/>
    </contour>
    <contour>
      <point x="313.21600000000007" y="499.116" type="curve"/>
      <point x="243.05399999999997" y="57.24" type="line"/>
      <point x="218.42000000000002" y="37.86"/>
      <point x="175.57" y="23.104"/>
      <point x="146.296" y="23.104" type="curve" smooth="yes"/>
      <point x="90.16599999999998" y="23.104"/>
      <point x="57.056" y="70.85799999999999"/>
      <point x="57.056" y="159.14999999999998" type="curve" smooth="yes"/>
      <point x="57.056" y="340.774"/>
      <point x="133.688" y="512.052"/>
      <point x="250.308" y="512.052" type="curve" smooth="yes"/>
      <point x="275.794" y="512.052"/>
      <point x="295.206" y="505.99399999999997"/>
    </contour>
  </outline>
</glyph>
<glyph name="h" format="2">
  <advance width="384.08"/>
  <unicode hex="0068"/>
  <note>
16
</note>
  <anchor x="154.918" y="0.0" name="bottom"/>
  <anchor x="208.57699999999997" y="370.45" name="center"/>
  <anchor x="268.976" y="740.0" name="top"/>
  <outline>
    <contour>
      <point x="290.953" y="51.047000000000004" type="curve" smooth="yes"/>
      <point x="290.953" y="84.11200000000001"/>
      <point x="350.07899999999995" y="417.46599999999995"/>
      <point x="350.07899999999995" y="453.17999999999995" type="curve" smooth="yes"/>
      <point x="350.07899999999995" y="505.768"/>
      <point x="324.22400000000005" y="541.8"/>
      <point x="262.636" y="541.8" type="curve" smooth="yes"/>
      <point x="216.04100000000003" y="541.8"/>
      <point x="171.481" y="524.43"/>
      <point x="129.64200000000002" y="501.813" type="curve"/>
      <point x="167.343" y="740.0" type="line"/>
      <point x="133.178" y="740.0" type="line"/>
      <point x="16.042999999999996" y="0.0" type="line"/>
      <point x="50.208" y="0.0" type="line"/>
      <point x="124.231" y="469.73" type="line"/>
      <point x="163.621" y="492.618"/>
      <point x="207.26199999999997" y="509.731"/>
      <point x="246.456" y="509.731" type="curve" smooth="yes"/>
      <point x="298.09400000000005" y="509.731"/>
      <point x="314.01400000000007" y="481.54699999999997"/>
      <point x="314.01400000000007" y="443.501" type="curve" smooth="yes"/>
      <point x="314.01400000000007" y="407.018"/>
      <point x="256.49899999999997" y="80.59"/>
      <point x="256.49899999999997" y="40.577" type="curve" smooth="yes"/>
      <point x="256.49899999999997" y="7.938"/>
      <point x="279.077" y="-10.0"/>
      <point x="308.12700000000007" y="-10.0" type="curve" smooth="yes"/>
      <point x="320.689" y="-10.0"/>
      <point x="334.923" y="-8.071"/>
      <point x="350.106" y="-0.5309999999999999" type="curve"/>
      <point x="348.08599999999996" y="27.606" type="line"/>
      <point x="336.59700000000004" y="22.966"/>
      <point x="327.838" y="21.592999999999996"/>
      <point x="320.28800000000007" y="21.592999999999996" type="curve" smooth="yes"/>
      <point x="299.87600000000003" y="21.592999999999996"/>
      <point x="290.953" y="32.08200000000001"/>
    </contour>
  </outline>
</glyph>
<glyph name="i" format="2">
  <advance width="154.022"/>
  <unicode hex="0069"/>
  <note>
Ajuster pts sur points
8
</note>
  <anchor x="32.599992" y="0.0" name="bottom"/>
  <anchor x="50.098000000000006" y="0.0" name="ogonek"/>
  <anchor x="117.05400800000001" y="531.8" name="top"/>
  <outline>
    <contour>
      <point x="16.742" y="0.0" type="line"/>
      <point x="50.098000000000006" y="0.0" type="line"/>
      <point x="134.35" y="531.8" type="line"/>
      <point x="100.302" y="531.8" type="line"/>
    </contour>
    <contour>
      <point x="147.50799999999998" y="717.2" type="curve" smooth="yes"/>
      <point x="126.904" y="717.2"/>
      <point x="122.64600000000002" y="709.7499999999999"/>
      <point x="120.28000000000002" y="681.03" type="curve" smooth="yes"/>
      <point x="119.552" y="669.0720000000001"/>
      <point x="126.96600000000001" y="666.388"/>
      <point x="137.69799999999998" y="666.388" type="curve" smooth="yes"/>
      <point x="158.78" y="666.388"/>
      <point x="162.72400000000002" y="673.7300000000001"/>
      <point x="165.272" y="702.83" type="curve" smooth="yes"/>
      <point x="166.0" y="714.588"/>
      <point x="159.06" y="717.2"/>
    </contour>
  </outline>
</glyph>
<glyph name="j" format="2">
  <advance width="161.91400000000002"/>
  <unicode hex="006A"/>
  <note>
idem /i
12
</note>
  <outline>
    <contour>
      <point x="155.418" y="717.2" type="curve" smooth="yes"/>
      <point x="134.796" y="717.2"/>
      <point x="130.92" y="709.7499999999999"/>
      <point x="128.554" y="681.03" type="curve" smooth="yes"/>
      <point x="127.82600000000001" y="669.0720000000001"/>
      <point x="134.96599999999998" y="666.388"/>
      <point x="145.698" y="666.388" type="curve" smooth="yes"/>
      <point x="166.162" y="666.388"/>
      <point x="170.27" y="673.7300000000001"/>
      <point x="172.81799999999998" y="702.83" type="curve" smooth="yes"/>
      <point x="173.546" y="714.588"/>
      <point x="166.97" y="717.2"/>
    </contour>
    <contour>
      <point x="142.35" y="531.8" type="line"/>
      <point x="108.212" y="531.8" type="line"/>
      <point x="14.986" y="-58.656000000000006" type="line" smooth="yes"/>
      <point x="2.361999999999999" y="-138.13"/>
      <point x="-20.137999999999998" y="-188.744"/>
      <point x="-75.47999999999999" y="-188.744" type="curve" smooth="yes"/>
      <point x="-89.85" y="-188.744"/>
      <point x="-102.834" y="-186.906"/>
      <point x="-120.29400000000001" y="-180.86800000000002" type="curve"/>
      <point x="-128.058" y="-211.18800000000002" type="line"/>
      <point x="-111.312" y="-217.638"/>
      <point x="-89.78399999999999" y="-220.0"/>
      <point x="-71.79" y="-220.0" type="curve" smooth="yes"/>
      <point x="-1.4120000000000024" y="-220.0"/>
      <point x="32.224000000000004" y="-165.494"/>
      <point x="48.214" y="-62.846" type="curve" smooth="yes"/>
    </contour>
  </outline>
</glyph>
<glyph name="k" format="2">
  <advance width="351.79"/>
  <unicode hex="006B"/>
  <anchor x="151.17" y="0.0" name="bottom"/>
  <anchor x="150.91" y="740.0" name="top"/>
  <outline>
    <contour>
      <point x="16.26" y="0.0" type="line"/>
      <point x="50.47" y="0.0" type="line"/>
      <point x="167.56" y="740.0" type="line"/>
      <point x="133.26000000000002" y="740.0" type="line"/>
    </contour>
    <contour>
      <point x="303.71000000000004" y="-10.0" type="curve" smooth="yes"/>
      <point x="311.52" y="-10.0"/>
      <point x="319.33" y="-8.5"/>
      <point x="327.23" y="-5.2299999999999995" type="curve"/>
      <point x="326.2" y="25.749999999999996" type="line"/>
      <point x="320.02" y="23.929999999999996"/>
      <point x="314.43" y="23.109999999999996"/>
      <point x="309.75" y="23.199999999999996" type="curve" smooth="yes"/>
      <point x="281.48" y="23.65"/>
      <point x="254.12" y="56.67"/>
      <point x="192.75" y="174.85" type="curve" smooth="yes"/>
      <point x="98.2" y="351.4" type="line"/>
      <point x="85.36" y="311.06" type="line"/>
      <point x="180.17000000000002" y="129.68" type="line" smooth="yes"/>
      <point x="236.55" y="21.72"/>
      <point x="264.86" y="-10.0"/>
    </contour>
    <contour>
      <point x="146.56" y="247.92" type="line"/>
      <point x="240.10999999999999" y="311.26"/>
      <point x="322.15999999999997" y="416.88"/>
      <point x="368.77000000000004" y="532.4399999999999" type="curve"/>
      <point x="337.06" y="540.98" type="line"/>
      <point x="285.44" y="420.72999999999996"/>
      <point x="226.70000000000002" y="340.57"/>
      <point x="129.88" y="273.88" type="curve"/>
    </contour>
  </outline>
</glyph>
<glyph name="l" format="2">
  <advance width="173.254"/>
  <unicode hex="006C"/>
  <anchor x="85.452" y="0.0" name="bottom"/>
  <anchor x="93.17810800000001" y="370.45" name="center"/>
  <anchor x="149.956" y="740.0" name="top"/>
  <anchor x="238.44" y="740.0" name="topright"/>
  <outline>
    <contour>
      <point x="133.196" y="740.0" type="line"/>
      <point x="28.622000000000003" y="80.19" type="line" smooth="yes"/>
      <point x="27.296000000000003" y="70.524"/>
      <point x="25.696" y="58.238"/>
      <point x="25.696" y="47.568000000000005" type="curve" smooth="yes"/>
      <point x="25.696" y="12.748"/>
      <point x="42.404" y="-10.0"/>
      <point x="85.174" y="-10.0" type="curve" smooth="yes"/>
      <point x="104.17200000000001" y="-10.0"/>
      <point x="125.44" y="-5.752"/>
      <point x="142.46400000000003" y="0.62" type="curve"/>
      <point x="140.226" y="29.002000000000002" type="line"/>
      <point x="123.40200000000002" y="23.854"/>
      <point x="109.75999999999999" y="21.216"/>
      <point x="97.33600000000001" y="21.216" type="curve" smooth="yes"/>
      <point x="68.19" y="21.216"/>
      <point x="60.260000000000005" y="35.716"/>
      <point x="60.260000000000005" y="53.083999999999996" type="curve" smooth="yes"/>
      <point x="60.260000000000005" y="66.63799999999999"/>
      <point x="63.244" y="81.81"/>
      <point x="66.628" y="103.242" type="curve" smooth="yes"/>
      <point x="167.444" y="740.0" type="line"/>
    </contour>
  </outline>
</glyph>
<glyph name="m" format="2">
  <advance width="577.008"/>
  <unicode hex="006D"/>
  <note>
24&gt;23 points
un point de trop dans la jointure avec 2e jambage
</note>
  <outline>
    <contour>
      <point x="500.902" y="-10.0" type="curve" smooth="yes"/>
      <point x="513.428" y="-10.0"/>
      <point x="528.0219999999999" y="-8.116"/>
      <point x="543.052" y="-0.5579999999999999" type="curve"/>
      <point x="540.996" y="27.444000000000003" type="line"/>
      <point x="529.57" y="22.804000000000002"/>
      <point x="520.73" y="21.511999999999997"/>
      <point x="513.198" y="21.511999999999997" type="curve" smooth="yes"/>
      <point x="492.804" y="21.511999999999997"/>
      <point x="483.2540000000001" y="32.044"/>
      <point x="483.2540000000001" y="51.233999999999995" type="curve" smooth="yes"/>
      <point x="483.2540000000001" y="85.62200000000001"/>
      <point x="542.506" y="417.916"/>
      <point x="542.506" y="453.558" type="curve" smooth="yes"/>
      <point x="542.506" y="505.55199999999996"/>
      <point x="517.116" y="541.8"/>
      <point x="455.51" y="541.8" type="curve" smooth="yes"/>
      <point x="414.53200000000004" y="541.8"/>
      <point x="369.09000000000003" y="525.3420000000001"/>
      <point x="323.662" y="494.59000000000003" type="curve"/>
      <point x="312.008" y="523.348"/>
      <point x="285.228" y="541.8"/>
      <point x="245.38400000000001" y="541.8" type="curve" smooth="yes"/>
      <point x="206.04000000000002" y="541.8"/>
      <point x="165.898" y="524.34"/>
      <point x="126.858" y="500.75600000000003" type="curve"/>
      <point x="132.01999999999998" y="531.8" type="line"/>
      <point x="99.55600000000001" y="531.8" type="line"/>
      <point x="15.468000000000002" y="0.0" type="line"/>
      <point x="49.534" y="0.0" type="line"/>
      <point x="123.748" y="470.892" type="line"/>
      <point x="160.08400000000003" y="494.49199999999996"/>
      <point x="197.202" y="509.74"/>
      <point x="232.374" y="509.74" type="curve" smooth="yes"/>
      <point x="279.572" y="509.74"/>
      <point x="296.31" y="480.90000000000003"/>
      <point x="296.31" y="444.112" type="curve" smooth="yes"/>
      <point x="296.31" y="415.766"/>
      <point x="239.742" y="75.122"/>
      <point x="228.53799999999998" y="0.0" type="curve"/>
      <point x="263.188" y="0.0" type="line"/>
      <point x="273.834" y="71.282"/>
      <point x="328.998" y="412.196"/>
      <point x="330.72599999999994" y="448.898" type="curve" smooth="yes"/>
      <point x="330.816" y="455.498"/>
      <point x="330.12199999999996" y="462.8"/>
      <point x="329.12" y="468.564" type="curve"/>
      <point x="363.58000000000004" y="491.434"/>
      <point x="401.7" y="509.686"/>
      <point x="442.47800000000007" y="509.686" type="curve" smooth="yes"/>
      <point x="490.112" y="509.686"/>
      <point x="506.26800000000003" y="481.392"/>
      <point x="506.26800000000003" y="442.364" type="curve" smooth="yes"/>
      <point x="506.26800000000003" y="404.598"/>
      <point x="448.944" y="81.22"/>
      <point x="448.944" y="40.784" type="curve" smooth="yes"/>
      <point x="448.944" y="7.488"/>
      <point x="471.888" y="-10.0"/>
    </contour>
  </outline>
</glyph>
<glyph name="n" format="2">
  <advance width="382.62399999999997"/>
  <unicode hex="006E"/>
  <note>
16
</note>
  <anchor x="161.73399999999998" y="0.0" name="bottom"/>
  <anchor x="228.16400000000002" y="531.8" name="top"/>
  <outline>
    <contour>
      <point x="99.55600000000001" y="531.8" type="line"/>
      <point x="15.468000000000002" y="0.0" type="line"/>
      <point x="49.516" y="0.0" type="line"/>
      <point x="123.638" y="469.82" type="line"/>
      <point x="163.868" y="493.146"/>
      <point x="205.806" y="510.468"/>
      <point x="245.162" y="510.468" type="curve" smooth="yes"/>
      <point x="296.564" y="510.468"/>
      <point x="313.32" y="481.518"/>
      <point x="313.32" y="442.454" type="curve" smooth="yes"/>
      <point x="313.32" y="405.99"/>
      <point x="255.97800000000004" y="81.4"/>
      <point x="255.97800000000004" y="40.208" type="curve" smooth="yes"/>
      <point x="255.97800000000004" y="7.992000000000001"/>
      <point x="277.64799999999997" y="-10.0"/>
      <point x="306.662" y="-10.0" type="curve" smooth="yes"/>
      <point x="319.188" y="-10.0"/>
      <point x="333.63800000000003" y="-8.116"/>
      <point x="348.668" y="-0.5579999999999999" type="curve"/>
      <point x="346.61199999999997" y="27.444000000000003" type="line"/>
      <point x="335.186" y="22.804000000000002"/>
      <point x="326.34600000000006" y="21.511999999999997"/>
      <point x="318.814" y="21.511999999999997" type="curve" smooth="yes"/>
      <point x="298.42" y="21.511999999999997"/>
      <point x="290.144" y="32.010000000000005"/>
      <point x="290.144" y="50.984" type="curve" smooth="yes"/>
      <point x="290.144" y="84.07600000000001"/>
      <point x="349.468" y="417.412"/>
      <point x="349.468" y="453.126" type="curve" smooth="yes"/>
      <point x="349.468" y="505.948"/>
      <point x="322.40799999999996" y="541.8"/>
      <point x="261.19800000000004" y="541.8" type="curve" smooth="yes"/>
      <point x="214.45000000000002" y="541.8"/>
      <point x="169.78" y="523.74"/>
      <point x="126.53" y="499.48199999999997" type="curve"/>
      <point x="131.984" y="531.8" type="line"/>
    </contour>
  </outline>
</glyph>
<glyph name="o" format="2">
  <advance width="369.84999999999997"/>
  <unicode hex="006F"/>
  <note>
8
</note>
  <anchor x="151.05" y="0.0" name="bottom"/>
  <anchor x="188.68" y="267.71999999999997" name="center"/>
  <anchor x="197.69" y="2.46" name="ogonek"/>
  <anchor x="227.05" y="531.8" name="top"/>
  <anchor x="293.63" y="523.62" name="topright"/>
  <outline>
    <contour>
      <point x="147.74" y="-10.0" type="curve" smooth="yes"/>
      <point x="281.6" y="-10.0"/>
      <point x="342.7" y="231.1"/>
      <point x="342.7" y="394.71000000000004" type="curve" smooth="yes"/>
      <point x="342.7" y="500.41"/>
      <point x="298.45" y="541.48"/>
      <point x="219.15" y="541.48" type="curve" smooth="yes"/>
      <point x="85.98" y="541.48"/>
      <point x="23.830000000000002" y="296.65999999999997"/>
      <point x="23.830000000000002" y="135.85999999999999" type="curve" smooth="yes"/>
      <point x="23.830000000000002" y="29.52"/>
      <point x="66.58" y="-10.0"/>
    </contour>
    <contour>
      <point x="148.20000000000002" y="20.46" type="curve" smooth="yes"/>
      <point x="89.02" y="20.46"/>
      <point x="57.09" y="49.88999999999999"/>
      <point x="57.09" y="136.59" type="curve" smooth="yes"/>
      <point x="57.09" y="266.96000000000004"/>
      <point x="113.0" y="511.02"/>
      <point x="218.83" y="511.02" type="curve" smooth="yes"/>
      <point x="275.92" y="511.02"/>
      <point x="309.35" y="479.63"/>
      <point x="309.35" y="394.38" type="curve" smooth="yes"/>
      <point x="309.35" y="260.34"/>
      <point x="255.08" y="20.46"/>
    </contour>
  </outline>
</glyph>
<glyph name="p" format="2">
  <advance width="375.29499999999996"/>
  <unicode hex="0070"/>
  <note>
14 point
</note>
  <outline>
    <contour>
      <point x="-16.785999999999998" y="-210.0" type="line"/>
      <point x="16.471" y="-210.0" type="line"/>
      <point x="50.016999999999996" y="0.5480000000000003" type="line"/>
      <point x="71.387" y="-5.546"/>
      <point x="95.389" y="-9.865"/>
      <point x="124.75300000000001" y="-9.865" type="curve" smooth="yes"/>
      <point x="262.95" y="-9.865"/>
      <point x="351.05199999999996" y="177.19"/>
      <point x="351.05199999999996" y="379.6910000000001" type="curve" smooth="yes"/>
      <point x="351.05199999999996" y="489.722"/>
      <point x="314.82899999999995" y="541.8"/>
      <point x="241.79600000000002" y="541.8" type="curve" smooth="yes"/>
      <point x="198.941" y="541.8"/>
      <point x="164.804" y="524.806"/>
      <point x="128.295" y="502.215" type="curve"/>
      <point x="129.98" y="539.0799999999999" type="line"/>
      <point x="101.03" y="539.0799999999999" type="line"/>
    </contour>
    <contour>
      <point x="121.859" y="20.647" type="curve" smooth="yes"/>
      <point x="95.522" y="20.647"/>
      <point x="72.77999999999999" y="25.287"/>
      <point x="54.997" y="31.881999999999998" type="curve"/>
      <point x="124.303" y="469.955" type="line"/>
      <point x="157.965" y="493.748"/>
      <point x="197.99300000000002" y="509.533"/>
      <point x="230.74099999999999" y="509.533" type="curve" smooth="yes"/>
      <point x="287.4599999999999" y="509.533"/>
      <point x="316.662" y="465.135"/>
      <point x="316.662" y="373.854" type="curve" smooth="yes"/>
      <point x="316.662" y="193.985"/>
      <point x="238.70000000000002" y="20.647"/>
    </contour>
  </outline>
</glyph>
<glyph name="q" format="2">
  <advance width="369.78600000000006"/>
  <unicode hex="0071"/>
  <note>
12
</note>
  <outline>
    <contour>
      <point x="350.70900000000006" y="523.2660000000001" type="line"/>
      <point x="319.541" y="533.217"/>
      <point x="283.675" y="541.8"/>
      <point x="245.62500000000003" y="541.8" type="curve" smooth="yes"/>
      <point x="81.651" y="541.8"/>
      <point x="21.557999999999996" y="293.01300000000003"/>
      <point x="21.557999999999996" y="136.96599999999998" type="curve" smooth="yes"/>
      <point x="21.557999999999996" y="38.303000000000004"/>
      <point x="66.28399999999999" y="-10.0"/>
      <point x="131.256" y="-10.0" type="curve" smooth="yes"/>
      <point x="172.85700000000003" y="-10.0"/>
      <point x="206.31500000000003" y="5.503000000000001"/>
      <point x="238.18199999999996" y="28.869000000000003" type="curve"/>
      <point x="198.679" y="-210.0" type="line"/>
      <point x="234.02999999999997" y="-210.0" type="line"/>
    </contour>
    <contour>
      <point x="312.879" y="500.331" type="curve"/>
      <point x="243.027" y="60.663" type="line"/>
      <point x="208.866" y="33.867999999999995"/>
      <point x="173.97899999999998" y="22.086999999999996"/>
      <point x="141.22899999999998" y="22.086999999999996" type="curve" smooth="yes"/>
      <point x="86.146" y="22.086999999999996"/>
      <point x="54.854" y="72.536"/>
      <point x="54.854" y="136.703" type="curve" smooth="yes"/>
      <point x="54.854" y="303.10800000000006"/>
      <point x="116.845" y="511.611"/>
      <point x="243.242" y="511.611" type="curve" smooth="yes"/>
      <point x="267.66499999999996" y="511.611"/>
      <point x="292.82" y="506.198"/>
    </contour>
  </outline>
</glyph>
<glyph name="r" format="2">
  <advance width="261.83"/>
  <unicode hex="0072"/>
  <anchor x="31.848000000000003" y="0.0" name="bottom"/>
  <anchor x="198.17" y="531.8" name="top"/>
  <outline>
    <contour>
      <point x="131.658" y="531.8" type="line"/>
      <point x="99.59200000000001" y="531.8" type="line"/>
      <point x="15.450000000000001" y="0.0" type="line"/>
      <point x="49.136" y="0.0" type="line"/>
      <point x="119.00400000000002" y="442.296" type="line"/>
      <point x="166.046" y="489.02200000000005"/>
      <point x="205.95999999999998" y="507.29200000000003"/>
      <point x="243.488" y="507.29200000000003" type="curve" smooth="yes"/>
      <point x="260.384" y="507.29200000000003"/>
      <point x="278.638" y="504.382"/>
      <point x="294.892" y="499.2" type="curve"/>
      <point x="306.29999999999995" y="532.5459999999999" type="line"/>
      <point x="291.176" y="538.544"/>
      <point x="271.59000000000003" y="541.8"/>
      <point x="250.38600000000002" y="541.8" type="curve" smooth="yes"/>
      <point x="209.032" y="541.8"/>
      <point x="166.382" y="521.524"/>
      <point x="123.094" y="480.802" type="curve"/>
    </contour>
  </outline>
</glyph>
<glyph name="s" format="2">
  <advance width="320.01"/>
  <unicode hex="0073"/>
  <anchor x="112.99000000000001" y="0.0" name="bottom"/>
  <anchor x="212.46" y="531.8" name="top"/>
  <outline>
    <contour>
      <point x="-11.3" y="13.67" type="line"/>
      <point x="19.77" y="-0.5500000000000003"/>
      <point x="61.85" y="-10.0"/>
      <point x="110.0" y="-10.0" type="curve" smooth="yes"/>
      <point x="223.12" y="-10.0"/>
      <point x="275.84999999999997" y="60.98"/>
      <point x="275.84999999999997" y="138.98999999999998" type="curve" smooth="yes"/>
      <point x="275.84999999999997" y="276.51000000000005"/>
      <point x="94.61999999999999" y="287.59000000000003"/>
      <point x="94.61999999999999" y="403.02" type="curve" smooth="yes"/>
      <point x="94.61999999999999" y="460.78999999999996"/>
      <point x="135.02" y="510.34"/>
      <point x="214.93" y="510.34" type="curve" smooth="yes"/>
      <point x="250.34" y="510.34"/>
      <point x="281.82" y="501.25"/>
      <point x="307.98999999999995" y="490.89" type="curve"/>
      <point x="319.41" y="521.0799999999999" type="line"/>
      <point x="294.74000000000007" y="533.0300000000001"/>
      <point x="255.71" y="541.8"/>
      <point x="219.33" y="541.8" type="curve" smooth="yes"/>
      <point x="110.06" y="541.8"/>
      <point x="61.54" y="472.72"/>
      <point x="61.54" y="401.68" type="curve" smooth="yes"/>
      <point x="61.54" y="259.62"/>
      <point x="241.95000000000002" y="257.09"/>
      <point x="241.95000000000002" y="135.15" type="curve" smooth="yes"/>
      <point x="241.95000000000002" y="74.1"/>
      <point x="197.91" y="21.28"/>
      <point x="114.08999999999999" y="21.28" type="curve" smooth="yes"/>
      <point x="71.36" y="21.28"/>
      <point x="30.700000000000003" y="30.82"/>
      <point x="0.8900000000000001" y="44.5" type="curve"/>
    </contour>
  </outline>
</glyph>
<glyph name="t" format="2">
  <advance width="248.76399999999998"/>
  <unicode hex="0074"/>
  <anchor x="125.86000000000001" y="0.0" name="bottom"/>
  <anchor x="115.756" y="317.22399999999993" name="center"/>
  <anchor x="152.43" y="664.208" name="top"/>
  <anchor x="277.274" y="752.71" name="topright"/>
  <outline>
    <contour>
      <point x="207.59400000000002" y="34.41" type="line"/>
      <point x="185.972" y="27.716"/>
      <point x="163.76" y="22.967999999999996"/>
      <point x="143.60399999999998" y="22.967999999999996" type="curve" smooth="yes"/>
      <point x="96.524" y="22.967999999999996"/>
      <point x="78.22200000000001" y="46.106"/>
      <point x="78.22200000000001" y="89.568" type="curve" smooth="yes"/>
      <point x="78.22200000000001" y="101.62799999999999"/>
      <point x="79.932" y="114.67"/>
      <point x="82.024" y="129.986" type="curve" smooth="yes"/>
      <point x="140.926" y="500.852" type="line"/>
      <point x="282.358" y="500.852" type="line"/>
      <point x="287.518" y="531.8" type="line"/>
      <point x="146.03199999999998" y="531.8" type="line"/>
      <point x="166.81799999999998" y="664.208" type="line"/>
      <point x="140.026" y="664.208" type="line"/>
      <point x="112.128" y="531.8" type="line"/>
      <point x="41.306000000000004" y="525.548" type="line"/>
      <point x="37.0" y="500.924" type="line"/>
      <point x="106.914" y="500.924" type="line"/>
      <point x="47.81400000000001" y="128.31199999999998" type="line" smooth="yes"/>
      <point x="44.63400000000001" y="109.888"/>
      <point x="43.145999999999994" y="90.6"/>
      <point x="43.145999999999994" y="76.318" type="curve" smooth="yes"/>
      <point x="43.145999999999994" y="19.936"/>
      <point x="70.03999999999999" y="-10.0"/>
      <point x="130.516" y="-10.0" type="curve" smooth="yes"/>
      <point x="153.436" y="-10.0"/>
      <point x="181.29600000000002" y="-5.732"/>
      <point x="210.76000000000002" y="4.934000000000001" type="curve"/>
    </contour>
  </outline>
</glyph>
<glyph name="u" format="2">
  <advance width="377.82"/>
  <unicode hex="0075"/>
  <note>
15
</note>
  <anchor x="145.634" y="0.0" name="bottom"/>
  <anchor x="341.08" y="1.5479999999999998" name="ogonek"/>
  <anchor x="224.67203200000003" y="531.8" name="top"/>
  <anchor x="352.57200000000006" y="531.8" name="topright"/>
  <outline>
    <contour>
      <point x="114.214" y="-10.0" type="curve" smooth="yes"/>
      <point x="161.01399999999998" y="-10.0"/>
      <point x="200.63199999999998" y="5.5600000000000005"/>
      <point x="248.108" y="35.294000000000004" type="curve"/>
      <point x="251.534" y="3.914"/>
      <point x="269.97" y="-10.0"/>
      <point x="297.258" y="-10.0" type="curve" smooth="yes"/>
      <point x="307.562" y="-10.0"/>
      <point x="327.69" y="-5.534"/>
      <point x="341.08" y="1.7459999999999998" type="curve"/>
      <point x="338.442" y="28.1" type="line"/>
      <point x="326.70799999999997" y="23.406000000000002"/>
      <point x="314.482" y="20.676000000000002"/>
      <point x="307.914" y="20.676000000000002" type="curve" smooth="yes"/>
      <point x="287.938" y="20.676000000000002"/>
      <point x="280.808" y="31.881999999999998"/>
      <point x="280.808" y="51.544" type="curve" smooth="yes"/>
      <point x="280.808" y="62.532"/>
      <point x="283.264" y="84.00000000000001"/>
      <point x="354.732" y="531.8" type="curve"/>
      <point x="320.682" y="531.8" type="line"/>
      <point x="247.616" y="62.69200000000001" type="line"/>
      <point x="204.31" y="35.362"/>
      <point x="167.21200000000002" y="21.151999999999997"/>
      <point x="126.656" y="21.151999999999997" type="curve" smooth="yes"/>
      <point x="84.664" y="21.151999999999997"/>
      <point x="62.886" y="47.17"/>
      <point x="63.029999999999994" y="82.79" type="curve" smooth="yes"/>
      <point x="64.326" y="104.386"/>
      <point x="67.0" y="124.596"/>
      <point x="130.894" y="531.8" type="curve"/>
      <point x="96.95400000000001" y="531.8" type="line"/>
      <point x="47.68000000000001" y="209.664"/>
      <point x="28.136" y="108.26400000000001"/>
      <point x="28.136" y="70.5" type="curve" smooth="yes"/>
      <point x="28.136" y="21.695999999999998"/>
      <point x="59.346000000000004" y="-10.0"/>
    </contour>
  </outline>
</glyph>
<glyph name="v" format="2">
  <advance width="326.586"/>
  <unicode hex="0076"/>
  <outline>
    <contour>
      <point x="140.152" y="-2.712" type="line"/>
      <point x="290.166" y="348.922"/>
      <point x="339.324" y="421.51"/>
      <point x="340.77799999999996" y="531.8" type="curve"/>
      <point x="306.51000000000005" y="531.8" type="line"/>
      <point x="302.636" y="429.794"/>
      <point x="274.142" y="391.136"/>
      <point x="125.988" y="39.96" type="curve"/>
      <point x="85.774" y="533.62" type="line"/>
      <point x="51.146" y="532.246" type="line"/>
      <point x="99.68" y="-2.712" type="line"/>
    </contour>
  </outline>
</glyph>
<glyph name="w" format="2">
  <advance width="526.408"/>
  <unicode hex="0077"/>
  <note>
15
</note>
  <anchor x="232.97599999999997" y="0.0" name="bottom"/>
  <anchor x="295.37600000000003" y="531.8" name="top"/>
  <outline>
    <contour>
      <point x="357.524" y="0.0" type="line"/>
      <point x="503.13199999999995" y="365.08799999999997"/>
      <point x="532.78" y="421.936"/>
      <point x="539.204" y="531.8" type="curve"/>
      <point x="506.124" y="531.8" type="line"/>
      <point x="497.484" y="423.428"/>
      <point x="477.652" y="378.76"/>
      <point x="344.43199999999996" y="44.28" type="curve"/>
      <point x="314.384" y="489.048" type="line"/>
      <point x="276.108" y="489.048" type="line"/>
      <point x="222.016" y="339.56000000000006"/>
      <point x="168.92400000000004" y="191.656"/>
      <point x="114.61600000000001" y="42.924" type="curve"/>
      <point x="81.22" y="533.62" type="line"/>
      <point x="47.812" y="532.264" type="line"/>
      <point x="87.2" y="0.0" type="line"/>
      <point x="127.49199999999999" y="0.0" type="line"/>
      <point x="181.04399999999998" y="145.14"/>
      <point x="235.27599999999998" y="291.716"/>
      <point x="288.396" y="436.496" type="curve"/>
      <point x="318.456" y="0.0" type="line"/>
    </contour>
  </outline>
</glyph>
<glyph name="x" format="2">
  <advance width="327.65000000000003"/>
  <unicode hex="0078"/>
  <outline>
    <contour>
      <point x="308.525" y="531.8" type="line"/>
      <point x="299.205" y="460.25499999999994"/>
      <point x="274.395" y="389.35999999999996"/>
      <point x="175.58" y="292.815" type="curve"/>
      <point x="102.895" y="537.0300000000001" type="line"/>
      <point x="68.66" y="531.7099999999999" type="line"/>
      <point x="148.295" y="273.52500000000003" type="line"/>
      <point x="43.224999999999994" y="174.06499999999997"/>
      <point x="-5.865000000000001" y="86.16"/>
      <point x="-13.49" y="0.0" type="curve"/>
      <point x="20.3" y="0.0" type="line"/>
      <point x="31.439999999999998" y="85.92999999999999"/>
      <point x="70.54" y="156.12499999999997"/>
      <point x="162.89" y="245.03" type="curve"/>
      <point x="238.805" y="-3.5500000000000003" type="line"/>
      <point x="272.765" y="1.045" type="line"/>
      <point x="189.49499999999998" y="265.725" type="line"/>
      <point x="298.52000000000004" y="365.85499999999996"/>
      <point x="335.41499999999996" y="461.06"/>
      <point x="342.455" y="531.8" type="curve"/>
    </contour>
  </outline>
</glyph>
<glyph name="y" format="2">
  <advance width="328.41"/>
  <unicode hex="0079"/>
  <anchor x="104.89999999999999" y="-210.0" name="bottom"/>
  <anchor x="194.34" y="531.8" name="top"/>
  <outline>
    <contour>
      <point x="311.23" y="539.0799999999999" type="line"/>
      <point x="286.76000000000005" y="359.16999999999996"/>
      <point x="215.18" y="186.75"/>
      <point x="142.43" y="33.230000000000004" type="curve"/>
      <point x="78.4" y="540.9" type="line"/>
      <point x="43.92" y="538.1700000000001" type="line"/>
      <point x="112.7" y="-1.82" type="line"/>
      <point x="122.91" y="-1.82" type="line"/>
      <point x="85.89999999999999" y="-79.52"/>
      <point x="46.900000000000006" y="-149.3"/>
      <point x="10.92" y="-209.09" type="curve"/>
      <point x="43.3" y="-219.1" type="line"/>
      <point x="166.21" y="-7.9799999999999995"/>
      <point x="315.57" y="307.4"/>
      <point x="344.62" y="536.35" type="curve"/>
    </contour>
  </outline>
</glyph>
<glyph name="z" format="2">
  <advance width="333.868"/>
  <unicode hex="007A"/>
  <anchor x="139.37400000000002" y="0.0" name="bottom"/>
  <anchor x="163.098" y="275.0" name="center"/>
  <anchor x="211.184" y="531.8" name="top"/>
  <outline>
    <contour>
      <point x="-8.079999999999998" y="0.0" type="line"/>
      <point x="284.14399999999995" y="0.0" type="line"/>
      <point x="289.142" y="31.279999999999998" type="line"/>
      <point x="35.022" y="31.279999999999998" type="line"/>
      <point x="342.956" y="501.57800000000003" type="line"/>
      <point x="347.958" y="531.8" type="line"/>
      <point x="82.402" y="531.8" type="line"/>
      <point x="77.314" y="500.37600000000003" type="line"/>
      <point x="304.80199999999996" y="500.37600000000003" type="line"/>
      <point x="-4.244" y="29.25" type="line"/>
    </contour>
  </outline>
</glyph>
<glyph name="braceleft" format="2">
  <advance width="244.608"/>
  <unicode hex="007B"/>
  <outline>
    <contour>
      <point x="31.380000000000003" y="-116.67" type="curve" smooth="yes"/>
      <point x="31.380000000000003" y="-171.36"/>
      <point x="54.224" y="-210.0"/>
      <point x="106.72200000000001" y="-210.0" type="curve" smooth="yes"/>
      <point x="138.45200000000003" y="-210.0" type="line"/>
      <point x="143.50400000000002" y="-178.29999999999998" type="line"/>
      <point x="116.508" y="-178.29999999999998" type="line" smooth="yes"/>
      <point x="77.83400000000002" y="-178.29999999999998"/>
      <point x="63.046" y="-149.60999999999999"/>
      <point x="63.046" y="-110.156" type="curve" smooth="yes"/>
      <point x="63.046" y="0.5959999999999998"/>
      <point x="135.43" y="98.622"/>
      <point x="135.43" y="206.516" type="curve" smooth="yes"/>
      <point x="135.43" y="234.36"/>
      <point x="130.164" y="260.096"/>
      <point x="106.264" y="271.37" type="curve"/>
      <point x="153.034" y="279.936"/>
      <point x="170.13" y="356.718"/>
      <point x="170.13" y="415.51000000000005" type="curve" smooth="yes"/>
      <point x="170.13" y="463.33000000000004"/>
      <point x="167.388" y="493.77400000000006"/>
      <point x="167.388" y="552.4200000000001" type="curve" smooth="yes"/>
      <point x="167.388" y="625.352"/>
      <point x="187.57999999999998" y="708.3000000000001"/>
      <point x="259.58" y="708.3000000000001" type="curve" smooth="yes"/>
      <point x="283.52" y="708.3000000000001" type="line"/>
      <point x="288.428" y="740.0" type="line"/>
      <point x="260.338" y="740.0" type="line" smooth="yes"/>
      <point x="163.82000000000002" y="740.0"/>
      <point x="136.17" y="638.212"/>
      <point x="136.17" y="545.202" type="curve" smooth="yes"/>
      <point x="136.17" y="490.712"/>
      <point x="139.10999999999999" y="457.414"/>
      <point x="139.10999999999999" y="422.084" type="curve" smooth="yes"/>
      <point x="139.10999999999999" y="364.46"/>
      <point x="128.398" y="288.218"/>
      <point x="80.96400000000001" y="288.218" type="curve" smooth="yes"/>
      <point x="66.928" y="288.218" type="line"/>
      <point x="61.948" y="256.81600000000003" type="line"/>
      <point x="74.71000000000001" y="256.81600000000003" type="line" smooth="yes"/>
      <point x="99.11600000000001" y="256.81600000000003"/>
      <point x="105.862" y="234.74800000000002"/>
      <point x="105.862" y="208.74" type="curve" smooth="yes"/>
      <point x="105.862" y="94.22800000000001"/>
      <point x="31.380000000000003" y="8.319999999999999"/>
    </contour>
  </outline>
</glyph>
<glyph name="bar" format="2">
  <advance width="149.988"/>
  <unicode hex="007C"/>
  <outline>
    <contour>
      <point x="172.14999999999998" y="790.072" type="line"/>
      <point x="141.82" y="790.072" type="line"/>
      <point x="-17.234" y="-210.0" type="line"/>
      <point x="13.15" y="-210.0" type="line"/>
    </contour>
  </outline>
</glyph>
<glyph name="braceright" format="2">
  <advance width="244.608"/>
  <unicode hex="007D"/>
  <outline>
    <contour>
      <point x="210.046" y="646.6700000000001" type="curve" smooth="yes"/>
      <point x="210.046" y="701.432"/>
      <point x="187.13000000000002" y="740.072"/>
      <point x="134.632" y="740.072" type="curve" smooth="yes"/>
      <point x="102.902" y="740.072" type="line"/>
      <point x="97.85" y="708.3720000000001" type="line"/>
      <point x="124.12600000000002" y="708.3720000000001" type="line" smooth="yes"/>
      <point x="162.872" y="708.3720000000001"/>
      <point x="177.732" y="679.61"/>
      <point x="177.732" y="640.156" type="curve" smooth="yes"/>
      <point x="177.732" y="529.26"/>
      <point x="105.348" y="439.226"/>
      <point x="105.348" y="329.81999999999994" type="curve" smooth="yes"/>
      <point x="105.348" y="302.19200000000006"/>
      <point x="110.542" y="276.456"/>
      <point x="134.586" y="265.25399999999996" type="curve"/>
      <point x="87.816" y="256.616"/>
      <point x="70.648" y="179.978"/>
      <point x="70.648" y="121.114" type="curve" smooth="yes"/>
      <point x="70.648" y="73.294"/>
      <point x="73.39" y="36.297999999999995"/>
      <point x="73.39" y="-22.204" type="curve" smooth="yes"/>
      <point x="73.39" y="-95.136"/>
      <point x="53.27" y="-178.22799999999998"/>
      <point x="-18.73" y="-178.22799999999998" type="curve" smooth="yes"/>
      <point x="-42.094" y="-178.22799999999998" type="line"/>
      <point x="-47.001999999999995" y="-210.0" type="line"/>
      <point x="-18.983999999999998" y="-210.0" type="line" smooth="yes"/>
      <point x="77.534" y="-210.0"/>
      <point x="105.18400000000001" y="-107.27600000000001"/>
      <point x="105.18400000000001" y="-16.57" type="curve" smooth="yes"/>
      <point x="105.18400000000001" y="39.864"/>
      <point x="102.244" y="80.00200000000001"/>
      <point x="102.244" y="114.828" type="curve" smooth="yes"/>
      <point x="102.244" y="172.308"/>
      <point x="113.10000000000001" y="248.406"/>
      <point x="160.39000000000001" y="248.406" type="curve" smooth="yes"/>
      <point x="174.42600000000002" y="248.406" type="line"/>
      <point x="179.406" y="279.736" type="line"/>
      <point x="166.644" y="279.736" type="line" smooth="yes"/>
      <point x="142.238" y="279.736"/>
      <point x="135.492" y="301.80400000000003"/>
      <point x="135.492" y="327.81200000000007" type="curve" smooth="yes"/>
      <point x="135.492" y="442.396"/>
      <point x="210.046" y="520.6719999999999"/>
    </contour>
  </outline>
</glyph>
<glyph name="asciitilde" format="2">
  <advance width="386.32599999999996"/>
  <unicode hex="007E"/>
  <outline>
    <contour>
      <point x="324.852" y="253.73000000000002" type="curve"/>
      <point x="330.76" y="291.238" type="line"/>
      <point x="309.60400000000004" y="266.42"/>
      <point x="291.578" y="252.724"/>
      <point x="268.022" y="252.724" type="curve" smooth="yes"/>
      <point x="209.06" y="252.724"/>
      <point x="193.17799999999997" y="365.46"/>
      <point x="130.82" y="365.46" type="curve" smooth="yes"/>
      <point x="105.33" y="365.46"/>
      <point x="86.09599999999999" y="352.582"/>
      <point x="67.848" y="331.75" type="curve"/>
      <point x="61.85" y="294.06" type="line"/>
      <point x="81.712" y="317.0"/>
      <point x="100.148" y="332.248"/>
      <point x="124.64" y="332.248" type="curve" smooth="yes"/>
      <point x="179.928" y="332.248"/>
      <point x="196.248" y="219.512"/>
      <point x="262.894" y="219.512" type="curve" smooth="yes"/>
      <point x="288.49199999999996" y="219.512"/>
      <point x="305.642" y="231.168"/>
    </contour>
  </outline>
</glyph>
<glyph name="cent" format="2">
  <advance width="419.32800000000003"/>
  <unicode hex="00A2"/>
  <outline>
    <contour>
      <point x="169.88600000000002" y="-105.054" type="line"/>
      <point x="200.072" y="-105.054" type="line"/>
      <point x="215.162" y="-9.224" type="line"/>
      <point x="254.20200000000003" y="-7.262"/>
      <point x="287.76599999999996" y="-1.0620000000000003"/>
      <point x="308.524" y="5.716000000000001" type="curve"/>
      <point x="305.43" y="36.734" type="line"/>
      <point x="282.68" y="30.116"/>
      <point x="243.156" y="23.113999999999997"/>
      <point x="215.77" y="23.113999999999997" type="curve" smooth="yes"/>
      <point x="142.392" y="23.113999999999997"/>
      <point x="111.37599999999999" y="69.08"/>
      <point x="111.37599999999999" y="150.73" type="curve" smooth="yes"/>
      <point x="111.37599999999999" y="349.96399999999994"/>
      <point x="188.848" y="507.068"/>
      <point x="292.802" y="507.068" type="curve" smooth="yes"/>
      <point x="323.062" y="507.068"/>
      <point x="348.868" y="500.992"/>
      <point x="371.69599999999997" y="494.048" type="curve"/>
      <point x="383.032" y="527.4240000000001" type="line"/>
      <point x="359.35999999999996" y="534.2959999999999"/>
      <point x="335.706" y="539.732"/>
      <point x="306.692" y="540.7120000000001" type="curve"/>
      <point x="322.52799999999996" y="636.7280000000001" type="line"/>
      <point x="292.34200000000004" y="636.7280000000001" type="line"/>
      <point x="276.308" y="539.18" type="line"/>
      <point x="157.406" y="527.596"/>
      <point x="76.24799999999999" y="360.62600000000003"/>
      <point x="76.24799999999999" y="141.81" type="curve" smooth="yes"/>
      <point x="76.24799999999999" y="36.884"/>
      <point x="123.682" y="-1.2480000000000004"/>
      <point x="184.174" y="-7.686000000000001" type="curve"/>
    </contour>
  </outline>
</glyph>
<glyph name="sterling" format="2">
  <advance width="419.43600000000004"/>
  <unicode hex="00A3"/>
  <outline>
    <contour>
      <point x="37.29600000000001" y="0.0" type="line"/>
      <point x="325.08" y="0.0" type="line"/>
      <point x="330.15" y="33.230000000000004" type="line"/>
      <point x="83.752" y="33.230000000000004" type="line"/>
      <point x="150.33200000000002" y="110.50800000000001"/>
      <point x="190.22" y="180.95600000000002"/>
      <point x="190.22" y="287.678" type="curve" smooth="yes"/>
      <point x="190.22" y="350.92"/>
      <point x="167.104" y="403.62399999999997"/>
      <point x="167.104" y="466.88200000000006" type="curve" smooth="yes"/>
      <point x="167.104" y="616.956"/>
      <point x="242.948" y="675.658"/>
      <point x="311.836" y="675.658" type="curve" smooth="yes"/>
      <point x="346.78799999999995" y="675.658"/>
      <point x="379.38" y="669.928"/>
      <point x="413.914" y="655.9440000000001" type="curve"/>
      <point x="427.038" y="686.74" type="line"/>
      <point x="392.81" y="702.386"/>
      <point x="352.17999999999995" y="710.0"/>
      <point x="318.586" y="710.0" type="curve" smooth="yes"/>
      <point x="214.89000000000001" y="710.0"/>
      <point x="134.17999999999998" y="632.0240000000001"/>
      <point x="134.17999999999998" y="473.042" type="curve" smooth="yes"/>
      <point x="134.17999999999998" y="390.646"/>
      <point x="157.27" y="355.454"/>
      <point x="157.27" y="281.524" type="curve" smooth="yes"/>
      <point x="157.27" y="173.082"/>
      <point x="106.28600000000002" y="104.522"/>
      <point x="39.588" y="29.63" type="curve"/>
    </contour>
    <contour>
      <point x="75.64" y="357.196" type="line"/>
      <point x="343.978" y="357.524" type="line"/>
      <point x="348.41800000000006" y="386.456" type="line"/>
      <point x="80.17" y="386.456" type="line"/>
    </contour>
  </outline>
</glyph>
<glyph name="currency" format="2">
  <advance width="387.40200000000004"/>
  <unicode hex="00A4"/>
  <outline>
    <contour>
      <point x="31.62" y="111.308" type="line"/>
      <point x="109.492" y="184.72400000000002" type="line"/>
      <point x="125.918" y="166.344"/>
      <point x="149.368" y="156.316"/>
      <point x="177.62199999999999" y="156.316" type="curve" smooth="yes"/>
      <point x="205.586" y="156.316"/>
      <point x="232.804" y="166.52599999999998"/>
      <point x="255.472" y="184.67000000000002" type="curve"/>
      <point x="310.35600000000005" y="111.308" type="line"/>
      <point x="335.298" y="134.272" type="line"/>
      <point x="280.75" y="206.554" type="line"/>
      <point x="305.822" y="233.72799999999998"/>
      <point x="322.634" y="271.512"/>
      <point x="322.778" y="312.462" type="curve" smooth="yes"/>
      <point x="322.922" y="335.146"/>
      <point x="317.444" y="355.53599999999994"/>
      <point x="307.34400000000005" y="372.81399999999996" type="curve"/>
      <point x="384.282" y="445.096" type="line"/>
      <point x="366.93" y="468.06" type="line"/>
      <point x="288.984" y="394.914" type="line"/>
      <point x="271.97599999999994" y="413.24"/>
      <point x="248.144" y="424.25"/>
      <point x="220.09" y="424.25" type="curve" smooth="yes"/>
      <point x="191.76399999999998" y="424.25"/>
      <point x="164.602" y="413.16799999999995"/>
      <point x="141.826" y="394.86" type="curve"/>
      <point x="88.17600000000002" y="468.06" type="line"/>
      <point x="64.54599999999999" y="445.096" type="line"/>
      <point x="116.854" y="373.27200000000005" type="line"/>
      <point x="91.70800000000001" y="345.768"/>
      <point x="75.878" y="308.892"/>
      <point x="75.73400000000001" y="268.34000000000003" type="curve" smooth="yes"/>
      <point x="75.59" y="244.51"/>
      <point x="80.99600000000001" y="223.338"/>
      <point x="91.114" y="205.914" type="curve"/>
      <point x="15.544" y="134.272" type="line"/>
    </contour>
    <contour>
      <point x="182.98999999999998" y="185.136" type="curve" smooth="yes"/>
      <point x="135.97799999999998" y="185.136"/>
      <point x="102.80799999999999" y="222.45399999999998"/>
      <point x="103.02399999999999" y="271.794" type="curve" smooth="yes"/>
      <point x="103.24" y="338.77"/>
      <point x="158.774" y="395.358"/>
      <point x="215.68599999999998" y="395.358" type="curve" smooth="yes"/>
      <point x="263.444" y="395.358"/>
      <point x="295.814" y="357.97"/>
      <point x="295.598" y="308.24600000000004" type="curve" smooth="yes"/>
      <point x="295.382" y="241.79999999999998"/>
      <point x="240.958" y="185.136"/>
    </contour>
  </outline>
</glyph>
<glyph name="yen" format="2">
  <advance width="419.6"/>
  <unicode hex="00A5"/>
  <outline>
    <contour>
      <point x="94.16" y="356.18" type="line"/>
      <point x="208.17" y="356.18" type="line"/>
      <point x="187.51000000000002" y="227.62" type="line"/>
      <point x="74.91" y="227.62" type="line"/>
      <point x="69.65" y="199.89" type="line"/>
      <point x="183.16000000000003" y="199.89" type="line"/>
      <point x="151.60999999999999" y="0.0" type="line"/>
      <point x="185.35999999999999" y="0.0" type="line"/>
      <point x="217.0" y="199.89" type="line"/>
      <point x="334.33" y="199.89" type="line"/>
      <point x="338.59" y="227.62" type="line"/>
      <point x="221.26" y="227.62" type="line"/>
      <point x="241.92" y="356.18" type="line"/>
      <point x="358.43" y="356.18" type="line"/>
      <point x="363.6" y="384.14" type="line"/>
      <point x="247.68" y="384.14" type="line"/>
      <point x="425.71000000000004" y="699.18" type="line"/>
      <point x="392.7" y="707.28" type="line"/>
      <point x="235.79000000000002" y="419.05" type="line"/>
      <point x="162.72" y="702.73" type="line"/>
      <point x="128.39" y="698.68" type="line"/>
      <point x="212.52" y="384.14" type="line"/>
      <point x="99.42" y="384.14" type="line"/>
    </contour>
  </outline>
</glyph>
<glyph name="brokenbar" format="2">
  <advance width="151.076"/>
  <unicode hex="00A6"/>
  <outline>
    <contour>
      <point x="108.42" y="391.0" type="line"/>
      <point x="172.582" y="790.072" type="line"/>
      <point x="142.252" y="790.072" type="line"/>
      <point x="78.09" y="391.0" type="line"/>
    </contour>
    <contour>
      <point x="46.856" y="190.072" type="line"/>
      <point x="-16.505999999999997" y="-210.0" type="line"/>
      <point x="13.806000000000003" y="-210.0" type="line"/>
      <point x="77.24" y="190.072" type="line"/>
    </contour>
  </outline>
</glyph>
<glyph name="section" format="2">
  <advance width="393.00600000000003"/>
  <unicode hex="00A7"/>
  <outline>
    <contour>
      <point x="0.692" y="-142.672" type="curve"/>
      <point x="-18.862" y="-174.242" type="line"/>
      <point x="16.214" y="-206.018"/>
      <point x="49.192" y="-220.0"/>
      <point x="94.4" y="-220.0" type="curve" smooth="yes"/>
      <point x="225.55" y="-220.0"/>
      <point x="339.262" y="-62.464000000000006"/>
      <point x="339.262" y="135.556" type="curve" smooth="yes"/>
      <point x="339.262" y="313.692"/>
      <point x="237.214" y="431.37"/>
      <point x="237.214" y="584.254" type="curve" smooth="yes"/>
      <point x="237.214" y="657.816"/>
      <point x="268.954" y="711.638"/>
      <point x="321.064" y="711.638" type="curve" smooth="yes"/>
      <point x="337.988" y="711.638"/>
      <point x="352.696" y="706.692"/>
      <point x="369.318" y="698.8" type="curve"/>
      <point x="384.34000000000003" y="734.046" type="line"/>
      <point x="360.728" y="744.2479999999999"/>
      <point x="330.614" y="749.072"/>
      <point x="303.002" y="749.072" type="curve" smooth="yes"/>
      <point x="165.27200000000002" y="749.072"/>
      <point x="57.348000000000006" y="602.806"/>
      <point x="57.348000000000006" y="400.02" type="curve" smooth="yes"/>
      <point x="57.348000000000006" y="205.06"/>
      <point x="157.238" y="72.37400000000001"/>
      <point x="157.238" y="-64.78399999999999" type="curve" smooth="yes"/>
      <point x="157.238" y="-134.03199999999998"/>
      <point x="120.74" y="-181.85399999999998"/>
      <point x="74.504" y="-181.85399999999998" type="curve" smooth="yes"/>
      <point x="47.706" y="-181.85399999999998"/>
      <point x="20.336" y="-165.47000000000003"/>
    </contour>
    <contour>
      <point x="267.33399999999995" y="718.0939999999999" type="curve"/>
      <point x="230.09799999999998" y="692.2719999999999"/>
      <point x="210.098" y="638.346"/>
      <point x="210.098" y="584.446" type="curve" smooth="yes"/>
      <point x="210.098" y="411.322"/>
      <point x="310.534" y="304.35"/>
      <point x="310.534" y="121.666" type="curve" smooth="yes"/>
      <point x="310.534" y="-33.312"/>
      <point x="220.404" y="-178.818"/>
      <point x="121.856" y="-189.602" type="curve"/>
      <point x="164.46800000000002" y="-160.94"/>
      <point x="185.42600000000002" y="-109.786"/>
      <point x="185.42600000000002" y="-55.482" type="curve" smooth="yes"/>
      <point x="185.42600000000002" y="86.724"/>
      <point x="86.684" y="226.93"/>
      <point x="86.684" y="395.81" type="curve" smooth="yes"/>
      <point x="86.684" y="562.908"/>
      <point x="154.728" y="690.64"/>
    </contour>
  </outline>
</glyph>
<glyph name="copyright" format="2">
  <advance width="475.51599999999996"/>
  <unicode hex="00A9"/>
  <outline>
    <contour>
      <point x="203.612" y="-10.036000000000001" type="curve" smooth="yes"/>
      <point x="372.456" y="-10.107999999999999"/>
      <point x="454.548" y="262.736"/>
      <point x="454.548" y="505.47600000000006" type="curve" smooth="yes"/>
      <point x="454.548" y="638.992"/>
      <point x="400.052" y="711.248"/>
      <point x="296.512" y="711.32" type="curve" smooth="yes"/>
      <point x="127.456" y="711.3919999999999"/>
      <point x="44.895999999999994" y="438.90799999999996"/>
      <point x="44.895999999999994" y="195.84400000000002" type="curve" smooth="yes"/>
      <point x="44.895999999999994" y="62.43599999999999"/>
      <point x="99.32000000000001" y="-9.964"/>
    </contour>
    <contour>
      <point x="235.88400000000001" y="165.57199999999997" type="curve" smooth="yes"/>
      <point x="256.432" y="165.57199999999997"/>
      <point x="280.15999999999997" y="170.004"/>
      <point x="297.02399999999994" y="175.332" type="curve"/>
      <point x="295.77199999999993" y="201.0" type="line"/>
      <point x="281.696" y="196.32"/>
      <point x="259.196" y="193.212"/>
      <point x="241.30400000000003" y="193.212" type="curve" smooth="yes"/>
      <point x="202.416" y="193.212"/>
      <point x="180.24" y="223.17200000000003"/>
      <point x="180.24" y="269.28000000000003" type="curve" smooth="yes"/>
      <point x="180.24" y="381.50399999999996"/>
      <point x="226.40400000000002" y="494.61199999999997"/>
      <point x="287.35999999999996" y="494.61199999999997" type="curve" smooth="yes"/>
      <point x="305.86" y="494.61199999999997"/>
      <point x="320.896" y="493.03999999999996"/>
      <point x="337.468" y="487.53999999999996" type="curve"/>
      <point x="345.988" y="515.004" type="line"/>
      <point x="329.38" y="520.72"/>
      <point x="310.516" y="523.188"/>
      <point x="289.21599999999995" y="523.188" type="curve" smooth="yes"/>
      <point x="212.93999999999997" y="523.188"/>
      <point x="152.268" y="409.764"/>
      <point x="152.268" y="269.456" type="curve" smooth="yes"/>
      <point x="152.268" y="201.484"/>
      <point x="181.608" y="165.57199999999997"/>
    </contour>
    <contour>
      <point x="205.18800000000002" y="12.604000000000001" type="curve" smooth="yes"/>
      <point x="114.952" y="12.604000000000001"/>
      <point x="68.50399999999999" y="75.48800000000001"/>
      <point x="68.50399999999999" y="199.592" type="curve" smooth="yes"/>
      <point x="68.50399999999999" y="420.96"/>
      <point x="141.22" y="688.7159999999999"/>
      <point x="294.508" y="688.7159999999999" type="curve" smooth="yes"/>
      <point x="384.38399999999996" y="688.7159999999999"/>
      <point x="430.94" y="625.7959999999999"/>
      <point x="430.94" y="501.764" type="curve" smooth="yes"/>
      <point x="430.94" y="280.468"/>
      <point x="358.404" y="12.604000000000001"/>
    </contour>
  </outline>
</glyph>
<glyph name="ordfeminine" format="2">
  <advance width="268.312"/>
  <unicode hex="00AA"/>
  <outline>
    <contour>
      <point x="41.786" y="290.31800000000004" type="line"/>
      <point x="233.73000000000002" y="290.31800000000004" type="line"/>
      <point x="237.77400000000003" y="313.864" type="line"/>
      <point x="45.83" y="313.864" type="line"/>
    </contour>
    <component base="a.superior" xOffset="11.276"/>
  </outline>
</glyph>
<glyph name="logicalnot" format="2">
  <advance width="381.36"/>
  <unicode hex="00AC"/>
  <outline>
    <contour>
      <point x="62.577999999999996" y="377.338" type="line"/>
      <point x="319.12" y="377.338" type="line"/>
      <point x="287.688" y="176.69400000000002" type="line"/>
      <point x="319.21400000000006" y="176.69400000000002" type="line"/>
      <point x="355.78799999999995" y="408.208" type="line"/>
      <point x="67.72" y="408.208" type="line"/>
    </contour>
  </outline>
</glyph>
<glyph name="registered" format="2">
  <advance width="432.24"/>
  <unicode hex="00AE"/>
  <outline>
    <contour>
      <point x="212.12400000000002" y="208.928" type="curve" smooth="yes"/>
      <point x="349.64" y="208.928"/>
      <point x="444.88" y="442.90000000000003"/>
      <point x="444.88" y="711.912" type="curve" smooth="yes"/>
      <point x="444.88" y="830.8519999999999"/>
      <point x="398.41999999999996" y="893.9280000000001"/>
      <point x="307.044" y="893.9280000000001" type="curve" smooth="yes"/>
      <point x="169.528" y="893.9280000000001"/>
      <point x="75.32400000000001" y="659.456"/>
      <point x="75.32400000000001" y="390.944" type="curve" smooth="yes"/>
      <point x="75.32400000000001" y="272.03999999999996"/>
      <point x="120.71199999999999" y="208.928"/>
    </contour>
    <contour>
      <point x="212.7" y="228.99599999999998" type="curve" smooth="yes"/>
      <point x="134.66400000000002" y="228.99599999999998"/>
      <point x="96.96400000000001" y="286.56"/>
      <point x="96.96400000000001" y="392.12" type="curve" smooth="yes"/>
      <point x="96.96400000000001" y="643.872"/>
      <point x="182.58" y="873.396"/>
      <point x="306.504" y="873.396" type="curve" smooth="yes"/>
      <point x="384.53999999999996" y="873.396"/>
      <point x="423.23999999999995" y="816.2959999999999"/>
      <point x="423.23999999999995" y="710.236" type="curve" smooth="yes"/>
      <point x="423.23999999999995" y="458.484"/>
      <point x="336.588" y="228.99599999999998"/>
    </contour>
    <contour>
      <point x="167.176" y="400.56800000000004" type="line"/>
      <point x="192.852" y="400.56800000000004" type="line"/>
      <point x="214.528" y="533.948" type="line"/>
      <point x="231.87199999999999" y="532.128"/>
      <point x="245.97199999999998" y="530.272"/>
      <point x="269.312" y="531.2" type="curve"/>
      <point x="279.90000000000003" y="534.924" type="line"/>
      <point x="329.53200000000004" y="548.0920000000001"/>
      <point x="352.28" y="592.068"/>
      <point x="352.28" y="647.18" type="curve" smooth="yes"/>
      <point x="352.28" y="703.48"/>
      <point x="328.908" y="721.856"/>
      <point x="279.628" y="721.856" type="curve" smooth="yes"/>
      <point x="255.976" y="721.856"/>
      <point x="239.208" y="720.284"/>
      <point x="217.188" y="716.2479999999999" type="curve"/>
    </contour>
    <contour>
      <point x="256.656" y="553.6080000000001" type="curve" smooth="yes"/>
      <point x="241.988" y="553.6080000000001"/>
      <point x="230.888" y="555.036"/>
      <point x="218.036" y="556.0" type="curve"/>
      <point x="239.21200000000002" y="694.6560000000001" type="line"/>
      <point x="255.24399999999997" y="697.012"/>
      <point x="262.42" y="698.012"/>
      <point x="278.94800000000004" y="698.012" type="curve" smooth="yes"/>
      <point x="313.00399999999996" y="698.012"/>
      <point x="327.4959999999999" y="682.944"/>
      <point x="327.4959999999999" y="647.46" type="curve" smooth="yes"/>
      <point x="327.4959999999999" y="586.616"/>
      <point x="304.10799999999995" y="553.6080000000001"/>
    </contour>
    <contour>
      <point x="325.992" y="397.78000000000003" type="curve" smooth="yes"/>
      <point x="328.35200000000003" y="397.78000000000003"/>
      <point x="332.504" y="398.42400000000004"/>
      <point x="335.472" y="399.64000000000004" type="curve"/>
      <point x="338.124" y="425.568" type="line"/>
      <point x="336.05199999999996" y="424.212"/>
      <point x="334.052" y="424.212"/>
      <point x="332.944" y="424.212" type="curve" smooth="yes"/>
      <point x="315.764" y="424.212"/>
      <point x="302.508" y="457.556"/>
      <point x="287.048" y="546.548" type="curve"/>
      <point x="263.12800000000004" y="541.172" type="line"/>
      <point x="282.82" y="420.24"/>
      <point x="299.90399999999994" y="397.78000000000003"/>
    </contour>
  </outline>
</glyph>
<glyph name="degree" format="2">
  <advance width="222.22"/>
  <unicode hex="00B0"/>
  <outline>
    <contour>
      <point x="147.64" y="505.564" type="curve" smooth="yes"/>
      <point x="206.364" y="505.564"/>
      <point x="248.408" y="570.4520000000001"/>
      <point x="248.408" y="641.9159999999999" type="curve" smooth="yes"/>
      <point x="248.408" y="689.984"/>
      <point x="225.98" y="726.344"/>
      <point x="182.13199999999998" y="726.344" type="curve" smooth="yes"/>
      <point x="122.22399999999999" y="726.344"/>
      <point x="81.328" y="658.524"/>
      <point x="81.328" y="587.424" type="curve" smooth="yes"/>
      <point x="81.328" y="540.724"/>
      <point x="103.352" y="505.564"/>
    </contour>
    <contour>
      <point x="152.07999999999998" y="535.716" type="curve" smooth="yes"/>
      <point x="122.336" y="535.716"/>
      <point x="108.45600000000002" y="559.5840000000001"/>
      <point x="108.45600000000002" y="592.2359999999999" type="curve" smooth="yes"/>
      <point x="108.45600000000002" y="645.7199999999999"/>
      <point x="136.056" y="695.9040000000001"/>
      <point x="177.58399999999997" y="695.9040000000001" type="curve" smooth="yes"/>
      <point x="207.92799999999997" y="695.9040000000001"/>
      <point x="221.444" y="670.416"/>
      <point x="221.444" y="637.6360000000001" type="curve" smooth="yes"/>
      <point x="221.444" y="584.06"/>
      <point x="193.572" y="535.716"/>
    </contour>
  </outline>
</glyph>
<glyph name="plusminus" format="2">
  <advance width="382.852"/>
  <unicode hex="00B1"/>
  <outline>
    <contour>
      <point x="305.75600000000003" y="67.322" type="line"/>
      <point x="310.898" y="99.64" type="line"/>
      <point x="179.378" y="99.64" type="line"/>
      <point x="210.468" y="295.00399999999996" type="line"/>
      <point x="341.26000000000005" y="295.00399999999996" type="line"/>
      <point x="346.40200000000004" y="327.32200000000006" type="line"/>
      <point x="215.60999999999999" y="327.32200000000006" type="line"/>
      <point x="247.008" y="507.77" type="line"/>
      <point x="215.41" y="507.77" type="line"/>
      <point x="184.70399999999998" y="327.32200000000006" type="line"/>
      <point x="52.51" y="327.32200000000006" type="line"/>
      <point x="47.368" y="295.00399999999996" type="line"/>
      <point x="178.87" y="295.00399999999996" type="line"/>
      <point x="147.744" y="99.64" type="line"/>
      <point x="17.006" y="99.64" type="line"/>
      <point x="11.864000000000003" y="67.322" type="line"/>
    </contour>
  </outline>
</glyph>
<glyph name="uni00B2" format="2">
  <advance width="273.01"/>
  <unicode hex="00B2"/>
  <outline>
    <contour>
      <point x="56.52" y="367.716" type="line"/>
      <point x="243.38199999999998" y="367.716" type="line"/>
      <point x="246.196" y="391.106" type="line"/>
      <point x="92.872" y="391.106" type="line"/>
      <point x="178.986" y="495.344"/>
      <point x="263.362" y="601.312"/>
      <point x="263.362" y="700.804" type="curve" smooth="yes"/>
      <point x="263.362" y="746.316"/>
      <point x="240.378" y="772.626"/>
      <point x="197.736" y="772.626" type="curve" smooth="yes"/>
      <point x="168.31" y="772.626"/>
      <point x="137.57799999999997" y="760.748"/>
      <point x="111.98" y="738.284" type="curve"/>
      <point x="122.042" y="717.752" type="line"/>
      <point x="148.18200000000002" y="738.8159999999999"/>
      <point x="168.182" y="746.316"/>
      <point x="191.42999999999998" y="746.316" type="curve" smooth="yes"/>
      <point x="220.886" y="746.316"/>
      <point x="236.328" y="726.162"/>
      <point x="236.328" y="691.926" type="curve" smooth="yes"/>
      <point x="235.4" y="604.12"/>
      <point x="151.15200000000002" y="492.59999999999997"/>
      <point x="57.262" y="387.404" type="curve"/>
    </contour>
  </outline>
</glyph>
<glyph name="uni00B3" format="2">
  <advance width="271.89500000000004"/>
  <unicode hex="00B3"/>
  <outline>
    <contour>
      <point x="44.46" y="397.09499999999997" type="line"/>
      <point x="66.085" y="374.545"/>
      <point x="97.715" y="364.09000000000003"/>
      <point x="130.06" y="364.09000000000003" type="curve" smooth="yes"/>
      <point x="213.42499999999998" y="364.09000000000003"/>
      <point x="259.60499999999996" y="427.93499999999995"/>
      <point x="259.60499999999996" y="506.325" type="curve" smooth="yes"/>
      <point x="259.60499999999996" y="542.9549999999999"/>
      <point x="244.385" y="570.37"/>
      <point x="220.66" y="578.365" type="curve"/>
      <point x="251.51000000000002" y="593.7650000000001"/>
      <point x="276.55" y="635.64"/>
      <point x="276.55" y="687.82" type="curve" smooth="yes"/>
      <point x="276.55" y="741.365"/>
      <point x="244.705" y="773.2249999999999"/>
      <point x="192.595" y="773.2249999999999" type="curve" smooth="yes"/>
      <point x="165.79999999999998" y="773.2249999999999"/>
      <point x="138.50500000000002" y="767.505"/>
      <point x="111.10000000000001" y="750.825" type="curve"/>
      <point x="120.46000000000001" y="731.0749999999999" type="line"/>
      <point x="142.735" y="743.49"/>
      <point x="166.36499999999998" y="748.49"/>
      <point x="188.13500000000002" y="748.49" type="curve" smooth="yes"/>
      <point x="225.23000000000002" y="748.49"/>
      <point x="249.83" y="726.115"/>
      <point x="249.83" y="682.085" type="curve" smooth="yes"/>
      <point x="249.83" y="627.73"/>
      <point x="218.82" y="588.34"/>
      <point x="181.59" y="588.34" type="curve" smooth="yes"/>
      <point x="133.81" y="588.34" type="line"/>
      <point x="130.64000000000001" y="567.4" type="line"/>
      <point x="178.875" y="567.4" type="line" smooth="yes"/>
      <point x="214.37" y="567.4"/>
      <point x="234.65" y="547.5749999999999"/>
      <point x="234.65" y="503.4549999999999" type="curve" smooth="yes"/>
      <point x="234.65" y="443.78000000000003"/>
      <point x="198.955" y="388.33"/>
      <point x="129.47" y="388.33" type="curve" smooth="yes"/>
      <point x="101.605" y="388.33"/>
      <point x="78.97" y="397.425"/>
      <point x="60.199999999999996" y="416.07" type="curve"/>
    </contour>
  </outline>
</glyph>
<glyph name="uni00B5" format="2">
  <advance width="380.49399999999997"/>
  <unicode hex="00B5"/>
  <outline>
    <contour>
      <point x="-15.966" y="-210.0" type="line"/>
      <point x="17.21" y="-210.0" type="line"/>
      <point x="54.87" y="28.438000000000002" type="line"/>
      <point x="64.768" y="2.9400000000000004"/>
      <point x="88.08000000000001" y="-10.0"/>
      <point x="121.83800000000001" y="-10.0" type="curve" smooth="yes"/>
      <point x="166.586" y="-10.0"/>
      <point x="205.42999999999998" y="5.056"/>
      <point x="251.43" y="34.43" type="curve"/>
      <point x="254.856" y="3.7700000000000005"/>
      <point x="273.004" y="-10.0"/>
      <point x="299.932" y="-10.0" type="curve" smooth="yes"/>
      <point x="310.236" y="-10.0"/>
      <point x="330.364" y="-5.534"/>
      <point x="343.754" y="1.7459999999999998" type="curve"/>
      <point x="341.116" y="28.1" type="line"/>
      <point x="329.382" y="23.406000000000002"/>
      <point x="317.156" y="20.676000000000002"/>
      <point x="310.588" y="20.676000000000002" type="curve" smooth="yes"/>
      <point x="290.612" y="20.676000000000002"/>
      <point x="283.482" y="31.881999999999998"/>
      <point x="283.482" y="51.544" type="curve" smooth="yes"/>
      <point x="283.482" y="62.532"/>
      <point x="285.93800000000005" y="84.00000000000001"/>
      <point x="357.406" y="531.8" type="curve"/>
      <point x="323.35599999999994" y="531.8" type="line"/>
      <point x="250.29" y="62.69200000000001" type="line"/>
      <point x="206.984" y="35.362"/>
      <point x="164.062" y="21.151999999999997"/>
      <point x="127.87400000000001" y="21.151999999999997" type="curve" smooth="yes"/>
      <point x="85.88199999999999" y="21.151999999999997"/>
      <point x="64.832" y="43.53000000000001"/>
      <point x="64.976" y="79.15" type="curve" smooth="yes"/>
      <point x="66.63199999999999" y="103.658"/>
      <point x="84.962" y="223.604"/>
      <point x="133.568" y="531.8" type="curve"/>
      <point x="99.62800000000001" y="531.8" type="line"/>
    </contour>
  </outline>
</glyph>
<glyph name="paragraph" format="2">
  <advance width="440.112"/>
  <unicode hex="00B6"/>
  <outline>
    <contour>
      <point x="275.308" y="-210.0" type="line"/>
      <point x="304.34200000000004" y="-210.0" type="line"/>
      <point x="454.576" y="740.0" type="line"/>
      <point x="425.54200000000003" y="740.0" type="line"/>
    </contour>
    <contour>
      <point x="174.38" y="212.298" type="line"/>
      <point x="113.988" y="224.724"/>
      <point x="80.47800000000001" y="281.84599999999995"/>
      <point x="80.47800000000001" y="367.416" type="curve" smooth="yes"/>
      <point x="80.47800000000001" y="542.798"/>
      <point x="158.37800000000001" y="703.754"/>
      <point x="297.534" y="708.812" type="curve"/>
      <point x="152.568" y="-210.0" type="line"/>
      <point x="181.602" y="-210.0" type="line"/>
      <point x="331.83599999999996" y="740.0" type="line"/>
      <point x="311.416" y="740.0" type="line" smooth="yes"/>
      <point x="144.63" y="740.0"/>
      <point x="49.388" y="562.5519999999999"/>
      <point x="49.388" y="365.42400000000004" type="curve" smooth="yes"/>
      <point x="49.388" y="266.986"/>
      <point x="89.61800000000001" y="199.478"/>
      <point x="166.32" y="183.356" type="curve"/>
    </contour>
  </outline>
</glyph>
<glyph name="periodcentered" format="2">
  <advance width="125.35000000000001"/>
  <unicode hex="00B7"/>
  <outline>
    <contour>
      <point x="42.45099999999999" y="285.98699999999997" type="curve" smooth="yes"/>
      <point x="40.795" y="269.297"/>
      <point x="44.582" y="264.46500000000003"/>
      <point x="60.529" y="264.46500000000003" type="curve" smooth="yes"/>
      <point x="80.57800000000002" y="264.46500000000003"/>
      <point x="84.50300000000001" y="273.025"/>
      <point x="86.48700000000001" y="295.16799999999995" type="curve" smooth="yes"/>
      <point x="88.14300000000001" y="311.06699999999995"/>
      <point x="84.96700000000001" y="316.59999999999997"/>
      <point x="69.155" y="316.59999999999997" type="curve" smooth="yes"/>
      <point x="49.330999999999996" y="316.59999999999997"/>
      <point x="44.435" y="308.03999999999996"/>
    </contour>
  </outline>
</glyph>
<glyph name="uni00B9" format="2">
  <advance width="267.726"/>
  <unicode hex="00B9"/>
  <outline>
    <contour>
      <point x="44.348" y="370.0" type="line"/>
      <point x="257.664" y="370.0" type="line"/>
      <point x="261.068" y="393.91" type="line"/>
      <point x="174.456" y="393.91" type="line"/>
      <point x="234.9" y="769.3840000000001" type="line"/>
      <point x="219.276" y="769.3840000000001" type="line"/>
      <point x="94.96800000000002" y="694.0219999999999" type="line"/>
      <point x="101.552" y="671.0360000000001" type="line"/>
      <point x="202.23200000000003" y="731.8639999999999" type="line"/>
      <point x="147.862" y="393.91" type="line"/>
      <point x="48.153999999999996" y="393.91" type="line"/>
    </contour>
  </outline>
</glyph>
<glyph name="ordmasculine" format="2">
  <advance width="256.234"/>
  <unicode hex="00BA"/>
  <outline>
    <contour>
      <point x="40.366" y="290.31800000000004" type="line"/>
      <point x="215.75199999999998" y="290.31800000000004" type="line"/>
      <point x="219.068" y="313.864" type="line"/>
      <point x="43.682" y="313.864" type="line"/>
    </contour>
    <component base="o.superior" xOffset="15.280000000000001"/>
  </outline>
</glyph>
<glyph name="AE" format="2">
  <advance width="604.5289999999999"/>
  <unicode hex="00C6"/>
  <anchor x="271.138796" y="0.0" name="bottom"/>
  <anchor x="388.039" y="700.0" name="top"/>
  <outline>
    <contour>
      <point x="249.041" y="0.0" type="line"/>
      <point x="540.2620000000001" y="0.0" type="line"/>
      <point x="545.422" y="32.815" type="line"/>
      <point x="288.00600000000003" y="32.815" type="line"/>
      <point x="334.573" y="330.552" type="line"/>
      <point x="557.436" y="330.552" type="line"/>
      <point x="562.686" y="362.91700000000003" type="line"/>
      <point x="339.778" y="362.91700000000003" type="line"/>
      <point x="387.94" y="666.96" type="line"/>
      <point x="632.7739999999999" y="666.96" type="line"/>
      <point x="638.8149999999999" y="700.0" type="line"/>
      <point x="337.16700000000003" y="700.0" type="line"/>
      <point x="-37.302" y="0.0" type="line"/>
      <point x="1.4669999999999996" y="0.0" type="line"/>
      <point x="171.009" y="315.792" type="line"/>
      <point x="298.33799999999997" y="315.792" type="line"/>
    </contour>
    <contour>
      <point x="186.692" y="347.887" type="line"/>
      <point x="353.479" y="666.7020000000001" type="line"/>
      <point x="303.408" y="347.887" type="line"/>
    </contour>
  </outline>
</glyph>
<glyph name="multiply" format="2">
  <advance width="364.972"/>
  <unicode hex="00D7"/>
  <outline>
    <contour>
      <point x="46.888000000000005" y="83.25500000000001" type="line"/>
      <point x="180.835" y="263.27799999999996" type="line"/>
      <point x="256.33399999999995" y="84.23900000000002" type="line"/>
      <point x="283.009" y="104.40899999999999" type="line"/>
      <point x="204.04999999999998" y="292.111" type="line"/>
      <point x="345.856" y="482.739" type="line"/>
      <point x="324.106" y="502.8929999999999" type="line"/>
      <point x="188.78899999999996" y="321.55799999999994" type="line"/>
      <point x="112.11" y="502.893" type="line"/>
      <point x="85.39" y="482.903" type="line"/>
      <point x="164.78300000000002" y="293.246" type="line"/>
      <point x="25.093" y="103.31899999999999" type="line"/>
    </contour>
  </outline>
</glyph>
<glyph name="Oslash" format="2">
  <advance width="471.1"/>
  <unicode hex="00D8"/>
  <anchor x="294.78" y="700.0" name="top"/>
  <outline>
    <contour>
      <point x="496.86" y="710.0" type="line"/>
      <point x="463.88" y="710.0" type="line"/>
      <point x="408.93" y="632.88" type="line"/>
      <point x="407.07000000000005" y="633.0600000000001" type="line"/>
      <point x="74.19" y="97.47999999999999" type="line"/>
      <point x="72.42" y="97.75" type="line"/>
      <point x="-0.8799999999999997" y="-9.1" type="line"/>
      <point x="31.779999999999998" y="-9.1" type="line"/>
      <point x="87.42" y="69.26" type="line"/>
      <point x="89.28" y="69.08000000000001" type="line"/>
      <point x="423.02" y="605.06" type="line"/>
      <point x="424.79" y="604.79" type="line"/>
    </contour>
    <contour>
      <point x="201.49999999999997" y="-9.82" type="curve" smooth="yes"/>
      <point x="359.71" y="-9.82"/>
      <point x="456.73" y="238.37000000000003"/>
      <point x="456.73" y="495.17999999999995" type="curve" smooth="yes"/>
      <point x="456.73" y="640.75"/>
      <point x="402.15999999999997" y="709.82"/>
      <point x="294.98" y="709.82" type="curve" smooth="yes"/>
      <point x="137.22" y="709.82"/>
      <point x="39.75" y="461.71999999999997"/>
      <point x="39.75" y="204.82" type="curve" smooth="yes"/>
      <point x="39.75" y="59.16"/>
      <point x="94.32" y="-9.82"/>
    </contour>
    <contour>
      <point x="202.94000000000003" y="22.04" type="curve" smooth="yes"/>
      <point x="119.2" y="22.04"/>
      <point x="74.05" y="79.86"/>
      <point x="74.05" y="204.43" type="curve" smooth="yes"/>
      <point x="74.05" y="442.22999999999996"/>
      <point x="164.66000000000003" y="677.9599999999999"/>
      <point x="294.08" y="677.9599999999999" type="curve" smooth="yes"/>
      <point x="377.46" y="677.9599999999999"/>
      <point x="422.52000000000004" y="620.23"/>
      <point x="422.52000000000004" y="495.75000000000006" type="curve" smooth="yes"/>
      <point x="422.52000000000004" y="260.11"/>
      <point x="332.0" y="22.04"/>
    </contour>
  </outline>
</glyph>
<glyph name="Thorn" format="2">
  <advance width="404.41"/>
  <unicode hex="00DE"/>
  <outline>
    <contour>
      <point x="15.299999999999999" y="0.0" type="line"/>
      <point x="49.645" y="0.0" type="line"/>
      <point x="77.66" y="174.23" type="line"/>
      <point x="113.065" y="172.50500000000002"/>
      <point x="144.315" y="172.46"/>
      <point x="182.375" y="172.46" type="curve" smooth="yes"/>
      <point x="317.375" y="172.46"/>
      <point x="400.355" y="274.97"/>
      <point x="400.355" y="456.49" type="curve" smooth="yes"/>
      <point x="400.355" y="556.41"/>
      <point x="352.185" y="609.66"/>
      <point x="237.51" y="609.66" type="curve" smooth="yes"/>
      <point x="216.225" y="609.66"/>
      <point x="189.985" y="608.705"/>
      <point x="144.82000000000002" y="605.52" type="curve"/>
      <point x="159.915" y="700.0" type="line"/>
      <point x="125.57000000000001" y="700.0" type="line"/>
    </contour>
    <contour>
      <point x="179.745" y="204.19" type="curve" smooth="yes"/>
      <point x="136.61999999999998" y="204.19"/>
      <point x="115.015" y="205.1"/>
      <point x="82.955" y="207.14499999999998" type="curve"/>
      <point x="140.52499999999998" y="572.655" type="line"/>
      <point x="187.41000000000003" y="576.52"/>
      <point x="211.20000000000002" y="577.52"/>
      <point x="233.34" y="577.52" type="curve" smooth="yes"/>
      <point x="326.53" y="577.52"/>
      <point x="366.055" y="537.915"/>
      <point x="366.055" y="450.40999999999997" type="curve" smooth="yes"/>
      <point x="366.055" y="296.9"/>
      <point x="299.615" y="204.19"/>
    </contour>
  </outline>
</glyph>
<glyph name="germandbls" format="2">
  <advance width="422.495"/>
  <unicode hex="00DF"/>
  <outline>
    <contour>
      <point x="26.330000000000002" y="-59.07000000000001" type="line" smooth="yes"/>
      <point x="13.46" y="-138.2"/>
      <point x="-7.455" y="-189.965"/>
      <point x="-62.49" y="-189.965" type="curve" smooth="yes"/>
      <point x="-76.90499999999999" y="-189.965"/>
      <point x="-90.0" y="-188.055"/>
      <point x="-107.59499999999998" y="-182.235" type="curve"/>
      <point x="-115.51" y="-210.875" type="line"/>
      <point x="-98.845" y="-217.54999999999998"/>
      <point x="-78.085" y="-220.0"/>
      <point x="-58.830000000000005" y="-220.0" type="curve" smooth="yes"/>
      <point x="10.305" y="-220.0"/>
      <point x="43.46" y="-165.29"/>
      <point x="59.225" y="-64.565" type="curve" smooth="yes"/>
      <point x="153.605" y="533.085" type="line" smooth="yes"/>
      <point x="173.025" y="652.875"/>
      <point x="215.115" y="718.0450000000001"/>
      <point x="299.72499999999997" y="718.0450000000001" type="curve" smooth="yes"/>
      <point x="349.28" y="718.0450000000001"/>
      <point x="376.835" y="696.94"/>
      <point x="376.835" y="651.0450000000001" type="curve" smooth="yes"/>
      <point x="376.835" y="605.56"/>
      <point x="356.735" y="577.635"/>
      <point x="296.40500000000003" y="536.885" type="curve" smooth="yes"/>
      <point x="228.59" y="490.73"/>
      <point x="198.92499999999998" y="454.01500000000004"/>
      <point x="198.92499999999998" y="387.63" type="curve" smooth="yes"/>
      <point x="198.92499999999998" y="333.57000000000005"/>
      <point x="230.41" y="295.02500000000003"/>
      <point x="292.63" y="248.68" type="curve" smooth="yes"/>
      <point x="345.54" y="210.10999999999999"/>
      <point x="364.955" y="184.275"/>
      <point x="364.955" y="138.59999999999997" type="curve" smooth="yes"/>
      <point x="364.955" y="73.37"/>
      <point x="312.7" y="22.234999999999996"/>
      <point x="237.795" y="22.234999999999996" type="curve" smooth="yes"/>
      <point x="201.79999999999998" y="22.234999999999996"/>
      <point x="161.855" y="31.554999999999996"/>
      <point x="129.85999999999999" y="45.33" type="curve"/>
      <point x="118.02499999999999" y="15.905000000000001" type="line"/>
      <point x="150.92499999999998" y="-0.13999999999999996"/>
      <point x="195.78" y="-10.0"/>
      <point x="236.16000000000003" y="-10.0" type="curve" smooth="yes"/>
      <point x="336.96000000000004" y="-10.0"/>
      <point x="399.305" y="53.315000000000005"/>
      <point x="399.305" y="143.815" type="curve" smooth="yes"/>
      <point x="399.305" y="197.29000000000002"/>
      <point x="374.32000000000005" y="231.05"/>
      <point x="312.505" y="278.16999999999996" type="curve" smooth="yes"/>
      <point x="253.73999999999998" y="324.05999999999995"/>
      <point x="231.68999999999997" y="349.765"/>
      <point x="231.68999999999997" y="392.84000000000003" type="curve" smooth="yes"/>
      <point x="231.68999999999997" y="441.285"/>
      <point x="255.37999999999997" y="469.66999999999996"/>
      <point x="317.465" y="513.9200000000001" type="curve" smooth="yes"/>
      <point x="386.835" y="562.95"/>
      <point x="410.5" y="595.845"/>
      <point x="410.5" y="655.8100000000001" type="curve" smooth="yes"/>
      <point x="410.5" y="718.6700000000001"/>
      <point x="370.64" y="750.0"/>
      <point x="300.71000000000004" y="750.0" type="curve" smooth="yes"/>
      <point x="195.66500000000002" y="750.0"/>
      <point x="143.20499999999998" y="680.375"/>
      <point x="120.57000000000001" y="537.105" type="curve" smooth="yes"/>
      <point x="113.19999999999999" y="487.285" type="line"/>
      <point x="41.405" y="480.46999999999997" type="line"/>
      <point x="36.835" y="455.40999999999997" type="line"/>
      <point x="106.9" y="455.40999999999997" type="line"/>
    </contour>
  </outline>
</glyph>
<glyph name="ae" format="2">
  <advance width="602.75"/>
  <unicode hex="00E6"/>
  <anchor x="269.53999999999996" y="0.0" name="bottom"/>
  <anchor x="342.39000000000004" y="531.8" name="top"/>
  <outline>
    <contour>
      <point x="138.18" y="-10.0" type="curve" smooth="yes"/>
      <point x="178.64000000000001" y="-10.0"/>
      <point x="214.69" y="4.550000000000001"/>
      <point x="241.0" y="24.169999999999998" type="curve"/>
      <point x="235.82" y="-6.05" type="line"/>
      <point x="267.59" y="-6.05" type="line"/>
      <point x="288.11" y="120.39" type="line"/>
      <point x="298.86" y="38.4"/>
      <point x="345.59000000000003" y="-9.82"/>
      <point x="421.44" y="-9.82" type="curve" smooth="yes"/>
      <point x="465.62" y="-9.82"/>
      <point x="515.35" y="0.9999999999999999"/>
      <point x="550.1600000000001" y="18.810000000000002" type="curve"/>
      <point x="542.0799999999999" y="47.68" type="line"/>
      <point x="502.58" y="30.68"/>
      <point x="462.2" y="21.27"/>
      <point x="424.93" y="21.27" type="curve" smooth="yes"/>
      <point x="349.59" y="21.27"/>
      <point x="305.22" y="80.57000000000001"/>
      <point x="305.22" y="179.07999999999998" type="curve" smooth="yes"/>
      <point x="305.22" y="369.78999999999996"/>
      <point x="382.5" y="511.69999999999993"/>
      <point x="492.02" y="511.69999999999993" type="curve" smooth="yes"/>
      <point x="545.38" y="511.69999999999993"/>
      <point x="570.08" y="486.63"/>
      <point x="570.08" y="443.88" type="curve" smooth="yes"/>
      <point x="570.08" y="378.21000000000004"/>
      <point x="511.18" y="319.71"/>
      <point x="418.54" y="290.88" type="curve" smooth="yes"/>
      <point x="379.2" y="277.59999999999997"/>
      <point x="336.21999999999997" y="271.37"/>
      <point x="295.93000000000006" y="270.14000000000004" type="curve"/>
      <point x="292.81" y="242.15" type="line"/>
      <point x="331.99" y="242.79"/>
      <point x="379.86" y="248.60999999999999"/>
      <point x="421.63" y="262.34000000000003" type="curve" smooth="yes"/>
      <point x="532.71" y="294.57"/>
      <point x="602.75" y="363.42"/>
      <point x="602.75" y="448.66999999999996" type="curve" smooth="yes"/>
      <point x="602.75" y="506.96"/>
      <point x="565.53" y="541.8"/>
      <point x="500.23" y="541.8" type="curve" smooth="yes"/>
      <point x="431.2" y="541.8"/>
      <point x="371.63" y="500.71999999999997"/>
      <point x="334.61999999999995" y="423.7" type="curve"/>
      <point x="353.09" y="539.8" type="line"/>
      <point x="322.09" y="539.8" type="line"/>
      <point x="319.0" y="520.26" type="line"/>
      <point x="297.36" y="534.8"/>
      <point x="269.71999999999997" y="541.8"/>
      <point x="244.09" y="541.8" type="curve" smooth="yes"/>
      <point x="118.47" y="541.8"/>
      <point x="23.150000000000002" y="386.13"/>
      <point x="23.150000000000002" y="151.94" type="curve" smooth="yes"/>
      <point x="23.150000000000002" y="46.309999999999995"/>
      <point x="64.55000000000001" y="-10.0"/>
    </contour>
    <contour>
      <point x="146.77999999999997" y="20.060000000000002" type="curve" smooth="yes"/>
      <point x="91.42" y="20.060000000000002"/>
      <point x="57.9" y="67.05"/>
      <point x="57.9" y="154.61" type="curve" smooth="yes"/>
      <point x="57.9" y="357.54"/>
      <point x="141.07999999999998" y="512.02"/>
      <point x="245.06" y="512.02" type="curve" smooth="yes"/>
      <point x="270.12" y="512.02"/>
      <point x="294.64" y="506.15"/>
      <point x="314.38" y="489.82" type="curve"/>
      <point x="245.44" y="53.54" type="line"/>
      <point x="218.56" y="33.89"/>
      <point x="180.85" y="20.060000000000002"/>
    </contour>
  </outline>
</glyph>
<glyph name="eth" format="2">
  <advance width="387.72999999999996"/>
  <unicode hex="00F0"/>
  <outline>
    <contour>
      <point x="352.31" y="462.13" type="curve"/>
      <point x="358.96999999999997" y="492.15999999999997" type="line"/>
      <point x="332.43" y="519.5799999999999"/>
      <point x="290.52000000000004" y="534.0"/>
      <point x="245.73000000000002" y="534.0" type="curve" smooth="yes"/>
      <point x="104.11999999999999" y="534.0"/>
      <point x="25.110000000000003" y="334.15999999999997"/>
      <point x="25.110000000000003" y="146.63" type="curve" smooth="yes"/>
      <point x="25.110000000000003" y="41.269999999999996"/>
      <point x="71.16" y="-9.91"/>
      <point x="152.27" y="-9.91" type="curve" smooth="yes"/>
      <point x="258.72" y="-9.91"/>
      <point x="317.78999999999996" y="75.05"/>
      <point x="355.24000000000007" y="302.88" type="curve" smooth="yes"/>
      <point x="369.02000000000004" y="387.01"/>
      <point x="376.34" y="451.03000000000003"/>
      <point x="376.34" y="505.4100000000001" type="curve" smooth="yes"/>
      <point x="376.34" y="643.62"/>
      <point x="312.66" y="714.23"/>
      <point x="191.64" y="714.23" type="curve" smooth="yes"/>
      <point x="163.48000000000002" y="714.23"/>
      <point x="133.39999999999998" y="710.33"/>
      <point x="100.49000000000001" y="703.24" type="curve"/>
      <point x="103.39999999999999" y="675.48" type="line"/>
      <point x="135.78" y="682.0300000000001"/>
      <point x="158.04999999999998" y="685.48"/>
      <point x="187.99" y="685.48" type="curve" smooth="yes"/>
      <point x="290.48" y="685.48"/>
      <point x="342.31" y="628.36"/>
      <point x="342.31" y="507.59999999999997" type="curve" smooth="yes"/>
      <point x="342.31" y="453.11999999999995"/>
      <point x="335.85" y="386.82"/>
      <point x="321.89000000000004" y="306.25" type="curve" smooth="yes"/>
      <point x="285.57000000000005" y="95.53"/>
      <point x="236.85999999999999" y="18.84"/>
      <point x="154.53" y="18.84" type="curve" smooth="yes"/>
      <point x="91.71000000000001" y="18.84"/>
      <point x="58.19" y="59.96"/>
      <point x="58.19" y="142.88" type="curve" smooth="yes"/>
      <point x="58.19" y="310.02"/>
      <point x="127.91" y="505.57"/>
      <point x="248.02" y="505.57" type="curve" smooth="yes"/>
      <point x="287.87" y="505.57"/>
      <point x="324.8" y="493.47"/>
    </contour>
    <contour>
      <point x="163.14000000000001" y="569.53" type="line"/>
      <point x="309.69000000000005" y="650.7900000000001" type="line"/>
      <point x="308.83" y="651.51" type="line"/>
      <point x="433.46000000000004" y="720.51" type="line"/>
      <point x="388.03" y="720.51" type="line"/>
      <point x="293.44000000000005" y="668.75" type="line"/>
      <point x="294.07" y="668.12" type="line"/>
      <point x="117.66" y="569.53" type="line"/>
    </contour>
  </outline>
</glyph>
<glyph name="divide" format="2">
  <advance width="382.322"/>
  <unicode hex="00F7"/>
  <outline>
    <contour>
      <point x="140.126" y="88.40599999999999" type="curve" smooth="yes"/>
      <point x="139.126" y="77.09199999999998"/>
      <point x="142.86800000000002" y="73.45599999999999"/>
      <point x="157.48399999999998" y="73.45599999999999" type="curve" smooth="yes"/>
      <point x="178.132" y="73.45599999999999"/>
      <point x="181.89600000000002" y="77.696"/>
      <point x="184.716" y="105.46600000000001" type="curve" smooth="yes"/>
      <point x="185.716" y="117.52600000000001"/>
      <point x="180.482" y="120.416"/>
      <point x="166.792" y="120.416" type="curve" smooth="yes"/>
      <point x="147.186" y="120.416"/>
      <point x="142.94600000000003" y="115.006"/>
    </contour>
    <contour>
      <point x="202.94" y="479.55400000000003" type="curve" smooth="yes"/>
      <point x="201.94" y="468.33"/>
      <point x="205.59199999999998" y="464.694"/>
      <point x="220.20800000000003" y="464.694" type="curve" smooth="yes"/>
      <point x="240.85600000000002" y="464.694"/>
      <point x="244.62" y="469.024"/>
      <point x="247.44" y="496.61400000000003" type="curve" smooth="yes"/>
      <point x="248.44" y="508.764"/>
      <point x="243.29600000000002" y="511.654"/>
      <point x="229.51600000000002" y="511.654" type="curve" smooth="yes"/>
      <point x="209.64000000000001" y="511.654"/>
      <point x="205.76" y="505.88399999999996"/>
    </contour>
    <contour>
      <point x="44.565999999999995" y="275.85" type="line"/>
      <point x="338.51200000000006" y="275.85" type="line"/>
      <point x="343.926" y="309.34999999999997" type="line"/>
      <point x="49.88999999999999" y="309.34999999999997" type="line"/>
    </contour>
  </outline>
</glyph>
<glyph name="oslash" format="2">
  <advance width="369.84999999999997"/>
  <unicode hex="00F8"/>
  <anchor x="225.59" y="531.8" name="top"/>
  <outline>
    <contour>
      <point x="349.96" y="541.48" type="line"/>
      <point x="310.12" y="481.42" type="line"/>
      <point x="308.26" y="481.69" type="line"/>
      <point x="51.35" y="77.16" type="line"/>
      <point x="49.58" y="77.61" type="line"/>
      <point x="-7.88" y="-10.0" type="line"/>
      <point x="22.57" y="-10.0" type="line"/>
      <point x="62.35" y="48.72" type="line"/>
      <point x="64.3" y="48.449999999999996" type="line"/>
      <point x="320.99" y="453.31" type="line"/>
      <point x="322.67" y="452.86" type="line"/>
      <point x="380.40999999999997" y="541.48" type="line"/>
    </contour>
    <contour>
      <point x="149.92000000000002" y="-10.0" type="curve" smooth="yes"/>
      <point x="283.78000000000003" y="-10.0"/>
      <point x="344.88" y="231.1"/>
      <point x="344.88" y="394.71000000000004" type="curve" smooth="yes"/>
      <point x="344.88" y="500.41"/>
      <point x="300.63" y="541.48"/>
      <point x="221.33" y="541.48" type="curve" smooth="yes"/>
      <point x="88.16" y="541.48"/>
      <point x="26.01" y="296.65999999999997"/>
      <point x="26.01" y="135.85999999999999" type="curve" smooth="yes"/>
      <point x="26.01" y="29.52"/>
      <point x="68.75999999999999" y="-10.0"/>
    </contour>
    <contour>
      <point x="150.65" y="20.099999999999998" type="curve" smooth="yes"/>
      <point x="90.75" y="20.009999999999998"/>
      <point x="58.730000000000004" y="49.89"/>
      <point x="58.64" y="136.05" type="curve" smooth="yes"/>
      <point x="58.46" y="266.33"/>
      <point x="114.19000000000001" y="511.2"/>
      <point x="220.74" y="511.38" type="curve" smooth="yes"/>
      <point x="278.82" y="511.47"/>
      <point x="312.07" y="479.27"/>
      <point x="312.15999999999997" y="394.11" type="curve" smooth="yes"/>
      <point x="312.34" y="260.16"/>
      <point x="257.98" y="20.279999999999998"/>
    </contour>
  </outline>
</glyph>
<glyph name="thorn" format="2">
  <advance width="375.295"/>
  <unicode hex="00FE"/>
  <outline>
    <contour>
      <point x="-16.785999999999994" y="-210.0" type="line"/>
      <point x="16.471" y="-210.0" type="line"/>
      <point x="50.016999999999996" y="0.5480000000000003" type="line"/>
      <point x="71.387" y="-5.546"/>
      <point x="95.389" y="-9.865"/>
      <point x="124.75300000000001" y="-9.865" type="curve" smooth="yes"/>
      <point x="262.95" y="-9.865"/>
      <point x="351.052" y="177.19"/>
      <point x="351.052" y="379.69100000000003" type="curve" smooth="yes"/>
      <point x="351.052" y="490.17199999999997"/>
      <point x="315.324" y="541.8"/>
      <point x="242.60600000000002" y="541.8" type="curve" smooth="yes"/>
      <point x="199.391" y="541.8"/>
      <point x="165.344" y="524.761"/>
      <point x="129.105" y="502.215" type="curve"/>
      <point x="167.19899999999998" y="740.0" type="line"/>
      <point x="133.214" y="740.0" type="line"/>
    </contour>
    <contour>
      <point x="121.859" y="20.782" type="curve" smooth="yes"/>
      <point x="95.52199999999999" y="20.782"/>
      <point x="72.77999999999999" y="25.421999999999997"/>
      <point x="54.997" y="32.016999999999996" type="curve"/>
      <point x="124.303" y="469.82" type="line"/>
      <point x="157.965" y="493.613"/>
      <point x="197.99300000000002" y="509.398"/>
      <point x="230.74099999999999" y="509.398" type="curve" smooth="yes"/>
      <point x="287.46" y="509.398"/>
      <point x="316.617" y="465.0"/>
      <point x="316.617" y="373.719" type="curve" smooth="yes"/>
      <point x="316.617" y="193.85000000000002"/>
      <point x="238.61" y="20.782"/>
    </contour>
  </outline>
</glyph>
<glyph name="Dcroat" format="2">
  <advance width="457.58799999999997"/>
  <unicode hex="0110"/>
  <outline>
    <contour>
      <point x="21.142" y="345.051" type="line"/>
      <point x="222.37" y="345.051" type="line"/>
      <point x="227.71" y="375.805" type="line"/>
      <point x="26.81" y="375.805" type="line"/>
    </contour>
    <component base="D" xOffset="6.167"/>
  </outline>
</glyph>
<glyph name="dcroat" format="2">
  <advance width="378.883"/>
  <unicode hex="0111"/>
  <outline>
    <contour>
      <point x="211.678" y="619.023" type="line"/>
      <point x="437.25000000000006" y="619.023" type="line"/>
      <point x="441.51" y="642.48" type="line"/>
      <point x="215.983" y="642.48" type="line"/>
    </contour>
    <component base="d"/>
  </outline>
</glyph>
<glyph name="Hbar" format="2">
  <advance width="470.104"/>
  <unicode hex="0126"/>
  <outline>
    <contour>
      <point x="47.284" y="501.36600000000004" type="line"/>
      <point x="494.802" y="501.36600000000004" type="line"/>
      <point x="499.01800000000003" y="529.588" type="line"/>
      <point x="51.50000000000001" y="529.588" type="line"/>
    </contour>
    <component base="H" xOffset="1.2879999999999998"/>
  </outline>
</glyph>
<glyph name="hbar" format="2">
  <advance width="384.5299999999999"/>
  <unicode hex="0127"/>
  <outline>
    <contour>
      <point x="55.11599999999999" y="619.023" type="line"/>
      <point x="260.11899999999997" y="619.023" type="line"/>
      <point x="264.289" y="642.48" type="line"/>
      <point x="59.285999999999994" y="642.48" type="line"/>
    </contour>
    <component base="h" xOffset="0.45"/>
  </outline>
</glyph>
<glyph name="Idotaccent" format="2">
  <advance width="154.846"/>
  <unicode hex="0130"/>
  <outline>
    <contour>
      <point x="169.91799999999998" y="855.37" type="curve" smooth="yes"/>
      <point x="149.31400000000002" y="855.37"/>
      <point x="145.05599999999998" y="847.92"/>
      <point x="142.69" y="819.2" type="curve" smooth="yes"/>
      <point x="141.962" y="807.242"/>
      <point x="149.376" y="804.558"/>
      <point x="160.108" y="804.558" type="curve" smooth="yes"/>
      <point x="181.19" y="804.558"/>
      <point x="185.13400000000001" y="811.9"/>
      <point x="187.68200000000002" y="841.0000000000001" type="curve" smooth="yes"/>
      <point x="188.41" y="852.7579999999999"/>
      <point x="181.47" y="855.37"/>
    </contour>
    <component base="I"/>
  </outline>
</glyph>
<glyph name="dotlessi" format="2">
  <advance width="152.566"/>
  <unicode hex="0131"/>
  <anchor x="31.871992000000002" y="0.0" name="bottom"/>
  <anchor x="49.37" y="0.0" name="ogonek"/>
  <anchor x="116.32600799999999" y="531.8" name="top"/>
  <outline>
    <contour>
      <point x="49.37" y="0.0" type="line"/>
      <point x="133.62199999999999" y="531.8" type="line"/>
      <point x="99.57400000000001" y="531.8" type="line"/>
      <point x="16.014" y="0.018" type="line"/>
    </contour>
  </outline>
</glyph>
<glyph name="Ldot" format="2">
  <advance width="330.622"/>
  <unicode hex="013F"/>
  <outline>
    <contour>
      <point x="236.22185599999997" y="360.283264" type="curve" smooth="yes"/>
      <point x="234.583856" y="344.859744"/>
      <point x="237.869664" y="340.66400799999997"/>
      <point x="252.51116000000002" y="340.66400799999997" type="curve" smooth="yes"/>
      <point x="270.420392" y="340.66400799999997"/>
      <point x="273.724176" y="346.871048"/>
      <point x="275.726176" y="367.444448" type="curve" smooth="yes"/>
      <point x="277.364176" y="382.079992"/>
      <point x="274.806368" y="387.00372799999997"/>
      <point x="260.230824" y="387.00372799999997" type="curve" smooth="yes"/>
      <point x="242.38761599999998" y="387.00372799999997"/>
      <point x="238.223856" y="380.78466399999996"/>
    </contour>
    <component base="L"/>
  </outline>
</glyph>
<glyph name="ldot" format="2">
  <advance width="212.88400000000001"/>
  <unicode hex="0140"/>
  <outline>
    <contour>
      <point x="180.16333" y="356.21668000000005" type="curve" smooth="yes"/>
      <point x="178.52533000000003" y="341.181456"/>
      <point x="181.456682" y="337.205356"/>
      <point x="195.34343800000002" y="337.205356" type="curve" smooth="yes"/>
      <point x="212.38458400000002" y="337.205356"/>
      <point x="215.13169999999997" y="343.11285799999996"/>
      <point x="217.1337" y="363.120932" type="curve" smooth="yes"/>
      <point x="218.7717" y="377.357866"/>
      <point x="216.568348" y="382.061966"/>
      <point x="202.73885" y="382.061966" type="curve" smooth="yes"/>
      <point x="185.754872" y="382.061966"/>
      <point x="182.16533" y="376.176028"/>
    </contour>
    <component base="l"/>
  </outline>
</glyph>
<glyph name="Lslash" format="2">
  <advance width="336.59200000000004"/>
  <unicode hex="0141"/>
  <outline>
    <contour>
      <point x="20.36" y="0.0" type="line"/>
      <point x="283.762" y="0.0" type="line"/>
      <point x="289.012" y="32.716" type="line"/>
      <point x="59.856" y="32.716" type="line"/>
      <point x="98.252" y="273.712" type="line"/>
      <point x="266.44399999999996" y="396.23400000000004" type="line"/>
      <point x="272.83799999999997" y="435.51" type="line"/>
      <point x="104.50199999999998" y="312.916" type="line"/>
      <point x="165.78600000000003" y="700.0" type="line"/>
      <point x="131.50400000000002" y="700.0" type="line"/>
      <point x="66.322" y="287.76599999999996" type="line"/>
      <point x="12.536000000000001" y="247.07600000000002" type="line"/>
      <point x="5.666000000000001" y="207.162" type="line"/>
      <point x="59.343999999999994" y="247.834" type="line"/>
    </contour>
  </outline>
</glyph>
<glyph name="lslash" format="2">
  <advance width="176.08"/>
  <unicode hex="0142"/>
  <outline>
    <contour>
      <point x="1.6440000000000006" y="187.88199999999998" type="line"/>
      <point x="183.41" y="366.538" type="line"/>
      <point x="189.318" y="406.166" type="line"/>
      <point x="7.462" y="227.51" type="line"/>
    </contour>
    <component base="l" xOffset="1.44"/>
  </outline>
</glyph>
<glyph name="Eng" format="2">
  <advance width="463.015"/>
  <unicode hex="014A"/>
  <outline>
    <contour>
      <point x="15.254999999999999" y="0.0" type="line"/>
      <point x="48.97500000000001" y="0.0" type="line"/>
      <point x="147.21" y="626.99" type="line"/>
      <point x="326.45" y="0.4599999999999999" type="line"/>
      <point x="312.075" y="-90.07"/>
      <point x="262.44" y="-118.50000000000001"/>
      <point x="198.62" y="-118.50000000000001" type="curve" smooth="yes"/>
      <point x="176.925" y="-118.68"/>
      <point x="154.23000000000002" y="-114.855"/>
      <point x="132.545" y="-109.08" type="curve"/>
      <point x="125.16" y="-143.92999999999998" type="line"/>
      <point x="149.255" y="-149.885"/>
      <point x="173.435" y="-153.115"/>
      <point x="196.215" y="-153.115" type="curve" smooth="yes"/>
      <point x="299.255" y="-152.845"/>
      <point x="345.09000000000003" y="-94.80000000000001"/>
      <point x="361.17499999999995" y="5.11" type="curve" smooth="yes"/>
      <point x="471.62499999999994" y="700.0" type="line"/>
      <point x="438.315" y="700.0" type="line"/>
      <point x="340.495" y="73.49499999999999" type="line"/>
      <point x="162.15500000000003" y="701.82" type="line"/>
      <point x="125.89" y="701.82" type="line"/>
    </contour>
  </outline>
</glyph>
<glyph name="eng" format="2">
  <advance width="381.556"/>
  <unicode hex="014B"/>
  <outline>
    <contour>
      <point x="267.876" y="-62.983999999999995" type="curve" smooth="yes"/>
      <point x="329.91800000000006" y="335.61999999999995"/>
      <point x="349.396" y="451.59999999999997"/>
      <point x="349.396" y="462.87799999999993" type="curve" smooth="yes"/>
      <point x="349.396" y="510.28000000000003"/>
      <point x="319.568" y="541.8"/>
      <point x="261.908" y="541.8" type="curve" smooth="yes"/>
      <point x="215.16" y="541.8"/>
      <point x="170.302" y="523.794"/>
      <point x="126.368" y="499.48199999999997" type="curve"/>
      <point x="131.822" y="531.8" type="line"/>
      <point x="99.55600000000001" y="531.8" type="line"/>
      <point x="15.468000000000002" y="0.0" type="line"/>
      <point x="48.698" y="0.0" type="line"/>
      <point x="123.584" y="469.90999999999997" type="line"/>
      <point x="164.03" y="493.254"/>
      <point x="206.44400000000002" y="510.48600000000005"/>
      <point x="245.782" y="510.48600000000005" type="curve" smooth="yes"/>
      <point x="293.562" y="510.48600000000005"/>
      <point x="314.102" y="488.798"/>
      <point x="313.95799999999997" y="450.228" type="curve" smooth="yes"/>
      <point x="313.74199999999996" y="438.81600000000003"/>
      <point x="300.642" y="359.12399999999997"/>
      <point x="235.098" y="-58.74" type="curve" smooth="yes"/>
      <point x="222.65400000000002" y="-137.116"/>
      <point x="200.334" y="-187.784"/>
      <point x="145.334" y="-187.784" type="curve" smooth="yes"/>
      <point x="135.162" y="-187.784"/>
      <point x="125.684" y="-186.692"/>
      <point x="113.366" y="-183.08999999999997" type="curve"/>
      <point x="105.16199999999999" y="-215.94799999999998" type="line"/>
      <point x="117.484" y="-219.548"/>
      <point x="134.894" y="-221.09199999999998"/>
      <point x="149.00600000000003" y="-221.09199999999998" type="curve" smooth="yes"/>
      <point x="215.73000000000002" y="-221.09199999999998"/>
      <point x="251.86800000000002" y="-168.53000000000003"/>
    </contour>
  </outline>
</glyph>
<glyph name="OE" format="2">
  <advance width="670.8749999999999"/>
  <unicode hex="0152"/>
  <outline>
    <contour>
      <point x="606.6080000000001" y="0.0" type="line"/>
      <point x="611.858" y="32.815" type="line"/>
      <point x="354.471" y="32.815" type="line"/>
      <point x="404.40799999999996" y="349.36" type="line"/>
      <point x="631.583" y="349.36" type="line"/>
      <point x="636.923" y="381.725" type="line"/>
      <point x="409.65799999999996" y="381.725" type="line"/>
      <point x="454.45" y="666.9599999999999" type="line"/>
      <point x="699.12" y="666.9599999999999" type="line"/>
      <point x="705.161" y="700.0" type="line"/>
      <point x="455.88" y="700.0" type="line"/>
      <point x="418.331" y="703.8810000000001"/>
      <point x="374.956" y="710.0"/>
      <point x="334.507" y="710.0" type="curve" smooth="yes"/>
      <point x="153.194" y="710.0"/>
      <point x="38.647" y="512.1320000000001"/>
      <point x="38.647" y="195.327" type="curve" smooth="yes"/>
      <point x="38.647" y="46.95400000000001"/>
      <point x="98.79800000000002" y="-10.0"/>
      <point x="231.983" y="-10.0" type="curve" smooth="yes"/>
      <point x="263.474" y="-10.0"/>
      <point x="301.75300000000004" y="-6.209"/>
      <point x="345.99299999999994" y="0.0" type="curve"/>
    </contour>
    <contour>
      <point x="319.2" y="28.214" type="line"/>
      <point x="286.94199999999995" y="23.200999999999997"/>
      <point x="261.18600000000004" y="21.619"/>
      <point x="233.29500000000002" y="21.619" type="curve" smooth="yes"/>
      <point x="115.98" y="21.619"/>
      <point x="73.11100000000002" y="79.98000000000002"/>
      <point x="73.11100000000002" y="202.076" type="curve" smooth="yes"/>
      <point x="73.11100000000002" y="484.23999999999995"/>
      <point x="176.81699999999998" y="678.5870000000001"/>
      <point x="332.563" y="678.5870000000001" type="curve" smooth="yes"/>
      <point x="354.65" y="678.5870000000001"/>
      <point x="404.40700000000004" y="674.111"/>
      <point x="420.94100000000003" y="671.7090000000001" type="curve"/>
    </contour>
  </outline>
</glyph>
<glyph name="oe" format="2">
  <advance width="623.72"/>
  <unicode hex="0153"/>
  <outline>
    <contour>
      <point x="150.98" y="-10.0" type="curve" smooth="yes"/>
      <point x="217.67000000000002" y="-10.0"/>
      <point x="269.18" y="53.910000000000004"/>
      <point x="298.59999999999997" y="146.47" type="curve"/>
      <point x="306.73999999999995" y="44.82"/>
      <point x="354.65000000000003" y="-10.0"/>
      <point x="438.13" y="-10.0" type="curve" smooth="yes"/>
      <point x="483.48" y="-10.0"/>
      <point x="534.83" y="0.9999999999999999"/>
      <point x="570.72" y="18.810000000000002" type="curve"/>
      <point x="561.92" y="48.129999999999995" type="line"/>
      <point x="521.5200000000001" y="30.95"/>
      <point x="479.16" y="21.54"/>
      <point x="443.06" y="21.54" type="curve" smooth="yes"/>
      <point x="368.84999999999997" y="21.54"/>
      <point x="325.96" y="77.77"/>
      <point x="325.96" y="178.17" type="curve" smooth="yes"/>
      <point x="325.96" y="372.35"/>
      <point x="405.64000000000004" y="511.69999999999993"/>
      <point x="512.58" y="511.69999999999993" type="curve" smooth="yes"/>
      <point x="565.03" y="511.69999999999993"/>
      <point x="590.73" y="487.03999999999996"/>
      <point x="590.73" y="443.06" type="curve" smooth="yes"/>
      <point x="590.73" y="377.71000000000004"/>
      <point x="531.42" y="319.75"/>
      <point x="439.09999999999997" y="290.59999999999997" type="curve" smooth="yes"/>
      <point x="402.90000000000003" y="279.14"/>
      <point x="361.56" y="272.5"/>
      <point x="323.45000000000005" y="271.27" type="curve"/>
      <point x="318.83" y="242.15" type="line"/>
      <point x="360.78999999999996" y="243.7"/>
      <point x="405.93" y="250.01999999999998"/>
      <point x="442.09999999999997" y="261.43" type="curve" smooth="yes"/>
      <point x="553.18" y="294.47999999999996"/>
      <point x="623.31" y="363.83"/>
      <point x="623.31" y="448.66999999999996" type="curve" smooth="yes"/>
      <point x="623.31" y="506.96"/>
      <point x="584.65" y="541.8"/>
      <point x="516.65" y="541.8" type="curve" smooth="yes"/>
      <point x="438.95" y="541.8"/>
      <point x="374.88" y="489.76"/>
      <point x="337.88" y="402.76" type="curve"/>
      <point x="335.23" y="496.4"/>
      <point x="297.75" y="541.48"/>
      <point x="214.82" y="541.48" type="curve" smooth="yes"/>
      <point x="90.25999999999999" y="541.48"/>
      <point x="23.42" y="296.57"/>
      <point x="23.42" y="136.31" type="curve" smooth="yes"/>
      <point x="23.42" y="30.060000000000002"/>
      <point x="65.72" y="-10.0"/>
    </contour>
    <contour>
      <point x="152.34" y="20.46" type="curve" smooth="yes"/>
      <point x="88.52" y="20.46"/>
      <point x="56.77" y="49.98"/>
      <point x="56.68" y="136.23000000000002" type="curve" smooth="yes"/>
      <point x="56.5" y="267.23"/>
      <point x="117.78" y="510.93"/>
      <point x="213.87" y="511.02" type="curve" smooth="yes"/>
      <point x="275.87" y="511.02"/>
      <point x="308.94000000000005" y="479.27"/>
      <point x="309.03000000000003" y="393.93" type="curve" smooth="yes"/>
      <point x="309.21000000000004" y="260.7"/>
      <point x="249.21" y="20.55"/>
    </contour>
  </outline>
</glyph>
<glyph name="uni0162" format="2">
  <advance width="343.204"/>
  <unicode hex="0162"/>
  <anchor x="127.637208" y="0.0" name="_bottom"/>
  <anchor x="85.22800000000001" y="-220.0" name="bottom"/>
  <outline>
    <contour>
      <point x="32.464000000000006" y="-204.432" type="line"/>
      <point x="49.586000000000006" y="-216.0"/>
      <point x="67.31" y="-220.0"/>
      <point x="86.866" y="-220.0" type="curve" smooth="yes"/>
      <point x="141.03400000000002" y="-220.0"/>
      <point x="168.16" y="-163.96599999999998"/>
      <point x="168.16" y="-104.166" type="curve" smooth="yes"/>
      <point x="168.16" y="-65.318"/>
      <point x="157.134" y="-27.706000000000003"/>
      <point x="140.726" y="1.666" type="curve"/>
      <point x="114.14800000000001" y="0.6839999999999999" type="line"/>
      <point x="131.104" y="-33.82599999999999"/>
      <point x="140.31" y="-66.99399999999999"/>
      <point x="140.31" y="-101.46199999999999" type="curve" smooth="yes"/>
      <point x="140.31" y="-158.62800000000001"/>
      <point x="118.056" y="-192.50400000000002"/>
      <point x="84.25" y="-192.50400000000002" type="curve" smooth="yes"/>
      <point x="68.662" y="-192.50400000000002"/>
      <point x="55.42" y="-187.68200000000002"/>
      <point x="41.906" y="-179.25799999999998" type="curve"/>
    </contour>
    <component base="T"/>
  </outline>
</glyph>
<glyph name="Tbar" format="2">
  <advance width="346.476"/>
  <unicode hex="0166"/>
  <outline>
    <contour>
      <point x="402.212" y="667.986" type="line"/>
      <point x="407.444" y="700.0" type="line"/>
      <point x="73.22999999999999" y="700.0" type="line"/>
      <point x="67.98" y="667.986" type="line"/>
      <point x="217.77200000000002" y="667.986" type="line"/>
      <point x="173.168" y="390.80999999999995" type="line"/>
      <point x="62.774" y="390.80999999999995" type="line"/>
      <point x="57.416000000000004" y="360.002" type="line"/>
      <point x="168.77200000000002" y="360.002" type="line"/>
      <point x="111.77" y="0.0" type="line"/>
      <point x="145.98000000000002" y="0.0" type="line"/>
      <point x="202.98200000000003" y="360.002" type="line"/>
      <point x="317.16" y="360.002" type="line"/>
      <point x="322.518" y="390.80999999999995" type="line"/>
      <point x="208.106" y="390.80999999999995" type="line"/>
      <point x="251.96400000000003" y="667.986" type="line"/>
    </contour>
  </outline>
</glyph>
